<svg width="128" height="37" viewBox="0 0 128 37" fill="none" xmlns="http://www.w3.org/2000/svg">
<g id="Group 1948757208">
<g id="g2826">
<g id="g2918">
<g id="g2862">
<g id="Clip path group">
<mask id="mask0_4032_66072" style="mask-type:luminance" maskUnits="userSpaceOnUse" x="0" y="0" width="128" height="37">
<g id="clipPath2866">
<path id="path2868" d="M128 0.571625H0V36.8545H128V0.571625Z" fill="white"/>
</g>
</mask>
<g mask="url(#mask0_4032_66072)">
<g id="g2864">
<path id="path2870" d="M14.4144 8.13875C16.6758 14.0557 12.9886 17.8536 9.3159 21.6577C5.89777 25.5444 2.88688 29.5846 8.94265 36.8555C6.68052 30.9393 10.3684 27.1407 14.0381 23.3404C17.4593 19.4452 20.4701 15.4104 14.4144 8.13875Z" fill="#EB0438"/>
<path id="path2872" d="M8.94174 0.571583C11.2069 6.49083 7.5213 10.2864 3.84552 14.0882C0.428151 17.978 -2.58198 22.0182 3.47606 29.2891C1.21242 23.3683 4.89952 19.5735 8.57152 15.7717C11.9912 11.8811 14.9983 7.84249 8.94174 0.571583Z" fill="#01A75D"/>
</g>
</g>
</g>
</g>
<path id="path2874" d="M101.875 24.0051V36.0991H107.012V31.6718H112.657V29.0245H107.012V26.6523H118.209V36.0991H123.347V26.6523H128.001V24.0051H101.875Z" fill="#01A75D"/>
<path id="path2876" d="M90.8519 33.4745V31.3781H97.5506V28.7285H90.8519V26.6523H99.4561V24.0051H85.7148V36.0991H99.5619V33.4745H90.8519Z" fill="#01A75D"/>
<path id="path2878" d="M36.669 24.0051H22.4336V26.6523H26.9828V36.0991H32.1198V26.6523H36.669V24.0051Z" fill="#EB0438"/>
<path id="path2880" d="M40.5597 31.5167L42.9367 26.8354L45.2116 31.5167H40.5597ZM46.8127 24.0051H41.3062L34.8945 36.0991H38.2333L39.2873 34.0229H46.487L47.538 36.0991H53.2273L46.8127 24.0051Z" fill="#EB0438"/>
<path id="path2882" d="M79.41 24.0051V30.0513L71.1941 24.0051H67.207V36.0991H70.7234V29.4452L79.1599 36.0991H82.9256V24.0051H79.41Z" fill="#01A75D"/>
<path id="path2884" d="M65.4643 24.0051H51.5273V26.6523H56.0758V36.0991H61.2135V26.6523H65.4643V24.0051Z" fill="#EB0438"/>
</g>
</g>
</g>
</svg>
