<svg width="192" height="165" viewBox="0 0 192 165" fill="none" xmlns="http://www.w3.org/2000/svg">
<path d="M137.783 7.13281H52.5878C49.4122 7.13281 46.8379 9.70714 46.8379 12.8828V67.9817C46.8379 71.1573 49.4122 73.7317 52.5878 73.7317H137.783C140.959 73.7317 143.533 71.1573 143.533 67.9817V12.8828C143.533 9.70714 140.959 7.13281 137.783 7.13281Z" fill="white" stroke="#0E0E14" stroke-miterlimit="10"/>
<path d="M51.8223 73.7336H138.551C141.304 73.7336 143.535 71.5025 143.535 68.7498V64.8076H46.8398V68.7498C46.8398 71.5025 49.071 73.7336 51.8237 73.7336H51.8223Z" fill="white" stroke="#0E0E14" stroke-miterlimit="10"/>
<path d="M107.433 73.7324H82.9375V86.778H107.433V73.7324Z" fill="white" stroke="#0E0E14" stroke-miterlimit="10"/>
<path d="M111.849 84.8242H78.5199C78.0063 84.8242 77.5898 85.2406 77.5898 85.7543V87.804C77.5898 88.3177 78.0063 88.7341 78.5199 88.7341H111.849C112.363 88.7341 112.779 88.3177 112.779 87.804V85.7543C112.779 85.2406 112.363 84.8242 111.849 84.8242Z" fill="white" stroke="#0E0E14" stroke-miterlimit="10"/>
<path d="M95.1858 12.8365C98.3358 12.8365 100.889 10.283 100.889 7.13311C100.889 3.9832 98.3358 1.42969 95.1858 1.42969C92.0359 1.42969 89.4824 3.9832 89.4824 7.13311C89.4824 10.283 92.0359 12.8365 95.1858 12.8365Z" fill="white" stroke="#0E0E14" stroke-miterlimit="10"/>
<path d="M95.1825 9.1442C96.2929 9.1442 97.193 8.24404 97.193 7.13364C97.193 6.02323 96.2929 5.12305 95.1825 5.12305C94.0721 5.12305 93.1719 6.02323 93.1719 7.13364C93.1719 8.24404 94.0721 9.1442 95.1825 9.1442Z" fill="white" stroke="#FF6D00" stroke-miterlimit="10"/>
<path d="M63.2871 111.452V101.05L1 105.229V115.685C1 115.7 1 115.714 1 115.727V115.738C1.02151 116.089 1.28091 116.425 1.72311 116.425H50.3087C52.8947 116.425 55.4471 115.844 57.7791 114.726L62.8933 112.273C63.2441 112.105 63.2844 111.773 63.2844 111.452H63.2871Z" fill="white" stroke="#0E0E14" stroke-linejoin="round"/>
<path d="M50.3117 105.934H1.72608C0.922326 105.934 0.715338 104.821 1.46533 104.532L9.16688 101.56C11.1507 100.795 13.2582 100.401 15.3846 100.401H62.5831C63.3546 100.401 63.5925 101.447 62.8963 101.78L57.782 104.233C55.4501 105.352 52.8977 105.932 50.3117 105.932V105.934Z" fill="white" stroke="#0E0E14" stroke-miterlimit="10"/>
<path d="M5.19902 112.995C6.05862 112.995 6.75545 112.298 6.75545 111.438C6.75545 110.578 6.05862 109.882 5.19902 109.882C4.33942 109.882 3.64258 110.578 3.64258 111.438C3.64258 112.298 4.33942 112.995 5.19902 112.995Z" fill="white" stroke="#FF6D00" stroke-linejoin="round"/>
<path d="M46.6825 112.216C47.1123 112.216 47.4607 111.868 47.4607 111.438C47.4607 111.008 47.1123 110.66 46.6825 110.66C46.2527 110.66 45.9043 111.008 45.9043 111.438C45.9043 111.868 46.2527 112.216 46.6825 112.216Z" fill="white" stroke="#0E0E14" stroke-linejoin="round"/>
<path d="M43.3681 112.216C43.7979 112.216 44.1463 111.868 44.1463 111.438C44.1463 111.008 43.7979 110.66 43.3681 110.66C42.9383 110.66 42.5898 111.008 42.5898 111.438C42.5898 111.868 42.9383 112.216 43.3681 112.216Z" fill="white" stroke="#0E0E14" stroke-linejoin="round"/>
<path d="M131.4 117.684V107.282L190.999 111.461V121.918C190.999 121.933 190.999 121.946 190.999 121.96V121.97C190.978 122.321 190.718 122.657 190.276 122.657H144.379C141.793 122.657 139.24 122.076 136.908 120.958L131.794 118.505C131.443 118.337 131.394 118.007 131.403 117.684H131.4Z" fill="white" stroke="#0E0E14" stroke-linejoin="round"/>
<path d="M144.376 112.165H190.274C191.078 112.165 191.285 111.052 190.535 110.763L182.833 107.791C180.849 107.027 178.742 106.633 176.615 106.633H132.105C131.333 106.633 131.096 107.679 131.792 108.012L136.906 110.465C139.238 111.583 141.79 112.164 144.376 112.164V112.165Z" fill="white" stroke="#0E0E14" stroke-miterlimit="10"/>
<path d="M131.4 104.679V94.2773L190.999 98.4561V108.913C190.999 108.928 190.999 108.941 190.999 108.955V108.965C190.978 109.316 190.718 109.652 190.276 109.652H144.379C141.793 109.652 139.24 109.072 136.908 107.953L131.794 105.5C131.443 105.332 131.394 105.002 131.403 104.679H131.4Z" fill="white" stroke="#0E0E14" stroke-linejoin="round"/>
<path d="M184.121 118.954C185.04 118.954 185.785 118.209 185.785 117.29C185.785 116.371 185.04 115.626 184.121 115.626C183.202 115.626 182.457 116.371 182.457 117.29C182.457 118.209 183.202 118.954 184.121 118.954Z" fill="white" stroke="#FF6D00" stroke-linejoin="round"/>
<path d="M179.759 116.397H176.534C176.318 116.397 176.143 116.573 176.143 116.789V117.787C176.143 118.003 176.318 118.178 176.534 118.178H179.759C179.976 118.178 180.151 118.003 180.151 117.787V116.789C180.151 116.573 179.976 116.397 179.759 116.397Z" fill="white" stroke="#0E0E14" stroke-linecap="round" stroke-linejoin="round"/>
<path d="M174.002 116.397H170.776C170.56 116.397 170.385 116.573 170.385 116.789V117.787C170.385 118.003 170.56 118.178 170.776 118.178H174.002C174.218 118.178 174.393 118.003 174.393 117.787V116.789C174.393 116.573 174.218 116.397 174.002 116.397Z" fill="white" stroke="#0E0E14" stroke-linecap="round" stroke-linejoin="round"/>
<path d="M146.312 115.675V118.901C146.312 119.117 146.488 119.292 146.704 119.292H147.702C147.918 119.292 148.093 119.117 148.093 118.901V115.675C148.093 115.459 147.918 115.284 147.702 115.284H146.704C146.488 115.284 146.312 115.459 146.312 115.675Z" fill="white" stroke="#0E0E14" stroke-linecap="round" stroke-linejoin="round"/>
<path d="M150.348 115.675V118.901C150.348 119.117 150.523 119.292 150.739 119.292H151.737C151.953 119.292 152.128 119.117 152.128 118.901V115.675C152.128 115.459 151.953 115.284 151.737 115.284H150.739C150.523 115.284 150.348 115.459 150.348 115.675Z" fill="white" stroke="#0E0E14" stroke-linecap="round" stroke-linejoin="round"/>
<path d="M154.383 115.675V118.901C154.383 119.117 154.558 119.292 154.774 119.292H155.773C155.989 119.292 156.164 119.117 156.164 118.901V115.675C156.164 115.459 155.989 115.284 155.773 115.284H154.774C154.558 115.284 154.383 115.459 154.383 115.675Z" fill="white" stroke="#0E0E14" stroke-linecap="round" stroke-linejoin="round"/>
<path d="M184.125 105.931C185.044 105.931 185.789 105.186 185.789 104.267C185.789 103.348 185.044 102.604 184.125 102.604C183.206 102.604 182.461 103.348 182.461 104.267C182.461 105.186 183.206 105.931 184.125 105.931Z" fill="white" stroke="#FF6D00" stroke-linejoin="round"/>
<path d="M179.761 103.379H176.536C176.32 103.379 176.145 103.554 176.145 103.77V104.769C176.145 104.985 176.32 105.16 176.536 105.16H179.761C179.977 105.16 180.153 104.985 180.153 104.769V103.77C180.153 103.554 179.977 103.379 179.761 103.379Z" fill="white" stroke="#0E0E14" stroke-linecap="round" stroke-linejoin="round"/>
<path d="M158.321 102.428H147.247C146.61 102.428 146.094 102.944 146.094 103.581V104.954C146.094 105.591 146.61 106.107 147.247 106.107H158.321C158.958 106.107 159.474 105.591 159.474 104.954V103.581C159.474 102.944 158.958 102.428 158.321 102.428Z" fill="white" stroke="#0E0E14" stroke-linecap="round" stroke-linejoin="round"/>
<path d="M149.779 102.428V106.108" stroke="#0E0E14" stroke-linecap="round" stroke-linejoin="round"/>
<path d="M152.789 102.428V106.108" stroke="#0E0E14" stroke-linecap="round" stroke-linejoin="round"/>
<path d="M155.789 102.428V106.108" stroke="#0E0E14" stroke-linecap="round" stroke-linejoin="round"/>
<path d="M144.376 99.1611H190.274C191.078 99.1611 191.285 98.0482 190.535 97.7592L182.833 94.7875C180.849 94.0227 178.742 93.6289 176.615 93.6289H132.105C131.333 93.6289 131.096 94.6746 131.792 95.0079L136.906 97.4609C139.238 98.5791 141.79 99.1598 144.376 99.1598V99.1611Z" fill="white" stroke="#0E0E14" stroke-miterlimit="10"/>
<path d="M95.1854 164.368C110.006 164.368 122.021 161.151 122.021 157.182C122.021 153.214 110.006 149.997 95.1854 149.997C80.3644 149.997 68.3496 153.214 68.3496 157.182C68.3496 161.151 80.3644 164.368 95.1854 164.368Z" fill="white" stroke="#0E0E14" stroke-linejoin="round"/>
<path d="M121.599 156.019C121.689 155.885 121.762 155.751 121.824 155.613L125.177 149.556H113.735C108.916 148.321 102.38 147.562 95.1826 147.562C87.9851 147.562 81.4502 148.321 76.6304 149.556H65.2891L68.5565 155.65C70.2151 159.191 81.5026 161.932 95.1813 161.932C108.86 161.932 119.354 159.381 121.598 156.019H121.599Z" fill="white" stroke="#0E0E14" stroke-linejoin="round"/>
<path d="M95.1849 156.019C112.137 156.019 125.879 152.34 125.879 147.802C125.879 143.263 112.137 139.584 95.1849 139.584C78.2327 139.584 64.4902 143.263 64.4902 147.802C64.4902 152.34 78.2327 156.019 95.1849 156.019Z" fill="white" stroke="#0E0E14" stroke-linejoin="round"/>
<path d="M95.1824 153.412C99.0402 153.412 102.168 152.575 102.168 151.542C102.168 150.51 99.0402 149.673 95.1824 149.673C91.3246 149.673 88.1973 150.51 88.1973 151.542C88.1973 152.575 91.3246 153.412 95.1824 153.412Z" fill="white" stroke="#FF6D00" stroke-linejoin="round"/>
<path d="M170.02 128.561C170.191 128.345 170.156 128.031 169.94 127.859C169.724 127.687 169.409 127.723 169.237 127.939L170.02 128.561ZM169.237 127.939C161.716 137.39 150.29 145.24 136.39 150.485L136.743 151.421C150.774 146.126 162.363 138.183 170.02 128.561L169.237 127.939Z" fill="#0E0E14"/>
<path d="M175.667 85.4069C175.778 85.6597 176.073 85.7744 176.326 85.6632C176.579 85.552 176.694 85.257 176.582 85.0042L175.667 85.4069ZM151.605 59.6955C162.835 66.5393 171.267 75.4032 175.667 85.4069L176.582 85.0042C172.081 74.7705 163.486 65.7646 152.125 58.8416L151.605 59.6955Z" fill="#0E0E14"/>
<path d="M53.97 151.42C54.2283 151.518 54.5168 151.387 54.6143 151.129C54.7118 150.871 54.5814 150.582 54.323 150.485L53.97 151.42ZM18.4115 125.473C25.9411 136.484 38.4665 145.57 53.97 151.42L54.323 150.485C38.9612 144.687 26.6239 135.711 19.237 124.908L18.4115 125.473Z" fill="#0E0E14"/>
<path d="M39.1094 59.6955C39.3452 59.5518 39.4198 59.2442 39.2761 59.0084C39.1324 58.7726 38.8248 58.6979 38.589 58.8416L39.1094 59.6955ZM38.589 58.8416C25.155 67.0285 15.5841 78.1313 12.0827 90.7312L13.0462 90.9989C16.4614 78.7093 25.8259 67.7907 39.1094 59.6955L38.589 58.8416Z" fill="#0E0E14"/>
</svg>
