<svg width="188" height="169" viewBox="0 0 188 169" fill="none" xmlns="http://www.w3.org/2000/svg">
<path d="M147.27 46.8277H39.7345C36.2103 46.8277 33.3533 49.6846 33.3533 53.2088V76.8322C33.3533 80.3564 36.2103 83.2134 39.7345 83.2134H147.27C150.794 83.2134 153.651 80.3564 153.651 76.8322V53.2088C153.651 49.6846 150.794 46.8277 147.27 46.8277Z" fill="white" stroke="#0E0E14" stroke-linecap="round" stroke-linejoin="round"/>
<path d="M147.269 88.6551H39.7343C36.2101 88.6551 33.3532 91.5121 33.3532 95.0363V118.66C33.3532 122.184 36.2101 125.041 39.7343 125.041H147.269C150.794 125.041 153.651 122.184 153.651 118.66V95.0363C153.651 91.5121 150.794 88.6551 147.269 88.6551Z" fill="white" stroke="#0E0E14" stroke-linecap="round" stroke-linejoin="round"/>
<path d="M142.355 111.292C144.809 111.292 146.799 109.302 146.799 106.848C146.799 104.394 144.809 102.405 142.355 102.405C139.901 102.405 137.912 104.394 137.912 106.848C137.912 109.302 139.901 111.292 142.355 111.292Z" fill="white" stroke="#FF6D00" stroke-linejoin="round"/>
<path d="M131.271 104.47H121.532C121.266 104.47 121.051 104.685 121.051 104.951V108.745C121.051 109.01 121.266 109.226 121.532 109.226H131.271C131.537 109.226 131.752 109.01 131.752 108.745V104.951C131.752 104.685 131.537 104.47 131.271 104.47Z" fill="white" stroke="#0E0E14" stroke-linecap="round" stroke-linejoin="round"/>
<path d="M115.895 104.47H106.155C105.89 104.47 105.675 104.685 105.675 104.951V108.745C105.675 109.01 105.89 109.226 106.155 109.226H115.895C116.16 109.226 116.375 109.01 116.375 108.745V104.951C116.375 104.685 116.16 104.47 115.895 104.47Z" fill="white" stroke="#0E0E14" stroke-linecap="round" stroke-linejoin="round"/>
<path d="M41.3973 101.977V111.717C41.3973 111.982 41.6125 112.197 41.878 112.197H45.6724C45.9378 112.197 46.1531 111.982 46.1531 111.717V101.977C46.1531 101.712 45.9378 101.496 45.6724 101.496H41.878C41.6125 101.496 41.3973 101.712 41.3973 101.977Z" fill="white" stroke="#0E0E14" stroke-linecap="round" stroke-linejoin="round"/>
<path d="M52.1717 101.979V111.719C52.1717 111.984 52.3869 112.199 52.6524 112.199H56.4468C56.7122 112.199 56.9275 111.984 56.9275 111.719V101.979C56.9275 101.714 56.7122 101.498 56.4468 101.498H52.6524C52.3869 101.498 52.1717 101.714 52.1717 101.979Z" fill="white" stroke="#0E0E14" stroke-linecap="round" stroke-linejoin="round"/>
<path d="M62.9461 101.977V111.717C62.9461 111.982 63.1613 112.197 63.4268 112.197H67.2212C67.4867 112.197 67.7019 111.982 67.7019 111.717V101.977C67.7019 101.712 67.4867 101.496 67.2212 101.496H63.4268C63.1613 101.496 62.9461 101.712 62.9461 101.977Z" fill="white" stroke="#0E0E14" stroke-linecap="round" stroke-linejoin="round"/>
<path d="M142.652 69.881C145.106 69.881 147.096 67.8916 147.096 65.4375C147.096 62.9834 145.106 60.994 142.652 60.994C140.198 60.994 138.209 62.9834 138.209 65.4375C138.209 67.8916 140.198 69.881 142.652 69.881Z" fill="white" stroke="#FF6D00" stroke-linejoin="round"/>
<path d="M131.568 63.0612H121.829C121.563 63.0612 121.348 63.2764 121.348 63.5419V67.3362C121.348 67.6017 121.563 67.8169 121.829 67.8169H131.568C131.834 67.8169 132.049 67.6017 132.049 67.3362V63.5419C132.049 63.2764 131.834 63.0612 131.568 63.0612Z" fill="white" stroke="#0E0E14" stroke-linecap="round" stroke-linejoin="round"/>
<path d="M62.2784 59.1813H43.9988C42.3977 59.1813 41.0997 60.4792 41.0997 62.0803V68.8547C41.0997 70.4557 42.3977 71.7537 43.9988 71.7537H62.2784C63.8795 71.7537 65.1774 70.4557 65.1774 68.8547V62.0803C65.1774 60.4792 63.8795 59.1813 62.2784 59.1813Z" fill="white" stroke="#0E0E14" stroke-linecap="round" stroke-linejoin="round"/>
<path d="M49.1922 59.181V71.7534" stroke="#0E0E14" stroke-linecap="round" stroke-linejoin="round"/>
<path d="M57.2242 59.181V71.7534" stroke="#0E0E14" stroke-linecap="round" stroke-linejoin="round"/>
<path d="M41.0997 65.4669H65.1774" stroke="#0E0E14" stroke-linecap="round" stroke-linejoin="round"/>
<path d="M144.32 83.2145H43.2754V88.6574H144.32V83.2145Z" fill="white" stroke="#0E0E14" stroke-linecap="round" stroke-linejoin="round"/>
<path d="M28.0241 32.2118L1.16407 1.46311" stroke="#0E0E14"/>
<path d="M159.865 137.228L186.785 168.046" stroke="#0E0E14"/>
<path d="M159.864 32.2114L186.889 1.27353" stroke="#0E0E14"/>
<path d="M28.0211 137.225L1.59258 167.48" stroke="#0E0E14"/>
<path d="M16.7246 1.28223H2C1.44772 1.28223 1 1.72994 1 2.28223V17.0068" stroke="black" stroke-linecap="round"/>
<path d="M171.164 1.01758H185.889C186.441 1.01758 186.889 1.46529 186.889 2.01758V16.7422" stroke="black" stroke-linecap="round"/>
<path d="M16.8887 167.878H2.16406C1.61178 167.878 1.16406 167.43 1.16406 166.878V152.153" stroke="black" stroke-linecap="round"/>
<path d="M171.328 168.143H186.053C186.605 168.143 187.053 167.695 187.053 167.143V152.418" stroke="black" stroke-linecap="round"/>
</svg>
