<svg width="229" height="90" viewBox="0 0 229 90" fill="none" xmlns="http://www.w3.org/2000/svg">
<path d="M220.16 1H148.173C143.751 1 140.167 4.58443 140.167 9.00605V80.9939C140.167 85.4155 143.751 88.9999 148.173 88.9999H220.16C224.582 88.9999 228.166 85.4155 228.166 80.9939V9.00605C228.166 4.58443 224.582 1 220.16 1Z" fill="white" stroke="#0E0E14" stroke-linecap="round" stroke-linejoin="round"/>
<path d="M197.073 61.9219H175.436L186.758 40.8227H208.395L197.073 61.9219Z" stroke="#0E0E14" stroke-linecap="round" stroke-linejoin="round"/>
<path d="M197.072 61.9218H175.435L159.935 30.273H181.572L197.072 61.9218Z" fill="white" stroke="#0E0E14" stroke-linecap="round" stroke-linejoin="round"/>
<path d="M175.437 61.9224L186.771 41.0983" stroke="black"/>
<path d="M129.172 40.3335L123.856 35.669V40.3839H94.6745V49.6138H123.856V54.3303L129.172 49.6642L134.488 44.9996L129.172 40.3335Z" fill="white" stroke="#FF6D00" stroke-linecap="round" stroke-linejoin="round"/>
<path d="M80.9939 1.00005H9.00605C4.58443 1.00005 1 4.58448 1 9.0061V80.9939C1 85.4156 4.58443 89 9.00605 89H80.9939C85.4155 89 88.9999 85.4156 88.9999 80.9939V9.0061C88.9999 4.58448 85.4155 1.00005 80.9939 1.00005Z" fill="white" stroke="#0E0E14" stroke-linecap="round" stroke-linejoin="round"/>
<path d="M34.2532 50.4764H31.4828V61.4572H34.2532V50.4764Z" fill="white" stroke="#0E0E14" stroke-linecap="round" stroke-linejoin="round"/>
<path d="M56.5934 53.6228C56.4828 53.5657 55.5911 53.036 54.265 53.036C52.4701 53.036 51.2277 54.284 51.2277 55.9646C51.2277 57.6451 52.4186 58.8951 54.265 58.8951C55.5683 58.8951 56.4733 58.3787 56.5934 58.3121V61.2597C56.2485 61.3569 55.3034 61.6503 54.0668 61.6503C50.9514 61.6503 48.2209 59.501 48.2209 55.9646C48.2209 52.6854 50.6961 50.2808 54.0668 50.2808C55.3701 50.2808 56.3323 50.597 56.5934 50.6751V53.6228Z" fill="white" stroke="#0E0E14" stroke-linecap="round" stroke-linejoin="round"/>
<path d="M27.6722 53.623C27.5617 53.5659 26.6699 53.0362 25.3438 53.0362C23.5489 53.0362 22.3065 54.2842 22.3065 55.9648C22.3065 57.6453 23.4974 58.8953 25.3438 58.8953C26.6471 58.8953 27.5521 58.3789 27.6722 58.3123V61.2599C27.3273 61.3571 26.3822 61.6505 25.1456 61.6505C22.0302 61.6505 19.2998 59.5012 19.2998 55.9648C19.2998 52.6856 21.7749 50.281 25.1456 50.281C26.4489 50.281 27.4111 50.5972 27.6722 50.6753V53.623Z" fill="white" stroke="#0E0E14" stroke-linecap="round" stroke-linejoin="round"/>
<path d="M65.3077 53.0781C63.6633 53.0781 62.4438 54.3718 62.4438 55.9648C62.4438 57.5577 63.6652 58.8553 65.3077 58.8553C66.9501 58.8553 68.1734 57.5634 68.1734 55.9648C68.1734 54.3661 66.9482 53.0781 65.3077 53.0781ZM71.1096 55.9648C71.1096 59.1049 68.6841 61.6505 65.3077 61.6505C61.9313 61.6505 59.5095 59.1049 59.5095 55.9648C59.5095 52.8247 61.9313 50.281 65.3077 50.281C68.6841 50.281 71.1096 52.8285 71.1096 55.9648Z" fill="white" stroke="#0E0E14" stroke-linecap="round" stroke-linejoin="round"/>
<path d="M44.7583 52.971C44.7164 52.9576 43.5503 52.6356 42.5919 52.6356C41.4811 52.6356 40.877 53.0072 40.877 53.535C40.877 54.2038 41.6906 54.4362 42.146 54.581L42.9101 54.8249C44.7088 55.3966 45.5281 56.6294 45.5281 57.9651C45.5281 60.7241 43.1025 61.6501 40.9818 61.6501C39.5089 61.6501 38.1275 61.3796 37.9922 61.3491V58.8225C38.2361 58.8835 39.3984 59.2303 40.6083 59.2303C41.9879 59.2303 42.6205 58.8282 42.6205 58.2051C42.6205 57.6488 42.0717 57.3267 41.3839 57.1114C41.2162 57.0562 40.9646 56.9762 40.7932 56.9209C39.2498 56.4331 37.9637 55.5262 37.9637 53.7084C37.9637 51.6544 39.5013 50.2767 42.0546 50.2767C43.4036 50.2767 44.6726 50.6044 44.7545 50.6254V52.9691L44.7583 52.971Z" fill="white" stroke="#0E0E14" stroke-linecap="round" stroke-linejoin="round"/>
<path d="M16.3604 38.6779C16.3604 37.9215 15.743 37.3079 14.9847 37.3079C14.2263 37.3079 13.609 37.9215 13.609 38.6779V41.5608C13.609 42.321 14.2282 42.9365 14.9847 42.9365C15.7411 42.9365 16.3604 42.323 16.3604 41.5608V38.6779Z" fill="white" stroke="#0E0E14" stroke-linecap="round" stroke-linejoin="round"/>
<path d="M23.9154 34.8939C23.9154 34.1375 23.298 33.522 22.5397 33.522C21.7813 33.522 21.1639 34.1375 21.1639 34.8939V41.5591C21.1639 42.3193 21.7813 42.9328 22.5397 42.9328C23.298 42.9328 23.9154 42.3193 23.9154 41.5591V34.8939Z" fill="white" stroke="#0E0E14" stroke-linecap="round" stroke-linejoin="round"/>
<path d="M31.4731 29.7185C31.4731 28.9621 30.8558 28.3485 30.0974 28.3485C29.3391 28.3485 28.7217 28.9621 28.7217 29.7185V44.2987C28.7217 45.059 29.3391 45.6744 30.0974 45.6744C30.8558 45.6744 31.4731 45.0609 31.4731 44.2987V29.7185Z" fill="white" stroke="#0E0E14" stroke-linecap="round" stroke-linejoin="round"/>
<path d="M39.028 34.8939C39.028 34.1375 38.4107 33.522 37.6523 33.522C36.894 33.522 36.2766 34.1375 36.2766 34.8939V41.5591C36.2766 42.3193 36.894 42.9328 37.6523 42.9328C38.4107 42.9328 39.028 42.3193 39.028 41.5591V34.8939Z" fill="white" stroke="#0E0E14" stroke-linecap="round" stroke-linejoin="round"/>
<path d="M46.5754 38.6779C46.5754 37.9215 45.9618 37.3079 45.2073 37.3079C44.4528 37.3079 43.8316 37.9215 43.8316 38.6779V41.5608C43.8316 42.321 44.449 42.9365 45.2073 42.9365C45.9657 42.9365 46.5754 42.323 46.5754 41.5608V38.6779Z" fill="white" stroke="#0E0E14" stroke-linecap="round" stroke-linejoin="round"/>
<path d="M46.5776 38.6779C46.5776 37.9215 45.9603 37.3079 45.2019 37.3079C44.4436 37.3079 43.8262 37.9215 43.8262 38.6779V41.5608C43.8262 42.321 44.4455 42.9365 45.2019 42.9365C45.9584 42.9365 46.5776 42.323 46.5776 41.5608V38.6779Z" fill="white" stroke="#0E0E14" stroke-linecap="round" stroke-linejoin="round"/>
<path d="M54.1354 34.8939C54.1354 34.1375 53.518 33.522 52.7597 33.522C52.0013 33.522 51.384 34.1375 51.384 34.8939V41.5591C51.384 42.3193 52.0013 42.9328 52.7597 42.9328C53.518 42.9328 54.1354 42.3193 54.1354 41.5591V34.8939Z" fill="white" stroke="#0E0E14" stroke-linecap="round" stroke-linejoin="round"/>
<path d="M61.6904 29.7185C61.6904 28.9621 61.073 28.3485 60.3147 28.3485C59.5563 28.3485 58.9389 28.9621 58.9389 29.7185V44.2987C58.9389 45.059 59.5563 45.6744 60.3147 45.6744C61.073 45.6744 61.6904 45.0609 61.6904 44.2987V29.7185Z" fill="white" stroke="#0E0E14" stroke-linecap="round" stroke-linejoin="round"/>
<path d="M69.2453 34.8939C69.2453 34.1375 68.6279 33.522 67.8696 33.522C67.1112 33.522 66.4939 34.1375 66.4939 34.8939V41.5591C66.4939 42.3193 67.1112 42.9328 67.8696 42.9328C68.6279 42.9328 69.2453 42.3193 69.2453 41.5591V34.8939Z" fill="white" stroke="#0E0E14" stroke-linecap="round" stroke-linejoin="round"/>
<path d="M76.7926 38.6779C76.7926 37.9215 76.1791 37.3079 75.4245 37.3079C74.67 37.3079 74.0488 37.9215 74.0488 38.6779V41.5608C74.0488 42.321 74.6662 42.9365 75.4245 42.9365C76.1829 42.9365 76.7926 42.323 76.7926 41.5608V38.6779Z" fill="white" stroke="#0E0E14" stroke-linecap="round" stroke-linejoin="round"/>
</svg>
