<svg width="146" height="127" viewBox="0 0 146 127" fill="none" xmlns="http://www.w3.org/2000/svg">
<path d="M103.445 15.5531H27.0044C23.2442 15.5531 20.196 18.6013 20.196 22.3615V99.6559C20.196 103.416 23.2442 106.464 27.0044 106.464H103.445C107.205 106.464 110.253 103.416 110.253 99.6559V22.3615C110.253 18.6013 107.205 15.5531 103.445 15.5531Z" fill="white" stroke="black" stroke-linecap="round" stroke-linejoin="round"/>
<path d="M88.2242 30.9173H42.2237C38.4636 30.9173 35.4154 33.9655 35.4154 37.7256V84.2923C35.4154 88.0524 38.4636 91.1006 42.2237 91.1006H88.2242C91.9844 91.1006 95.0326 88.0524 95.0326 84.2923V37.7256C95.0326 33.9655 91.9844 30.9173 88.2242 30.9173Z" fill="white" stroke="black" stroke-linecap="round" stroke-linejoin="round"/>
<path d="M123.411 125.554L107.421 116.128L91.431 125.554V54.5957H123.411V125.554Z" fill="white" stroke="black" stroke-linecap="round" stroke-linejoin="round"/>
<path d="M105.538 6.51791C106.416 2.96023 111.561 3.23326 112.058 6.86397C112.464 9.82101 116.258 10.7876 118.028 8.38367C120.201 5.43294 124.85 7.65433 123.92 11.198C123.162 14.0848 126.299 16.4298 128.853 14.8875C131.99 12.9935 135.435 16.8237 133.219 19.7429C131.415 22.1203 133.414 25.4873 136.365 25.039C139.989 24.4894 141.704 29.3467 138.542 31.1956C135.964 32.7015 136.524 36.5777 139.422 37.2931C142.98 38.1717 142.707 43.3162 139.076 43.8138C136.119 44.2194 135.152 48.0136 137.556 49.7835C140.507 51.9568 138.285 56.605 134.742 55.6754C131.855 54.9177 129.51 58.054 131.053 60.6087C132.947 63.7457 129.117 67.1901 126.198 64.9745C123.821 63.1703 120.453 65.1698 120.902 68.1206C121.451 71.7439 116.594 73.4598 114.745 70.2969C113.239 67.7196 109.363 68.2792 108.648 71.1772C107.769 74.7348 102.625 74.4618 102.127 70.8311C101.721 67.8741 97.9271 66.9074 96.1573 69.3114C93.9839 72.2621 89.3358 70.0407 90.2653 66.4971C91.023 63.6103 87.8867 61.2653 85.332 62.8076C82.1949 64.7016 78.7505 60.8714 80.9661 57.9522C82.7703 55.5748 80.7708 52.2077 77.82 52.6561C74.1968 53.2057 72.4809 48.3484 75.6437 46.4995C78.2211 44.9936 77.6615 41.1174 74.7635 40.402C71.2058 39.5234 71.4788 34.3789 75.1095 33.8812C78.0666 33.4757 79.0332 29.6814 76.6292 27.9116C73.6785 25.7382 75.8999 21.0901 79.4436 22.0196C82.3304 22.7774 84.6754 19.641 83.1321 17.0864C81.2381 13.9494 85.0683 10.505 87.9874 12.7205C90.3648 14.5248 93.7319 12.5253 93.2835 9.57444C92.734 5.95122 97.5913 4.23529 99.4402 7.39818C100.946 9.97551 104.822 9.41591 105.538 6.51791Z" fill="white" stroke="black" stroke-linecap="round" stroke-linejoin="round"/>
<path d="M107.092 61.0084C119.331 61.0084 129.253 51.0867 129.253 38.8477C129.253 26.6087 119.331 16.687 107.092 16.687C94.8534 16.687 84.9317 26.6087 84.9317 38.8477C84.9317 51.0867 94.8534 61.0084 107.092 61.0084Z" fill="white" stroke="#FF6D00" stroke-linecap="round" stroke-linejoin="round"/>
<path d="M46.1757 125.555V106.464" stroke="black" stroke-linecap="round" stroke-linejoin="round"/>
<path d="M75.9834 125.555V106.464" stroke="black" stroke-linecap="round" stroke-linejoin="round"/>
<path d="M1.10544 31.8511H20.1959" stroke="black" stroke-linecap="round" stroke-linejoin="round"/>
<path d="M1.10544 61.6596H20.1959" stroke="black" stroke-linecap="round" stroke-linejoin="round"/>
<path d="M1.10544 91.4693H20.1959" stroke="black" stroke-linecap="round" stroke-linejoin="round"/>
<path d="M3.94936 34.8004C5.57826 34.8004 6.89877 33.4799 6.89877 31.851C6.89877 30.2221 5.57826 28.9016 3.94936 28.9016C2.32046 28.9016 1 30.2221 1 31.851C1 33.4799 2.32046 34.8004 3.94936 34.8004Z" fill="white" stroke="black" stroke-linecap="round" stroke-linejoin="round"/>
<path d="M3.94936 64.5731C5.57826 64.5731 6.89877 63.2527 6.89877 61.6238C6.89877 59.9949 5.57826 58.6744 3.94936 58.6744C2.32046 58.6744 1 59.9949 1 61.6238C1 63.2527 2.32046 64.5731 3.94936 64.5731Z" fill="white" stroke="black" stroke-linecap="round" stroke-linejoin="round"/>
<path d="M3.94936 94.4188C5.57826 94.4188 6.89877 93.0983 6.89877 91.4694C6.89877 89.8405 5.57826 88.52 3.94936 88.52C2.32046 88.52 1 89.8405 1 91.4694C1 93.0983 2.32046 94.4188 3.94936 94.4188Z" fill="white" stroke="black" stroke-linecap="round" stroke-linejoin="round"/>
<path d="M46.1742 125.852C47.8031 125.852 49.1236 124.531 49.1236 122.902C49.1236 121.273 47.8031 119.953 46.1742 119.953C44.5453 119.953 43.2248 121.273 43.2248 122.902C43.2248 124.531 44.5453 125.852 46.1742 125.852Z" fill="white" stroke="black" stroke-linecap="round" stroke-linejoin="round"/>
<path d="M75.9819 125.852C77.6108 125.852 78.9313 124.531 78.9313 122.902C78.9313 121.273 77.6108 119.953 75.9819 119.953C74.353 119.953 73.0325 121.273 73.0325 122.902C73.0325 124.531 74.353 125.852 75.9819 125.852Z" fill="white" stroke="black" stroke-linecap="round" stroke-linejoin="round"/>
</svg>
