<svg width="223" height="164" viewBox="0 0 223 164" fill="none" xmlns="http://www.w3.org/2000/svg">
<rect x="1" y="1" width="221.332" height="161.957" rx="10" fill="white" stroke="#0E0E14" stroke-linecap="round" stroke-linejoin="round"/>
<path d="M72.3776 34.2334C72.3776 33.1288 73.273 32.2334 74.3776 32.2334H214.803C215.908 32.2334 216.803 33.1288 216.803 34.2334V115.749H72.3776V34.2334Z" fill="white" stroke="#0E0E14" stroke-linecap="round" stroke-linejoin="round"/>
<rect x="72.3776" y="115.749" width="48.1433" height="22.5" fill="white" stroke="#0E0E14" stroke-linecap="round" stroke-linejoin="round"/>
<rect x="120.521" y="115.749" width="48.1433" height="22.5" fill="white" stroke="#0E0E14" stroke-linecap="round" stroke-linejoin="round"/>
<rect x="168.664" y="115.749" width="48.1433" height="22.5" fill="white" stroke="#0E0E14" stroke-linecap="round" stroke-linejoin="round"/>
<path d="M1 11C1 5.47715 5.47715 1 11 1H66.8487V162.957H11C5.47716 162.957 1 158.48 1 152.957V11Z" fill="white" stroke="#0E0E14" stroke-linecap="round" stroke-linejoin="round"/>
<path d="M56.7224 53.7158H25.1969" stroke="#0E0E14" stroke-linecap="round" stroke-linejoin="round"/>
<path d="M16.1128 58.7028C18.8668 58.7028 21.0994 56.4703 21.0994 53.7163C21.0994 50.9623 18.8668 48.7297 16.1128 48.7297C13.3588 48.7297 11.1263 50.9623 11.1263 53.7163C11.1263 56.4703 13.3588 58.7028 16.1128 58.7028Z" fill="white" stroke="#0E0E14" stroke-linecap="round" stroke-linejoin="round"/>
<path d="M56.7224 68.8906H25.1969" stroke="#0E0E14" stroke-linecap="round" stroke-linejoin="round"/>
<path d="M16.1128 73.8776C18.8668 73.8776 21.0994 71.6451 21.0994 68.8911C21.0994 66.1371 18.8668 63.9045 16.1128 63.9045C13.3588 63.9045 11.1263 66.1371 11.1263 68.8911C11.1263 71.6451 13.3588 73.8776 16.1128 73.8776Z" fill="white" stroke="#0E0E14" stroke-linecap="round" stroke-linejoin="round"/>
<path d="M56.7224 84.0657H25.1969" stroke="#0E0E14" stroke-linecap="round" stroke-linejoin="round"/>
<path d="M16.1128 89.0528C18.8668 89.0528 21.0994 86.8202 21.0994 84.0662C21.0994 81.3122 18.8668 79.0796 16.1128 79.0796C13.3588 79.0796 11.1263 81.3122 11.1263 84.0662C11.1263 86.8202 13.3588 89.0528 16.1128 89.0528Z" fill="white" stroke="#0E0E14" stroke-linecap="round" stroke-linejoin="round"/>
<path d="M56.7224 99.2405H25.1969" stroke="#0E0E14" stroke-linecap="round" stroke-linejoin="round"/>
<path d="M16.1128 104.228C18.8668 104.228 21.0994 101.995 21.0994 99.241C21.0994 96.487 18.8668 94.2544 16.1128 94.2544C13.3588 94.2544 11.1263 96.487 11.1263 99.241C11.1263 101.995 13.3588 104.228 16.1128 104.228Z" fill="white" stroke="#0E0E14" stroke-linecap="round" stroke-linejoin="round"/>
<path d="M56.7224 114.416H25.1969" stroke="#0E0E14" stroke-linecap="round" stroke-linejoin="round"/>
<path d="M16.1128 119.403C18.8668 119.403 21.0994 117.17 21.0994 114.416C21.0994 111.662 18.8668 109.43 16.1128 109.43C13.3588 109.43 11.1263 111.662 11.1263 114.416C11.1263 117.17 13.3588 119.403 16.1128 119.403Z" fill="white" stroke="#0E0E14" stroke-linecap="round" stroke-linejoin="round"/>
<path d="M56.7224 129.698H25.1969" stroke="#0E0E14" stroke-linecap="round" stroke-linejoin="round"/>
<path d="M16.1128 134.685C18.8668 134.685 21.0994 132.453 21.0994 129.699C21.0994 126.945 18.8668 124.712 16.1128 124.712C13.3588 124.712 11.1263 126.945 11.1263 129.699C11.1263 132.453 13.3588 134.685 16.1128 134.685Z" fill="white" stroke="#0E0E14" stroke-linecap="round" stroke-linejoin="round"/>
<path d="M1 11C1 5.47716 5.47715 1 11 1H212.332C217.855 1 222.332 5.47715 222.332 11V21.8223H1V11Z" fill="white" stroke="#0E0E14" stroke-linecap="round" stroke-linejoin="round"/>
<path d="M13.8857 14.1706C15.4096 14.1706 16.6451 12.9351 16.6451 11.4111C16.6451 9.88716 15.4096 8.65173 13.8857 8.65173C12.3617 8.65173 11.1263 9.88716 11.1263 11.4111C11.1263 12.9351 12.3617 14.1706 13.8857 14.1706Z" fill="white" stroke="#0E0E14" stroke-linecap="round" stroke-linejoin="round"/>
<path d="M22.9939 14.1706C24.5179 14.1706 25.7533 12.9351 25.7533 11.4111C25.7533 9.88716 24.5179 8.65173 22.9939 8.65173C21.47 8.65173 20.2345 9.88716 20.2345 11.4111C20.2345 12.9351 21.47 14.1706 22.9939 14.1706Z" fill="white" stroke="#0E0E14" stroke-linecap="round" stroke-linejoin="round"/>
<path d="M32.2136 14.1706C33.7376 14.1706 34.973 12.9351 34.973 11.4111C34.973 9.88716 33.7376 8.65173 32.2136 8.65173C30.6896 8.65173 29.4542 9.88716 29.4542 11.4111C29.4542 12.9351 30.6896 14.1706 32.2136 14.1706Z" fill="white" stroke="#0E0E14" stroke-linecap="round" stroke-linejoin="round"/>
<path d="M1 21.8223H66.8487V42.6446H1V21.8223Z" fill="white" stroke="#0E0E14" stroke-linecap="round" stroke-linejoin="round"/>
<path d="M165.401 99.5022H130.519L148.771 65.4888H183.652L165.401 99.5022Z" stroke="#030304" stroke-linecap="round" stroke-linejoin="round"/>
<path d="M165.401 99.5018H130.519L105.528 48.4803H140.41L165.401 99.5018Z" fill="white" stroke="#030304" stroke-linecap="round" stroke-linejoin="round"/>
<path d="M148.771 65.4888L130.519 99.5022" stroke="#030304" stroke-linecap="round" stroke-linejoin="round"/>
<rect x="125.281" y="144.731" width="7.81467" height="7.81467" rx="2" fill="white" stroke="#0E0E14" stroke-linecap="round" stroke-linejoin="round"/>
<rect x="135.549" y="144.731" width="7.81467" height="7.81467" rx="2" fill="white" stroke="#0E0E14" stroke-linecap="round" stroke-linejoin="round"/>
<rect x="145.817" y="144.731" width="7.81467" height="7.81467" rx="2" fill="white" stroke="#0E0E14" stroke-linecap="round" stroke-linejoin="round"/>
<rect x="156.085" y="144.731" width="7.81467" height="7.81467" rx="2" fill="white" stroke="#0E0E14" stroke-linecap="round" stroke-linejoin="round"/>
<path d="M16.1142 146.248C17.5648 146.248 18.7407 145.072 18.7407 143.622C18.7407 142.171 17.5648 140.995 16.1142 140.995C14.6636 140.995 13.4877 142.171 13.4877 143.622C13.4877 145.072 14.6636 146.248 16.1142 146.248Z" fill="white" stroke="#FF6D00" stroke-linecap="round" stroke-linejoin="round"/>
<path d="M16.1135 146.694C13.8118 146.694 11.8614 148.195 11.1867 150.272C10.9299 151.063 11.524 151.874 12.3556 151.874H19.87C20.7016 151.874 21.2958 151.063 21.0389 150.272C20.3643 148.195 18.4138 146.694 16.1121 146.694H16.1135Z" fill="white" stroke="#FF6D00" stroke-linecap="round" stroke-linejoin="round"/>
<path d="M29.3048 141.756V151.414H28.0546V143.473L25.719 144.558V143.404L29.3048 141.756ZM35.5791 151.537C33.3671 151.537 31.9108 149.518 31.9108 146.646C31.9108 143.761 33.3671 141.742 35.5791 141.742C37.791 141.742 39.2473 143.761 39.2473 146.646C39.2473 149.518 37.791 151.537 35.5791 151.537ZM33.1885 146.646C33.1885 148.872 34.1228 150.342 35.5791 150.342C37.0354 150.342 37.9696 148.858 37.9696 146.646C37.9696 144.407 37.0491 142.937 35.5791 142.937C34.109 142.937 33.1885 144.407 33.1885 146.646ZM44.5414 151.537C42.3295 151.537 40.8732 149.518 40.8732 146.646C40.8732 143.761 42.3295 141.742 44.5414 141.742C46.7534 141.742 48.2097 143.761 48.2097 146.646C48.2097 149.518 46.7534 151.537 44.5414 151.537ZM42.1509 146.646C42.1509 148.872 43.0851 150.342 44.5414 150.342C45.9977 150.342 46.932 148.858 46.932 146.646C46.932 144.407 46.0115 142.937 44.5414 142.937C43.0714 142.937 42.1509 144.407 42.1509 146.646ZM49.7119 146.77H52.0475V144.448H53.1603V146.77H55.4959V147.814H53.1603V150.177H52.0475V147.814H49.7119V146.77Z" fill="#FF6D00"/>
</svg>
