<svg width="25" height="25" viewBox="0 0 25 25" fill="none" xmlns="http://www.w3.org/2000/svg">
<g id="logo / 1">
<path id="Vector" d="M18.6677 9.30173C17.9803 9.30173 17.4242 9.85784 17.4242 10.5442V14.9484C17.4242 15.2782 17.5552 15.5945 17.7884 15.8277C18.0216 16.0609 18.3379 16.1919 18.6677 16.1919C18.9974 16.1919 19.3137 16.0609 19.5469 15.8277C19.7801 15.5945 19.9111 15.2782 19.9111 14.9484V10.5442C19.9111 9.85784 19.355 9.30173 18.6677 9.30173ZM6.3321 9.30173C5.64473 9.30173 5.08862 9.85784 5.08862 10.5442V14.9484C5.08862 15.2782 5.21963 15.5945 5.45283 15.8277C5.68602 16.0609 6.00231 16.1919 6.3321 16.1919C6.66188 16.1919 6.97817 16.0609 7.21136 15.8277C7.44456 15.5945 7.57557 15.2782 7.57557 14.9484V10.5442C7.5757 10.3809 7.54361 10.2192 7.48116 10.0684C7.4187 9.9175 7.32709 9.78043 7.21159 9.66502C7.09608 9.5496 6.95895 9.45811 6.80803 9.39577C6.65711 9.33343 6.49538 9.30147 6.3321 9.30173ZM14.9742 5.59853L15.7208 4.24909C15.7427 4.21067 15.7566 4.1683 15.762 4.12443C15.7673 4.08057 15.7638 4.03609 15.7518 3.99357C15.7397 3.95106 15.7194 3.91136 15.6919 3.87678C15.6644 3.8422 15.6303 3.81343 15.5915 3.79214C15.5529 3.77037 15.5104 3.7565 15.4664 3.75132C15.4223 3.74614 15.3777 3.74976 15.3351 3.76197C15.2925 3.77418 15.2528 3.79474 15.2182 3.82245C15.1836 3.85017 15.1548 3.88448 15.1336 3.92339L14.3665 5.30395C13.7949 5.07548 13.1649 4.94617 12.4999 4.94617C11.8349 4.94617 11.2049 5.07451 10.6332 5.30298L9.86612 3.92437C9.84491 3.88545 9.81617 3.85114 9.78158 3.82343C9.74699 3.79571 9.70723 3.77515 9.66462 3.76294C9.62202 3.75073 9.57741 3.74711 9.53339 3.75229C9.48937 3.75747 9.44681 3.77135 9.40821 3.79312C9.36968 3.81459 9.33576 3.84346 9.3084 3.87806C9.28104 3.91266 9.26078 3.95232 9.24877 3.99477C9.23675 4.03721 9.23323 4.08161 9.23841 4.12542C9.24358 4.16922 9.25734 4.21158 9.2789 4.25006L10.0256 5.59951C8.68098 6.36562 7.78265 7.73548 7.78265 9.30173C7.78265 9.31242 7.78265 9.32214 7.7846 9.33478C7.78265 9.34062 7.78265 9.34742 7.78265 9.35325V9.35423H17.2161V9.30173C17.2171 7.73548 16.3188 6.36659 14.9742 5.59853ZM10.3221 7.51187C10.2779 7.51155 10.2341 7.50252 10.1934 7.48529C10.1526 7.46807 10.1157 7.44299 10.0846 7.41148C10.0219 7.34785 9.98701 7.26191 9.98765 7.17256C9.9883 7.08322 10.0244 6.99779 10.088 6.93507C10.1517 6.87235 10.2376 6.83747 10.327 6.83812C10.4163 6.83876 10.5017 6.87487 10.5645 6.9385C10.6272 7.00214 10.662 7.08808 10.6614 7.17742C10.6608 7.26677 10.6246 7.3522 10.561 7.41492C10.4974 7.47764 10.4114 7.51251 10.3221 7.51187ZM14.6777 7.51187C14.5929 7.50541 14.5136 7.46718 14.4558 7.4048C14.398 7.34243 14.3659 7.26052 14.3659 7.17548C14.3659 7.09043 14.398 7.00853 14.4558 6.94615C14.5136 6.88378 14.5929 6.84554 14.6777 6.83909C14.7669 6.83909 14.8524 6.87453 14.9155 6.93761C14.9786 7.0007 15.014 7.08626 15.014 7.17548C15.014 7.26469 14.9786 7.35026 14.9155 7.41334C14.8524 7.47643 14.7669 7.51187 14.6777 7.51187ZM7.78265 16.5059C7.78265 17.134 8.29307 17.6444 8.92404 17.6444H9.49376V19.9787C9.49376 20.3085 9.62477 20.6247 9.85797 20.8579C10.0912 21.0911 10.4074 21.2221 10.7372 21.2221C11.067 21.2221 11.3833 21.0911 11.6165 20.8579C11.8497 20.6247 11.9807 20.3085 11.9807 19.9787V17.6444H13.0171V19.9787C13.0171 20.666 13.5732 21.2212 14.2586 21.2212C14.9479 21.2212 15.504 20.666 15.504 19.9787V17.6444H16.0738C16.7038 17.6444 17.2152 17.1349 17.2152 16.5059V9.61089H7.78265V16.5059Z" fill="#0E0E14"/>
</g>
</svg>
