<svg width="25" height="25" viewBox="0 0 25 25" fill="none" xmlns="http://www.w3.org/2000/svg">
<path d="M19.9513 17.1774C19.6821 17.805 19.3494 18.4034 18.9586 18.9634C18.4365 19.7091 18.0078 20.2244 17.6792 20.5112C17.1688 20.9798 16.6204 21.2209 16.0342 21.2345C15.6142 21.2345 15.1067 21.1149 14.5156 20.8719C13.9225 20.6298 13.3781 20.5112 12.8793 20.5112C12.3572 20.5112 11.7972 20.6298 11.1974 20.8719C10.5985 21.1149 10.1143 21.2423 9.74391 21.2539C9.18294 21.2782 8.62196 21.0313 8.06294 20.5112C7.70613 20.2001 7.25988 19.6653 6.72419 18.9089C6.15058 18.103 5.67905 17.1648 5.3096 16.0982C4.91391 14.9442 4.71558 13.8281 4.71558 12.747C4.71558 11.5094 4.98294 10.4409 5.51863 9.54644C5.9238 8.84398 6.50305 8.2577 7.20058 7.84408C7.88839 7.43153 8.67358 7.2094 9.47558 7.20047C9.9228 7.20047 10.509 7.33852 11.2353 7.61074C11.9615 7.88297 12.4282 8.02102 12.6314 8.02102C12.785 8.02102 13.3013 7.85866 14.1802 7.53686C15.0095 7.23838 15.7095 7.11491 16.2831 7.16352C17.8386 7.28894 19.0063 7.90144 19.7831 9.00588C18.3928 9.8488 17.7054 11.0281 17.719 12.5419C17.7307 13.7212 18.1595 14.7021 18.9995 15.4809C19.3708 15.8363 19.8041 16.1206 20.2779 16.3199C20.1749 16.6184 20.066 16.9032 19.9513 17.1774ZM16.3861 3.14727C16.3861 4.07088 16.0478 4.93422 15.376 5.73241C14.5632 6.6813 13.5813 7.23061 12.5167 7.14408C12.5028 7.02794 12.4959 6.91105 12.4963 6.79408C12.4963 5.90644 12.8813 4.95755 13.5686 4.18074C13.9109 3.78797 14.3464 3.46033 14.8743 3.19977C15.4013 2.94311 15.899 2.80116 16.3677 2.77686C16.3803 2.9013 16.3861 3.02477 16.3861 3.14727Z" fill="#828282"/>
</svg>
