<svg width="25" height="25" viewBox="0 0 25 25" fill="none" xmlns="http://www.w3.org/2000/svg">
<g id="logo / 3">
<path id="Vector" d="M13.1244 8.69328C12.7705 8.87703 12.3563 9.10161 11.9169 9.10161C11.4774 9.10161 11.1294 8.89842 10.8805 8.70009C10.7541 8.60189 10.653 8.5037 10.5762 8.43175C10.443 8.32675 10.4595 8.17995 10.514 8.18481C10.6053 8.19648 10.619 8.31703 10.6773 8.3705C10.7551 8.44342 10.8523 8.53773 10.9709 8.63203C11.2072 8.8187 11.5222 9.00148 11.9169 9.00148C12.3116 9.00148 12.7705 8.77009 13.0515 8.61259C13.2099 8.52314 13.4122 8.3637 13.5774 8.24217C13.7038 8.14981 13.699 8.038 13.803 8.04967C13.907 8.06231 13.8302 8.17314 13.6844 8.3005C13.5118 8.45042 13.3241 8.58205 13.1244 8.69328Z" fill="#828282"/>
<path id="Vector_2" d="M19.9364 18.1103C19.7983 17.9548 19.7332 17.667 19.6632 17.3607C19.5932 17.0545 19.5145 16.7249 19.2636 16.511L19.2617 16.5101C19.1708 16.4301 19.0664 16.3669 18.9535 16.3234C19.3025 15.288 19.1664 14.2564 18.8125 13.3251C18.3808 12.1807 17.6245 11.1842 17.0479 10.5027C16.4024 9.68797 15.7714 8.91505 15.7831 7.77269C15.8035 6.0295 15.9746 2.79686 12.9072 2.79297C12.7771 2.79288 12.647 2.79839 12.5174 2.8095C9.08932 3.08464 9.99932 6.70616 9.94779 7.91853C9.88557 8.80519 9.70571 9.50422 9.09516 10.3714C8.3796 11.2231 7.37043 12.6027 6.8921 14.0377C6.66654 14.7153 6.5596 15.4056 6.6578 16.0599C6.62735 16.0878 6.59784 16.1166 6.56932 16.1464C6.35932 16.371 6.20377 16.6432 6.02974 16.826C5.86835 16.9884 5.63793 17.0487 5.38418 17.1401C5.13043 17.2314 4.85238 17.3646 4.68321 17.6894L4.68224 17.6913C4.60829 17.8369 4.57218 17.9987 4.57724 18.1619C4.57724 18.3116 4.5996 18.4642 4.62196 18.6101C4.66863 18.9144 4.71627 19.2021 4.65307 19.3976C4.4528 19.9459 4.42752 20.3251 4.56849 20.6002C4.71043 20.8763 5.00016 20.9978 5.32974 21.0659C5.98696 21.203 6.87752 21.1689 7.57946 21.5413L7.63974 21.4276L7.58043 21.5423C8.33196 21.9351 9.09418 22.0741 9.70182 21.936C10.1432 21.8349 10.5 21.5724 10.6847 21.1689C11.1602 21.167 11.6813 20.9657 12.5174 20.9201C13.0842 20.8744 13.7929 21.1213 14.6067 21.0756C14.6278 21.1649 14.6602 21.2511 14.7029 21.3323C15.0179 21.9632 15.6052 22.252 16.2303 22.2034C16.8554 22.1548 17.5224 21.7853 18.061 21.1446L17.9618 21.062L18.061 21.1437C18.5733 20.5214 19.425 20.2638 19.9899 19.9235C20.2718 19.7534 20.5003 19.5395 20.5188 19.2303C20.5363 18.9212 20.3545 18.5741 19.9364 18.1103ZM12.3628 6.72755C12.3599 6.50005 12.3978 6.30464 12.4853 6.1063C12.5728 5.90797 12.6807 5.76505 12.8334 5.64936C12.986 5.53366 13.1367 5.48019 13.3136 5.47825H13.3224C13.4964 5.47825 13.6452 5.52978 13.7978 5.64061C13.9524 5.75339 14.0642 5.89436 14.1536 6.09075C14.2443 6.28426 14.2911 6.49539 14.2907 6.70908C14.2927 6.93755 14.2538 7.132 14.1672 7.33033C14.123 7.43505 14.0641 7.53294 13.9922 7.62103L13.9203 7.58894C13.8338 7.552 13.7579 7.52186 13.6899 7.49561C13.6218 7.46936 13.5693 7.45283 13.5139 7.43339C13.5538 7.38575 13.6325 7.32839 13.6607 7.25741C13.7052 7.15039 13.7289 7.03592 13.7307 6.92005L13.7327 6.9045C13.7363 6.79325 13.7198 6.68227 13.684 6.57686C13.6471 6.467 13.6004 6.38728 13.5333 6.32116C13.4663 6.25505 13.3982 6.22491 13.3165 6.22297H13.3059C13.2276 6.22366 13.1524 6.25347 13.0949 6.30658C13.0191 6.37222 12.9609 6.45577 12.9257 6.54964C12.8812 6.65697 12.8574 6.77178 12.8557 6.88797L12.8547 6.90255C12.8527 6.96766 12.8573 7.03281 12.8683 7.097C12.7106 7.02385 12.5453 6.9681 12.3754 6.93075C12.3674 6.86948 12.3629 6.80781 12.3618 6.74603V6.72755H12.3628ZM10.2784 6.77811C10.2667 6.58172 10.2871 6.41255 10.3406 6.23755C10.394 6.06255 10.467 5.93519 10.572 5.83116C10.6596 5.73473 10.7812 5.67615 10.9113 5.66783H10.9404C11.0552 5.66783 11.1592 5.70672 11.2661 5.7913C11.3886 5.89209 11.4835 6.02218 11.5422 6.1695C11.6161 6.33575 11.655 6.50297 11.6657 6.69936V6.7013C11.6714 6.77998 11.6708 6.85898 11.6638 6.93755C11.6414 6.94339 11.619 6.95116 11.5977 6.95797C11.4732 7.00075 11.374 7.04839 11.2788 7.11158C11.2886 7.04263 11.2895 6.97272 11.2817 6.90353V6.89186C11.273 6.80027 11.2508 6.71048 11.2156 6.62547C11.1871 6.54997 11.1412 6.48232 11.0814 6.42811C11.0309 6.38533 10.9842 6.36491 10.9327 6.36589L10.9161 6.36686C10.8568 6.37172 10.8092 6.39991 10.7635 6.4563C10.7145 6.52003 10.6809 6.59423 10.6653 6.67311C10.6438 6.76644 10.6376 6.86264 10.6468 6.95797L10.6478 6.96964C10.6575 7.06978 10.6779 7.15339 10.7129 7.237C10.7462 7.32274 10.802 7.39795 10.8743 7.45478C10.817 7.49853 10.779 7.53061 10.7324 7.56464L10.6254 7.64339C10.5289 7.54928 10.453 7.43603 10.4028 7.31089C10.3289 7.14314 10.2867 6.96316 10.2784 6.78005V6.77811ZM10.429 7.972C10.6108 7.83589 10.7353 7.7445 10.8199 7.68228C10.9035 7.62103 10.9375 7.59866 10.9638 7.57339C11.0999 7.44505 11.3167 7.20978 11.6443 7.097C11.7561 7.05811 11.8825 7.0338 12.0235 7.03283C12.2909 7.03186 12.6146 7.11936 13.0054 7.37116C13.2456 7.52672 13.4322 7.54033 13.8629 7.72408C14.07 7.80866 14.1925 7.92047 14.2518 8.03616C14.3111 8.15283 14.3131 8.27922 14.2635 8.41241C14.1634 8.67783 13.8464 8.9588 13.4011 9.09783H13.4002C13.1824 9.16783 12.9938 9.32436 12.7711 9.45172C12.5263 9.60419 12.2406 9.67783 11.9525 9.66269C11.8275 9.65717 11.7045 9.62986 11.5889 9.582C11.4946 9.53972 11.4063 9.48513 11.3264 9.41964C11.1699 9.29228 11.0318 9.13283 10.8306 9.01519H10.8286C10.5049 8.83047 10.3279 8.61853 10.2715 8.4338C10.2161 8.25005 10.2686 8.09255 10.429 7.972ZM10.5564 20.6284C10.5107 21.2341 10.1695 21.5637 9.64446 21.6842C9.12043 21.8038 8.40974 21.6842 7.70099 21.3138C6.91543 20.8987 5.98113 20.9395 5.38224 20.8141C5.0828 20.7519 4.88738 20.6576 4.79696 20.4826C4.70752 20.3076 4.70557 20.0023 4.89613 19.4831L4.8971 19.4812L4.89807 19.4792C4.99238 19.1885 4.92238 18.8706 4.87766 18.5712C4.83196 18.2727 4.8096 18.0014 4.91071 17.8119L4.91168 17.8099C5.04293 17.5581 5.23446 17.4677 5.47168 17.3831C5.70988 17.2976 5.99085 17.2305 6.21446 17.0078L6.21543 17.0069L6.21641 17.0059C6.42252 16.7891 6.5771 16.5169 6.75793 16.3234C6.91057 16.161 7.06321 16.0521 7.29363 16.0512H7.30238C7.34224 16.0512 7.38502 16.0541 7.43071 16.0619C7.73599 16.1076 8.00238 16.3224 8.26002 16.6695L9.00085 18.0199H9.00182C9.19821 18.4312 9.61529 18.8852 9.96821 19.347C10.3202 19.8088 10.5943 20.2726 10.5584 20.6274L10.5564 20.6284ZM10.4952 19.6464C10.3938 19.4899 10.2858 19.3378 10.1714 19.1905C10.0985 19.0945 10.0243 18.9995 9.94877 18.9056C10.0956 18.9056 10.221 18.8823 10.3221 18.8356C10.381 18.811 10.4342 18.7747 10.4787 18.7289C10.5231 18.6831 10.5578 18.6288 10.5807 18.5692C10.6682 18.3339 10.5807 18.0024 10.3007 17.6232C10.0188 17.2441 9.54432 16.8163 8.84821 16.3895C8.33585 16.0706 8.05002 15.6807 7.91585 15.2569C7.78168 14.833 7.80016 14.3751 7.90321 13.922C8.10154 13.0528 8.61196 12.2089 8.93668 11.6781C9.02418 11.6139 8.96779 11.7977 8.6071 12.4666C8.28432 13.0781 7.68057 14.4898 8.50696 15.5913C8.53656 14.7886 8.71388 13.9983 9.03002 13.2599C9.48891 12.2226 10.4456 10.422 10.5214 8.987C10.5613 9.01519 10.6964 9.10658 10.7557 9.14061C10.9327 9.24366 11.0629 9.39533 11.234 9.53241C11.4061 9.67047 11.619 9.78908 11.9428 9.80755L12.0332 9.81047C12.3667 9.81047 12.6263 9.70158 12.8431 9.57811C13.0783 9.44394 13.267 9.29422 13.4439 9.23686H13.4449C13.8211 9.11825 14.1196 8.91116 14.2897 8.66811C14.5833 9.82116 15.2629 11.4846 15.6995 12.2974C15.9318 12.7281 16.3946 13.6439 16.5939 14.7474C16.7203 14.7435 16.8593 14.762 17.009 14.7999C17.5311 13.4456 16.5667 11.9882 16.1253 11.5819C15.9464 11.4088 15.9386 11.331 16.0261 11.3349C16.5045 11.7588 17.1335 12.6095 17.362 13.571C17.466 14.0095 17.4883 14.4703 17.3775 14.9253C17.432 14.9477 17.4874 14.972 17.5438 14.9992C18.3818 15.4076 18.692 15.7624 18.5422 16.2466C18.4936 16.2446 18.445 16.2456 18.3983 16.2466H18.3847C18.5063 15.8626 18.2379 15.5787 17.5204 15.2549C16.7777 14.9282 16.1856 14.9603 16.0854 15.6234C16.0784 15.6585 16.0729 15.6938 16.0689 15.7294C16.0135 15.7488 15.9581 15.7731 15.9017 15.8032C15.5536 15.9948 15.3621 16.3409 15.2561 16.7657C15.1511 17.1906 15.12 17.703 15.0908 18.2805C15.0724 18.5702 14.9538 18.963 14.8322 19.3781C13.6179 20.2502 11.9292 20.6255 10.4952 19.6464ZM19.8557 19.7019C19.3463 20.0101 18.4402 20.2784 17.8627 20.9784C17.36 21.5763 16.7485 21.9039 16.2099 21.9467C15.6703 21.9895 15.2056 21.7659 14.9314 21.2156V21.2146L14.9304 21.2117C14.7603 20.888 14.8313 20.3776 14.9742 19.8389C15.1171 19.3003 15.3232 18.7471 15.3514 18.298C15.3806 17.7224 15.4127 17.2178 15.5099 16.8299C15.6071 16.442 15.7588 16.1795 16.0281 16.0317L16.066 16.0123C16.0961 16.511 16.3431 17.0195 16.7796 17.1294C17.257 17.2548 17.9453 16.8455 18.236 16.511C18.2943 16.5091 18.3507 16.5052 18.4061 16.5042C18.6608 16.4984 18.8738 16.513 19.0935 16.7035L19.0945 16.7045C19.2627 16.8464 19.3424 17.1157 19.4114 17.4171C19.4804 17.7185 19.5358 18.0462 19.7439 18.2805C20.1425 18.7238 20.2718 19.0232 20.2611 19.2138C20.2504 19.4063 20.1124 19.5482 19.8557 19.7019Z" fill="#828282"/>
<path id="Vector_3" d="M12.2446 7.40774C12.2592 7.4544 12.335 7.44663 12.3788 7.46899C12.4177 7.48843 12.4478 7.53218 12.4916 7.53315C12.5324 7.53413 12.5956 7.51857 12.6014 7.47774C12.6092 7.42329 12.5305 7.38926 12.4789 7.36982C12.4138 7.34454 12.3302 7.3319 12.2689 7.36593C12.2553 7.37371 12.2398 7.39218 12.2446 7.40774ZM11.7974 7.40774C11.7818 7.4544 11.706 7.44663 11.6623 7.46899C11.6243 7.48843 11.5932 7.53218 11.5505 7.53315C11.5096 7.53413 11.4455 7.51857 11.4396 7.47774C11.4328 7.42329 11.5116 7.38926 11.5621 7.36982C11.6273 7.34454 11.7109 7.3319 11.7731 7.36593C11.7877 7.37371 11.8023 7.39218 11.7974 7.40774Z" fill="#828282"/>
</g>
</svg>
