<svg width="35" height="10" viewBox="0 0 35 10" fill="none" xmlns="http://www.w3.org/2000/svg">
<g clip-path="url(#clip0_4032_60577)">
<path d="M9.16595 0.609375H0.871094V8.67614L9.16595 0.609375Z" fill="#9FCFAC"/>
<path d="M1.61328 9.41301H9.90523V1.34766L1.61328 9.41301Z" fill="#005E68"/>
<path d="M14.7234 0.620679H11.7891V9.41231H13.6011V6.12852H14.7626C16.8795 6.12852 18.0933 5.13942 18.0933 3.41699V3.36895C18.0919 1.62249 16.8635 0.620679 14.7234 0.620679ZM16.3205 3.41699C16.3205 4.32978 15.7688 4.81161 14.7234 4.81161H13.6011V2.02237H14.7234C15.8109 2.02237 16.3205 2.44626 16.3205 3.36753V3.41699ZM22.5057 4.07403H21.0277V2.0478H24.9609V0.620679H19.2287V9.41231H22.4723C24.5428 9.41231 25.7305 8.43735 25.7305 6.73752V6.68524C25.7305 5.00378 24.5863 4.07403 22.5057 4.07403ZM21.0233 5.39235H22.3605C23.4509 5.39235 23.9794 5.81625 23.9794 6.67676V6.7248C23.9794 7.58673 23.4567 8.02334 22.423 8.02334H21.0277L21.0233 5.39235ZM30.2053 4.81868L33.9484 0.609375H31.9592L28.6779 4.39619V0.620679H26.8659V9.41231H28.6779V5.52093L31.9708 9.41231H34.1299L30.2053 4.81868Z" fill="#1D1D1B"/>
</g>
<defs>
<clipPath id="clip0_4032_60577">
<rect width="33.2609" height="8.80435" fill="white" transform="translate(0.869141 0.609375)"/>
</clipPath>
</defs>
</svg>
