<svg width="56" height="56" viewBox="0 0 56 56" fill="none" xmlns="http://www.w3.org/2000/svg">
<g id="Frame 1948757026" clip-path="url(#clip0_4032_58801)">
<path id="Subtract" d="M0.5 28C0.5 12.8122 12.8122 0.5 28 0.5C43.1878 0.5 55.5 12.8122 55.5 28C55.5 43.1878 43.1878 55.5 28 55.5C12.8122 55.5 0.5 43.1878 0.5 28Z" stroke="#F5F5F5"/>
<path id="Vector" d="M37.9522 31.5355C40.1874 33.5213 40.652 34.2302 40.728 34.3512C41.6542 35.821 39.7008 36 39.7008 36H35.5841C35.5841 36 34.5819 36.011 33.7255 35.443C32.3296 34.5281 30.8678 32.7543 29.8406 33.0623C28.9783 33.3203 28.9863 34.4862 28.9863 35.483C28.9863 35.84 28.6795 36 27.9871 36C27.2946 36 27.0069 36 26.7001 36C24.4449 36 21.9979 35.2401 19.5568 32.6873C16.1035 29.0787 13.075 21.8095 13.075 21.8095C13.075 21.8095 12.8961 21.4436 13.0909 21.2206C13.3118 20.9706 13.9123 21.0026 13.9123 21.0026L17.9041 21.0016C17.9041 21.0016 18.2798 21.0726 18.5496 21.2626C18.7724 21.4186 18.8963 21.7166 18.8963 21.7166C18.8963 21.7166 19.5668 23.9323 20.4211 25.3452C22.0898 28.1028 22.8662 28.1728 23.4327 27.8759C24.2601 27.4459 23.9903 24.5142 23.9903 24.5142C23.9903 24.5142 24.0272 23.2554 23.5956 22.6944C23.2629 22.2605 22.6264 22.0295 22.3486 21.9935C22.1238 21.9645 22.4995 21.5706 22.9781 21.3456C23.6176 21.0606 24.4879 20.9876 25.9887 21.0016C27.1568 21.0126 27.4935 21.0826 27.9491 21.1876C29.327 21.5056 28.9863 22.3445 28.9863 25.2902C28.9863 26.2341 28.8564 27.5609 29.5678 28.0009C29.8746 28.1908 30.9258 28.4228 32.7963 25.3832C33.6846 23.9413 34.391 21.5496 34.391 21.5496C34.391 21.5496 34.5369 21.2866 34.7637 21.1566C34.9955 21.0236 34.9885 21.0266 35.3063 21.0266C35.624 21.0266 38.8105 21.0016 39.5099 21.0016C40.2084 21.0016 40.8639 20.9936 40.9768 21.4036C41.1386 21.9925 40.4612 24.0103 38.7445 26.2001C35.9238 29.7937 35.611 29.4577 37.9522 31.5355Z" fill="#F5F5F5"/>
</g>
<defs>
<clipPath id="clip0_4032_58801">
<rect width="56" height="56" fill="white"/>
</clipPath>
</defs>
</svg>
