<svg width="56" height="56" viewBox="0 0 56 56" fill="none" xmlns="http://www.w3.org/2000/svg">
<g id="Frame 1948757028" clip-path="url(#clip0_4032_58807)">
<path id="Subtract" d="M0.5 28C0.5 12.8122 12.8122 0.5 28 0.5C43.1878 0.5 55.5 12.8122 55.5 28C55.5 43.1878 43.1878 55.5 28 55.5C12.8122 55.5 0.5 43.1878 0.5 28Z" stroke="#F5F5F5"/>
<path id="Vector" d="M29.5813 39.4965V29.2515H33.0375L33.5513 25.2402H29.5813V22.6852C29.5813 21.5277 29.9038 20.7352 31.565 20.7352H33.67V17.159C32.6458 17.0492 31.6163 16.9962 30.5863 17.0002C27.5313 17.0002 25.4338 18.8652 25.4338 22.289V25.2327H22V29.244H25.4413V39.4965H29.5813Z" fill="#F5F5F5"/>
</g>
<defs>
<clipPath id="clip0_4032_58807">
<rect width="56" height="56" fill="white"/>
</clipPath>
</defs>
</svg>
