<svg width="56" height="56" viewBox="0 0 56 56" fill="none" xmlns="http://www.w3.org/2000/svg">
<g id="Frame 1948757029" clip-path="url(#clip0_4032_58810)">
<path id="Subtract" d="M0.5 28C0.5 12.8122 12.8122 0.5 28 0.5C43.1878 0.5 55.5 12.8122 55.5 28C55.5 43.1878 43.1878 55.5 28 55.5C12.8122 55.5 0.5 43.1878 0.5 28Z" stroke="#F5F5F5"/>
<path id="Subtract_2" d="M38.2684 17.1048L15.2106 25.6696C13.6303 26.2648 13.6582 27.1076 14.9396 27.4993L20.8425 29.2733L34.5357 20.9677C35.1714 20.5607 35.7613 20.7911 35.2791 21.2L24.1986 30.8438L23.7741 36.7053C24.3919 36.7053 24.6609 36.4461 24.9798 36.1389L27.8635 33.4625L33.8422 37.7075C34.9323 38.3027 35.7115 37.9955 36.0025 36.7322L39.9285 18.9134L39.9265 18.9153C40.2733 17.3563 39.3386 16.7324 38.2684 17.1048Z" fill="#F5F5F5"/>
</g>
<defs>
<clipPath id="clip0_4032_58810">
<rect width="56" height="56" fill="white"/>
</clipPath>
</defs>
</svg>
