<svg width="56" height="56" viewBox="0 0 56 56" fill="none" xmlns="http://www.w3.org/2000/svg">
<g id="Frame 1948757027" clip-path="url(#clip0_4032_58804)">
<path id="Subtract" d="M0.5 28C0.5 12.8122 12.8122 0.5 28 0.5C43.1878 0.5 55.5 12.8122 55.5 28C55.5 43.1878 43.1878 55.5 28 55.5C12.8122 55.5 0.5 43.1878 0.5 28Z" stroke="white"/>
<path id="Vector" d="M39.4984 20.7325C39.2224 19.6575 38.4088 18.81 37.3768 18.5225C35.5048 18 28 18 28 18C28 18 20.4952 18 18.6232 18.5225C17.5912 18.81 16.7776 19.6575 16.5016 20.7325C16 22.6825 16 28 16 28C16 28 16 33.3175 16.5016 35.2675C16.7776 36.3425 17.5912 37.19 18.6232 37.4775C20.4952 38 28 38 28 38C28 38 35.5048 38 37.3768 37.4775C38.41 37.19 39.2224 36.3425 39.4984 35.2675C40 33.3175 40 28 40 28C40 28 40 22.6825 39.4984 20.7325ZM25.6 31.2475V24.7525C25.6 24.2713 26.1004 23.9713 26.5 24.2113L31.9 27.4588C32.2996 27.6988 32.2996 28.3012 31.9 28.5412L26.5 31.7888C26.1004 32.03 25.6 31.7287 25.6 31.2475Z" fill="white"/>
</g>
<defs>
<clipPath id="clip0_4032_58804">
<rect width="56" height="56" fill="white"/>
</clipPath>
</defs>
</svg>
