<svg width="51" height="51" viewBox="0 0 51 51" fill="none" xmlns="http://www.w3.org/2000/svg">
<g id="Frame 2087325787">
<path id="Subtract" d="M18.5375 20.5599L18.5375 20.56L18.5438 20.555C19.1401 20.0816 19.814 19.8472 20.594 19.8472C21.374 19.8472 22.0479 20.0816 22.6442 20.555L22.6442 20.555L22.6505 20.5599C23.2556 21.0299 23.7453 21.7041 24.1007 22.6225C24.4569 23.5428 24.6433 24.6152 24.6433 25.8524C24.6433 27.0896 24.4569 28.1621 24.1007 29.0823C23.7453 30.0007 23.2556 30.6749 22.6505 31.1449C22.0543 31.6079 21.3782 31.8387 20.594 31.8387C19.8098 31.8387 19.1337 31.6079 18.5375 31.1449C17.9324 30.6749 17.4427 30.0007 17.0873 29.0823C16.7311 28.1621 16.5447 27.0896 16.5447 25.8524C16.5447 24.6152 16.7311 23.5428 17.0873 22.6225C17.4427 21.7041 17.9324 21.0299 18.5375 20.5599Z" stroke="white" stroke-width="1.5" stroke-linecap="round" stroke-linejoin="round"/>
<path id="Subtract_2" d="M28.768 20.5599L28.768 20.56L28.7743 20.555C29.3706 20.0816 30.0445 19.8472 30.8245 19.8472C31.6045 19.8472 32.2783 20.0816 32.8747 20.555L32.8746 20.555L32.881 20.5599C33.4861 21.0299 33.9757 21.7041 34.3312 22.6225C34.6873 23.5428 34.8738 24.6152 34.8738 25.8524C34.8738 27.0896 34.6873 28.1621 34.3312 29.0823C33.9757 30.0007 33.4861 30.6749 32.881 31.1449C32.2848 31.6079 31.6087 31.8387 30.8245 31.8387C30.0403 31.8387 29.3642 31.6079 28.768 31.1449C28.1629 30.6749 27.6732 30.0007 27.3178 29.0823C26.9616 28.1621 26.7751 27.0896 26.7751 25.8524C26.7751 24.6152 26.9616 23.5428 27.3178 22.6225C27.6732 21.7041 28.1629 21.0299 28.768 20.5599Z" stroke="white" stroke-width="1.5" stroke-linecap="round" stroke-linejoin="round"/>
<path id="+" d="M45.7092 25.0953C46.1063 25.0953 46.4282 25.4172 46.4282 25.8143C46.4282 26.2113 46.1063 26.5332 45.7092 26.5332H38.1816C37.7845 26.5332 37.4626 26.2113 37.4626 25.8143C37.4626 25.4172 37.7845 25.0953 38.1816 25.0953H45.7092ZM41.9454 29.7876C41.4691 29.7876 41.0829 29.4014 41.0829 28.9251V22.7602C41.0829 22.2839 41.4691 21.8977 41.9454 21.8977C42.4218 21.8977 42.8079 22.2839 42.8079 22.7602V28.9251C42.8079 29.4014 42.4218 29.7876 41.9454 29.7876Z" fill="white"/>
<path id="Path" d="M7.15796 23.0903C7.15796 21.3331 8.80759 19.9075 10.8408 19.9075C12.874 19.9075 14.5236 21.3331 14.5236 23.0903C14.5236 27.0683 7.16047 27.0683 7.16047 31.7786H14.5236" stroke="white" stroke-width="1.5" stroke-linecap="round" stroke-linejoin="round"/>
<circle id="Ellipse 5130" cx="25.5781" cy="25.8428" r="24.25" stroke="white" stroke-width="1.5" stroke-linecap="round" stroke-linejoin="round"/>
</g>
</svg>
