<svg width="51" height="51" viewBox="0 0 51 51" fill="none" xmlns="http://www.w3.org/2000/svg">
<g id="Frame 2087325786">
<path id="Vector" d="M16.0311 19.3756L6.24376 9C6.24376 9 4.38268 10.1303 3.97391 11.9641C3.52659 13.971 5.28585 15.8706 7.26347 17.3151C8.15859 17.9689 7.66423 19.8291 6.55634 19.7934L3.15702 19.6836C3.15702 19.6836 2.57621 22.0293 3.6487 23.4447C4.49894 24.5667 6.46105 24.8103 8.2331 24.7687C9.23651 24.7451 9.90775 26.1006 9.18728 26.7994L6.61547 29.2938C6.61547 29.2938 7.29432 30.6375 8.20634 31.2508C10.2501 32.6251 13.3732 29.2709 14.5008 27.9273C14.7641 27.6136 15.1846 27.4716 15.5796 27.5798L17.7381 28.1712C18.1726 28.2902 18.4739 28.6851 18.4739 29.1357V31.6156C18.4739 32.128 18.0853 32.5579 17.5869 32.6771C16.7596 32.8751 15.624 33.291 15.4263 34.1037C15.1467 35.2535 16.4871 36.7808 16.4871 36.7808L14.3826 38.7202C14.3826 38.7202 13.0436 37.8601 11.937 38.3486C10.8883 38.8115 10.6218 40.8037 10.7979 41.9365L12.7106 41.0115L14.3826 41.5744L19.1767 38.4858C19.6427 38.1856 19.7711 37.5602 19.5886 37.0367C19.3502 36.3527 19.2409 35.445 20.0218 34.9224C20.8251 34.3848 22.4779 34.9224 22.4779 34.9224L22.9612 36.3437C23.0555 36.6211 23.0234 36.9258 22.8735 37.1775L20.8176 40.6281C20.2716 41.5446 20.6971 42.7379 21.7443 42.9414C23.2949 43.2427 24.4546 42.2111 24.871 41.7674C24.9602 41.6724 25.1193 41.6709 25.2099 41.7646C25.6374 42.2067 26.831 43.2434 28.3849 42.9414C29.4648 42.7316 29.9205 41.499 29.3574 40.5539L27.3458 37.1775C27.1959 36.9258 27.1638 36.6211 27.2581 36.3437L27.7414 34.9224C27.7414 34.9224 29.3942 34.3848 30.1975 34.9224C31.5674 35.8393 30.1975 37.9414 30.1975 37.9414L35.8367 41.5744L37.5087 41.0115C37.5087 41.0115 39.5304 42.8971 39.6868 41.8914C39.863 40.7586 39.331 38.8115 38.2823 38.3486C37.1757 37.8601 35.8367 38.7202 35.8367 38.7202L34.4499 37.4423C34.0507 37.0744 34.0195 36.4533 34.2999 35.9885C34.6258 35.4482 34.9432 34.7215 34.793 34.1037C34.5953 33.291 33.4597 32.8751 32.6324 32.6771C32.134 32.5579 31.7454 32.128 31.7454 31.6156V29.1357C31.7454 28.6851 32.0467 28.2902 32.4812 28.1712L34.6397 27.5798C35.0347 27.4716 35.4552 27.6136 35.7185 27.9273C36.8461 29.2709 39.9692 32.6251 42.013 31.2508C42.925 30.6375 43.6038 29.2938 43.6038 29.2938L41.032 26.7994C40.3116 26.1006 40.9828 24.7451 41.9862 24.7687C43.7583 24.8103 45.7204 24.5667 46.5706 23.4447C47.6431 22.0293 47.0623 19.6836 47.0623 19.6836L43.663 19.7934C42.5551 19.8291 42.0607 17.9689 42.9558 17.3151C44.9334 15.8706 46.6927 13.971 46.2454 11.9641C45.8366 10.1303 43.9755 9 43.9755 9L34.1882 19.3756C34.1882 19.3756 35.709 21.1343 35.8367 22.1088C36.069 23.8832 31.6919 24.7269 31.4532 23.4447C31.294 22.5898 31.7454 21.5243 31.7454 21.5243H29.7868C29.2659 21.5243 28.8342 21.1245 28.8361 20.6036C28.8391 19.7266 28.9271 18.4165 29.3658 17.5583C29.9746 16.3674 30.9367 15.4261 30.9367 15.4261L33.057 16.4597V15.2545H35.2939V14.5441C35.2939 13.9032 34.7743 13.3836 34.1334 13.3836H33.057V12.5184C33.057 11.8774 32.5374 11.3578 31.8965 11.3578H27.1115L28.3221 13.3836C28.3221 13.3836 26.8806 15.1932 26.242 16.4597L25.5533 19.6934C25.4398 20.2267 24.6761 20.219 24.5733 19.6836L23.9542 16.4597C23.3156 15.1932 21.8972 13.3836 21.8972 13.3836L23.1078 11.3578H18.3228C17.6819 11.3578 17.1623 11.8774 17.1623 12.5184V13.3836H16.0859C15.445 13.3836 14.9254 13.9032 14.9254 14.5441V15.2545H17.1623V16.4597L19.2826 15.4261C19.2826 15.4261 20.2447 16.3674 20.8535 17.5583C21.2922 18.4165 21.3802 19.7266 21.3832 20.6036C21.3851 21.1245 20.9534 21.5243 20.4325 21.5243H18.4739C18.4739 21.5243 18.9253 22.5898 18.7661 23.4447C18.5274 24.7269 14.1503 23.8832 14.3826 22.1088C14.5103 21.1343 16.0311 19.3756 16.0311 19.3756Z" stroke="white" stroke-width="1.5" stroke-linecap="round" stroke-linejoin="round"/>
</g>
</svg>
