<svg width="923" height="503" viewBox="0 0 923 503" fill="none" xmlns="http://www.w3.org/2000/svg">
<path fill-rule="evenodd" clip-rule="evenodd" d="M26.5341 0H24.8757V1.79245H26.5341V0ZM1.65841 0.00041768H2.92934e-05V1.79287H1.65841V0.00041768ZM49.7514 8.07926e-05H51.4097V1.79253H49.7514V8.07926e-05ZM76.2852 0.000365466H74.6269V1.79281H76.2852V0.000365466ZM99.5025 0.000365466H101.161V1.79281H99.5025V0.000365466ZM126.037 0.000365466H124.378V1.79281H126.037V0.000365466ZM149.254 0.000365466H150.912V1.79281H149.254V0.000365466ZM175.788 0.000365466H174.129V1.79281H175.788V0.000365466ZM199.005 0.000365466H200.663V1.79281H199.005V0.000365466ZM225.539 0.000365466H223.881V1.79281H225.539V0.000365466ZM248.756 0.000365466H250.415V1.79281H248.756V0.000365466ZM275.29 0.000365466H273.632V1.79281H275.29V0.000365466ZM298.508 0.000365466H300.166V1.79281H298.508V0.000365466ZM325.041 0.000365466H323.383V1.79281H325.041V0.000365466ZM348.259 0.000365466H349.917V1.79281H348.259V0.000365466ZM374.793 0.000365466H373.134V1.79281H374.793V0.000365466ZM398.01 0.000365466H399.668V1.79281H398.01V0.000365466ZM424.544 0.000365466H422.886V1.79281H424.544V0.000365466ZM447.761 0.000365466H449.42V1.79281H447.761V0.000365466ZM474.295 0.000365466H472.637V1.79281H474.295V0.000365466ZM497.513 0.000365466H499.171V1.79281H497.513V0.000365466ZM524.047 0.000365466H522.388V1.79281H524.047V0.000365466ZM547.264 0.000365466H548.922V1.79281H547.264V0.000365466ZM573.798 0.000365466H572.14V1.79281H573.798V0.000365466ZM597.015 0.000365466H598.674V1.79281H597.015V0.000365466ZM623.549 0.000365466H621.891V1.79281H623.549V0.000365466ZM646.767 0.000365466H648.425V1.79281H646.767V0.000365466ZM673.3 0.000365466H671.642V1.79281H673.3V0.000365466ZM696.518 0.000365466H698.176V1.79281H696.518V0.000365466ZM723.052 0.000365466H721.393V1.79281H723.052V0.000365466ZM746.269 0.000365466H747.927V1.79281H746.269V0.000365466ZM772.803 0.000365466H771.145V1.79281H772.803V0.000365466ZM796.02 0.000365466H797.679V1.79281H796.02V0.000365466ZM822.554 0.000365466H820.896V1.79281H822.554V0.000365466ZM845.772 0.000365466H847.43V1.79281H845.772V0.000365466ZM872.306 0.000365466H870.647V1.79281H872.306V0.000365466ZM895.523 0.000365466H897.181V1.79281H895.523V0.000365466ZM922.057 0.000365466H920.399V1.79281H922.057V0.000365466ZM1.65851 27.7946H0.00013169V29.587H1.65851V27.7946ZM26.5342 27.7946H24.8758V29.587H26.5342V27.7946ZM49.7515 27.7946H51.4098V29.587H49.7515V27.7946ZM76.2854 27.7946H74.6271V29.587H76.2854V27.7946ZM99.5026 27.7946H101.161V29.587H99.5026V27.7946ZM126.037 27.7946H124.378V29.587H126.037V27.7946ZM149.254 27.7946H150.912V29.587H149.254V27.7946ZM175.788 27.7946H174.13V29.587H175.788V27.7946ZM199.005 27.7946H200.664V29.587H199.005V27.7946ZM225.539 27.7946H223.881V29.587H225.539V27.7946ZM248.756 27.7946H250.415V29.587H248.756V27.7946ZM275.29 27.7946H273.632V29.587H275.29V27.7946ZM298.508 27.7946H300.166V29.587H298.508V27.7946ZM325.042 27.7946H323.383V29.587H325.042V27.7946ZM348.259 27.7946H349.917V29.587H348.259V27.7946ZM374.793 27.7946H373.135V29.587H374.793V27.7946ZM398.01 27.7946H399.668V29.587H398.01V27.7946ZM424.544 27.7946H422.886V29.587H424.544V27.7946ZM447.761 27.7946H449.42V29.587H447.761V27.7946ZM474.295 27.7946H472.637V29.587H474.295V27.7946ZM497.513 27.7946H499.171V29.587H497.513V27.7946ZM524.047 27.7946H522.388V29.587H524.047V27.7946ZM547.264 27.7946H548.922V29.587H547.264V27.7946ZM573.798 27.7946H572.14V29.587H573.798V27.7946ZM597.015 27.7946H598.674V29.587H597.015V27.7946ZM623.549 27.7946H621.891V29.587H623.549V27.7946ZM646.767 27.7946H648.425V29.587H646.767V27.7946ZM673.301 27.7946H671.642V29.587H673.301V27.7946ZM696.518 27.7946H698.176V29.587H696.518V27.7946ZM723.052 27.7946H721.394V29.587H723.052V27.7946ZM746.269 27.7946H747.928V29.587H746.269V27.7946ZM772.803 27.7946H771.145V29.587H772.803V27.7946ZM796.02 27.7946H797.679V29.587H796.02V27.7946ZM822.555 27.7946H820.896V29.587H822.555V27.7946ZM845.772 27.7946H847.43V29.587H845.772V27.7946ZM872.306 27.7946H870.648V29.587H872.306V27.7946ZM895.523 27.7946H897.181V29.587H895.523V27.7946ZM922.057 27.7946H920.399V29.587H922.057V27.7946ZM0.000163518 55.5887H1.65854V57.3811H0.000163518V55.5887ZM26.5342 55.5887H24.8758V57.3811H26.5342V55.5887ZM49.7515 55.5887H51.4098V57.3811H49.7515V55.5887ZM76.2854 55.5887H74.6271V57.3811H76.2854V55.5887ZM99.5026 55.5887H101.161V57.3811H99.5026V55.5887ZM126.037 55.5887H124.378V57.3811H126.037V55.5887ZM149.254 55.5887H150.912V57.3811H149.254V55.5887ZM175.788 55.5887H174.13V57.3811H175.788V55.5887ZM199.005 55.5887H200.664V57.3811H199.005V55.5887ZM225.539 55.5887H223.881V57.3811H225.539V55.5887ZM248.756 55.5887H250.415V57.3811H248.756V55.5887ZM275.29 55.5887H273.632V57.3811H275.29V55.5887ZM298.508 55.5887H300.166V57.3811H298.508V55.5887ZM325.042 55.5887H323.383V57.3811H325.042V55.5887ZM348.259 55.5887H349.917V57.3811H348.259V55.5887ZM374.793 55.5887H373.135V57.3811H374.793V55.5887ZM398.01 55.5887H399.668V57.3811H398.01V55.5887ZM424.544 55.5887H422.886V57.3811H424.544V55.5887ZM447.761 55.5887H449.42V57.3811H447.761V55.5887ZM474.295 55.5887H472.637V57.3811H474.295V55.5887ZM497.513 55.5887H499.171V57.3811H497.513V55.5887ZM524.047 55.5887H522.388V57.3811H524.047V55.5887ZM547.264 55.5887H548.922V57.3811H547.264V55.5887ZM573.798 55.5887H572.14V57.3811H573.798V55.5887ZM597.015 55.5887H598.674V57.3811H597.015V55.5887ZM623.549 55.5887H621.891V57.3811H623.549V55.5887ZM646.767 55.5887H648.425V57.3811H646.767V55.5887ZM673.301 55.5887H671.642V57.3811H673.301V55.5887ZM696.518 55.5887H698.176V57.3811H696.518V55.5887ZM723.052 55.5887H721.394V57.3811H723.052V55.5887ZM746.269 55.5887H747.928V57.3811H746.269V55.5887ZM772.803 55.5887H771.145V57.3811H772.803V55.5887ZM796.02 55.5887H797.679V57.3811H796.02V55.5887ZM822.555 55.5887H820.896V57.3811H822.555V55.5887ZM845.772 55.5887H847.43V57.3811H845.772V55.5887ZM872.306 55.5887H870.648V57.3811H872.306V55.5887ZM895.523 55.5887H897.181V57.3811H895.523V55.5887ZM922.057 55.5887H920.399V57.3811H922.057V55.5887ZM24.8757 83.3826H26.5341V85.175H24.8757V83.3826ZM0 83.3826H1.65837V85.1751H0V83.3826ZM51.4096 83.3826H49.7513V85.175H51.4096V83.3826ZM74.627 83.3826H76.2853V85.175H74.627V83.3826ZM101.161 83.3826H99.5025V85.175H101.161V83.3826ZM124.378 83.3826H126.037V85.175H124.378V83.3826ZM150.912 83.3826H149.254V85.175H150.912V83.3826ZM174.129 83.3826H175.788V85.175H174.129V83.3826ZM200.663 83.3826H199.005V85.175H200.663V83.3826ZM223.881 83.3826H225.539V85.175H223.881V83.3826ZM250.415 83.3826H248.756V85.175H250.415V83.3826ZM273.632 83.3826H275.29V85.175H273.632V83.3826ZM300.166 83.3826H298.507V85.175H300.166V83.3826ZM323.383 83.3826H325.042V85.175H323.383V83.3826ZM349.917 83.3826H348.259V85.175H349.917V83.3826ZM373.134 83.3826H374.793V85.175H373.134V83.3826ZM399.668 83.3826H398.01V85.175H399.668V83.3826ZM422.886 83.3826H424.544V85.175H422.886V83.3826ZM449.42 83.3826H447.761V85.175H449.42V83.3826ZM472.637 83.3826H474.295V85.175H472.637V83.3826ZM499.171 83.3826H497.513V85.175H499.171V83.3826ZM522.388 83.3826H524.047V85.175H522.388V83.3826ZM548.922 83.3826H547.264V85.175H548.922V83.3826ZM572.14 83.3826H573.798V85.175H572.14V83.3826ZM598.674 83.3826H597.015V85.175H598.674V83.3826ZM621.891 83.3826H623.549V85.175H621.891V83.3826ZM648.425 83.3826H646.767V85.175H648.425V83.3826ZM671.642 83.3826H673.3V85.175H671.642V83.3826ZM698.176 83.3826H696.518V85.175H698.176V83.3826ZM721.393 83.3826H723.052V85.175H721.393V83.3826ZM747.927 83.3826H746.269V85.175H747.927V83.3826ZM771.145 83.3826H772.803V85.175H771.145V83.3826ZM797.678 83.3826H796.02V85.175H797.678V83.3826ZM820.896 83.3826H822.554V85.175H820.896V83.3826ZM847.43 83.3826H845.772V85.175H847.43V83.3826ZM870.647 83.3826H872.306V85.175H870.647V83.3826ZM897.181 83.3826H895.523V85.175H897.181V83.3826ZM920.399 83.3826H922.057V85.175H920.399V83.3826ZM1.65839 111.177H1.18938e-05V112.969H1.65839V111.177ZM24.8757 111.177H26.5341V112.969H24.8757V111.177ZM51.4096 111.177H49.7513V112.969H51.4096V111.177ZM74.627 111.177H76.2853V112.969H74.627V111.177ZM101.161 111.177H99.5025V112.969H101.161V111.177ZM124.378 111.177H126.037V112.969H124.378V111.177ZM150.912 111.177H149.254V112.969H150.912V111.177ZM174.129 111.177H175.788V112.969H174.129V111.177ZM200.663 111.177H199.005V112.969H200.663V111.177ZM223.881 111.177H225.539V112.969H223.881V111.177ZM250.415 111.177H248.756V112.969H250.415V111.177ZM273.632 111.177H275.29V112.969H273.632V111.177ZM300.166 111.177H298.507V112.969H300.166V111.177ZM323.383 111.177H325.042V112.969H323.383V111.177ZM349.917 111.177H348.259V112.969H349.917V111.177ZM373.134 111.177H374.793V112.969H373.134V111.177ZM399.668 111.177H398.01V112.969H399.668V111.177ZM422.886 111.177H424.544V112.969H422.886V111.177ZM449.42 111.177H447.761V112.969H449.42V111.177ZM472.637 111.177H474.295V112.969H472.637V111.177ZM499.171 111.177H497.513V112.969H499.171V111.177ZM522.388 111.177H524.047V112.969H522.388V111.177ZM548.922 111.177H547.264V112.969H548.922V111.177ZM572.14 111.177H573.798V112.969H572.14V111.177ZM598.674 111.177H597.015V112.969H598.674V111.177ZM621.891 111.177H623.549V112.969H621.891V111.177ZM648.425 111.177H646.767V112.969H648.425V111.177ZM671.642 111.177H673.3V112.969H671.642V111.177ZM698.176 111.177H696.518V112.969H698.176V111.177ZM721.393 111.177H723.052V112.969H721.393V111.177ZM747.927 111.177H746.269V112.969H747.927V111.177ZM771.145 111.177H772.803V112.969H771.145V111.177ZM797.678 111.177H796.02V112.969H797.678V111.177ZM820.896 111.177H822.554V112.969H820.896V111.177ZM847.43 111.177H845.772V112.969H847.43V111.177ZM870.647 111.177H872.306V112.969H870.647V111.177ZM897.181 111.177H895.523V112.969H897.181V111.177ZM920.399 111.177H922.057V112.969H920.399V111.177ZM1.65839 138.971H1.18938e-05V140.763H1.65839V138.971ZM24.8757 138.971H26.5341V140.763H24.8757V138.971ZM51.4096 138.971H49.7513V140.763H51.4096V138.971ZM74.627 138.971H76.2853V140.763H74.627V138.971ZM101.161 138.971H99.5025V140.763H101.161V138.971ZM124.378 138.971H126.037V140.763H124.378V138.971ZM150.912 138.971H149.254V140.763H150.912V138.971ZM174.129 138.971H175.788V140.763H174.129V138.971ZM200.663 138.971H199.005V140.763H200.663V138.971ZM223.881 138.971H225.539V140.763H223.881V138.971ZM250.415 138.971H248.756V140.763H250.415V138.971ZM273.632 138.971H275.29V140.763H273.632V138.971ZM300.166 138.971H298.507V140.763H300.166V138.971ZM323.383 138.971H325.042V140.763H323.383V138.971ZM349.917 138.971H348.259V140.763H349.917V138.971ZM373.134 138.971H374.793V140.763H373.134V138.971ZM399.668 138.971H398.01V140.763H399.668V138.971ZM422.886 138.971H424.544V140.763H422.886V138.971ZM449.42 138.971H447.761V140.763H449.42V138.971ZM472.637 138.971H474.295V140.763H472.637V138.971ZM499.171 138.971H497.513V140.763H499.171V138.971ZM522.388 138.971H524.047V140.763H522.388V138.971ZM548.922 138.971H547.264V140.763H548.922V138.971ZM572.14 138.971H573.798V140.763H572.14V138.971ZM598.674 138.971H597.015V140.763H598.674V138.971ZM621.891 138.971H623.549V140.763H621.891V138.971ZM648.425 138.971H646.767V140.763H648.425V138.971ZM671.642 138.971H673.3V140.763H671.642V138.971ZM698.176 138.971H696.518V140.763H698.176V138.971ZM721.393 138.971H723.052V140.763H721.393V138.971ZM747.927 138.971H746.269V140.763H747.927V138.971ZM771.145 138.971H772.803V140.763H771.145V138.971ZM797.678 138.971H796.02V140.763H797.678V138.971ZM820.896 138.971H822.554V140.763H820.896V138.971ZM847.43 138.971H845.772V140.763H847.43V138.971ZM870.647 138.971H872.306V140.763H870.647V138.971ZM897.181 138.971H895.523V140.763H897.181V138.971ZM920.399 138.971H922.057V140.763H920.399V138.971ZM1.65839 166.765H1.18938e-05V168.557H1.65839V166.765ZM24.8757 166.765H26.5341V168.557H24.8757V166.765ZM51.4096 166.765H49.7513V168.557H51.4096V166.765ZM74.627 166.765H76.2853V168.557H74.627V166.765ZM101.161 166.765H99.5025V168.557H101.161V166.765ZM124.378 166.765H126.037V168.557H124.378V166.765ZM150.912 166.765H149.254V168.557H150.912V166.765ZM174.129 166.765H175.788V168.557H174.129V166.765ZM200.663 166.765H199.005V168.557H200.663V166.765ZM223.881 166.765H225.539V168.557H223.881V166.765ZM250.415 166.765H248.756V168.557H250.415V166.765ZM273.632 166.765H275.29V168.557H273.632V166.765ZM300.166 166.765H298.507V168.557H300.166V166.765ZM323.383 166.765H325.042V168.557H323.383V166.765ZM349.917 166.765H348.259V168.557H349.917V166.765ZM373.134 166.765H374.793V168.557H373.134V166.765ZM399.668 166.765H398.01V168.557H399.668V166.765ZM422.886 166.765H424.544V168.557H422.886V166.765ZM449.42 166.765H447.761V168.557H449.42V166.765ZM472.637 166.765H474.295V168.557H472.637V166.765ZM499.171 166.765H497.513V168.557H499.171V166.765ZM522.388 166.765H524.047V168.557H522.388V166.765ZM548.922 166.765H547.264V168.557H548.922V166.765ZM572.14 166.765H573.798V168.557H572.14V166.765ZM598.674 166.765H597.015V168.557H598.674V166.765ZM621.891 166.765H623.549V168.557H621.891V166.765ZM648.425 166.765H646.767V168.557H648.425V166.765ZM671.642 166.765H673.3V168.557H671.642V166.765ZM698.176 166.765H696.518V168.557H698.176V166.765ZM721.393 166.765H723.052V168.557H721.393V166.765ZM747.927 166.765H746.269V168.557H747.927V166.765ZM771.145 166.765H772.803V168.557H771.145V166.765ZM797.678 166.765H796.02V168.557H797.678V166.765ZM820.896 166.765H822.554V168.557H820.896V166.765ZM847.43 166.765H845.772V168.557H847.43V166.765ZM870.647 166.765H872.306V168.557H870.647V166.765ZM897.181 166.765H895.523V168.557H897.181V166.765ZM920.399 166.765H922.057V168.557H920.399V166.765ZM26.5341 194.558H24.8758V196.351H26.5341V194.558ZM1.65851 194.559H0.00013169V196.351H1.65851V194.559ZM49.7515 194.558H51.4098V196.351H49.7515V194.558ZM76.2854 194.558H74.6271V196.351H76.2854V194.558ZM99.5026 194.558H101.161V196.351H99.5026V194.558ZM126.037 194.558H124.378V196.351H126.037V194.558ZM149.254 194.558H150.912V196.351H149.254V194.558ZM175.788 194.558H174.129V196.351H175.788V194.558ZM199.005 194.558H200.663V196.351H199.005V194.558ZM225.539 194.558H223.881V196.351H225.539V194.558ZM248.756 194.558H250.415V196.351H248.756V194.558ZM275.29 194.558H273.632V196.351H275.29V194.558ZM298.508 194.558H300.166V196.351H298.508V194.558ZM325.042 194.558H323.383V196.351H325.042V194.558ZM348.259 194.558H349.917V196.351H348.259V194.558ZM374.793 194.558H373.134V196.351H374.793V194.558ZM398.01 194.558H399.668V196.351H398.01V194.558ZM424.544 194.558H422.886V196.351H424.544V194.558ZM447.761 194.558H449.42V196.351H447.761V194.558ZM474.295 194.558H472.637V196.351H474.295V194.558ZM497.513 194.558H499.171V196.351H497.513V194.558ZM524.047 194.558H522.388V196.351H524.047V194.558ZM547.264 194.558H548.922V196.351H547.264V194.558ZM573.798 194.558H572.14V196.351H573.798V194.558ZM597.015 194.558H598.674V196.351H597.015V194.558ZM623.549 194.558H621.891V196.351H623.549V194.558ZM646.767 194.558H648.425V196.351H646.767V194.558ZM673.301 194.558H671.642V196.351H673.301V194.558ZM696.518 194.558H698.176V196.351H696.518V194.558ZM723.052 194.558H721.393V196.351H723.052V194.558ZM746.269 194.558H747.928V196.351H746.269V194.558ZM772.803 194.558H771.145V196.351H772.803V194.558ZM796.02 194.558H797.679V196.351H796.02V194.558ZM822.555 194.558H820.896V196.351H822.555V194.558ZM845.772 194.558H847.43V196.351H845.772V194.558ZM872.306 194.558H870.647V196.351H872.306V194.558ZM895.523 194.558H897.181V196.351H895.523V194.558ZM922.057 194.558H920.399V196.351H922.057V194.558ZM0.000163518 222.353H1.65854V224.145H0.000163518V222.353ZM26.5341 222.353H24.8758V224.145H26.5341V222.353ZM49.7515 222.353H51.4098V224.145H49.7515V222.353ZM76.2854 222.353H74.6271V224.145H76.2854V222.353ZM99.5026 222.353H101.161V224.145H99.5026V222.353ZM126.037 222.353H124.378V224.145H126.037V222.353ZM149.254 222.353H150.912V224.145H149.254V222.353ZM175.788 222.353H174.129V224.145H175.788V222.353ZM199.005 222.353H200.663V224.145H199.005V222.353ZM225.539 222.353H223.881V224.145H225.539V222.353ZM248.756 222.353H250.415V224.145H248.756V222.353ZM275.29 222.353H273.632V224.145H275.29V222.353ZM298.508 222.353H300.166V224.145H298.508V222.353ZM325.042 222.353H323.383V224.145H325.042V222.353ZM348.259 222.353H349.917V224.145H348.259V222.353ZM374.793 222.353H373.134V224.145H374.793V222.353ZM398.01 222.353H399.668V224.145H398.01V222.353ZM424.544 222.353H422.886V224.145H424.544V222.353ZM447.761 222.353H449.42V224.145H447.761V222.353ZM474.295 222.353H472.637V224.145H474.295V222.353ZM497.513 222.353H499.171V224.145H497.513V222.353ZM524.047 222.353H522.388V224.145H524.047V222.353ZM547.264 222.353H548.922V224.145H547.264V222.353ZM573.798 222.353H572.14V224.145H573.798V222.353ZM597.015 222.353H598.674V224.145H597.015V222.353ZM623.549 222.353H621.891V224.145H623.549V222.353ZM646.767 222.353H648.425V224.145H646.767V222.353ZM673.301 222.353H671.642V224.145H673.301V222.353ZM696.518 222.353H698.176V224.145H696.518V222.353ZM723.052 222.353H721.393V224.145H723.052V222.353ZM746.269 222.353H747.928V224.145H746.269V222.353ZM772.803 222.353H771.145V224.145H772.803V222.353ZM796.02 222.353H797.679V224.145H796.02V222.353ZM822.555 222.353H820.896V224.145H822.555V222.353ZM845.772 222.353H847.43V224.145H845.772V222.353ZM872.306 222.353H870.647V224.145H872.306V222.353ZM895.523 222.353H897.181V224.145H895.523V222.353ZM922.057 222.353H920.399V224.145H922.057V222.353ZM0.000163518 250.146H1.65854V251.939H0.000163518V250.146ZM26.5341 250.146H24.8758V251.939H26.5341V250.146ZM49.7515 250.146H51.4098V251.939H49.7515V250.146ZM76.2854 250.146H74.6271V251.939H76.2854V250.146ZM99.5026 250.146H101.161V251.939H99.5026V250.146ZM126.037 250.146H124.378V251.939H126.037V250.146ZM149.254 250.146H150.912V251.939H149.254V250.146ZM175.788 250.146H174.129V251.939H175.788V250.146ZM199.005 250.146H200.663V251.939H199.005V250.146ZM225.539 250.146H223.881V251.939H225.539V250.146ZM248.756 250.146H250.415V251.939H248.756V250.146ZM275.29 250.146H273.632V251.939H275.29V250.146ZM298.508 250.146H300.166V251.939H298.508V250.146ZM325.042 250.146H323.383V251.939H325.042V250.146ZM348.259 250.146H349.917V251.939H348.259V250.146ZM374.793 250.146H373.134V251.939H374.793V250.146ZM398.01 250.146H399.668V251.939H398.01V250.146ZM424.544 250.146H422.886V251.939H424.544V250.146ZM447.761 250.146H449.42V251.939H447.761V250.146ZM474.295 250.146H472.637V251.939H474.295V250.146ZM497.513 250.146H499.171V251.939H497.513V250.146ZM524.047 250.146H522.388V251.939H524.047V250.146ZM547.264 250.146H548.922V251.939H547.264V250.146ZM573.798 250.146H572.14V251.939H573.798V250.146ZM597.015 250.146H598.674V251.939H597.015V250.146ZM623.549 250.146H621.891V251.939H623.549V250.146ZM646.767 250.146H648.425V251.939H646.767V250.146ZM673.301 250.146H671.642V251.939H673.301V250.146ZM696.518 250.146H698.176V251.939H696.518V250.146ZM723.052 250.146H721.393V251.939H723.052V250.146ZM746.269 250.146H747.928V251.939H746.269V250.146ZM772.803 250.146H771.145V251.939H772.803V250.146ZM796.02 250.146H797.679V251.939H796.02V250.146ZM822.555 250.146H820.896V251.939H822.555V250.146ZM845.772 250.146H847.43V251.939H845.772V250.146ZM872.306 250.146H870.647V251.939H872.306V250.146ZM895.523 250.146H897.181V251.939H895.523V250.146ZM922.057 250.146H920.399V251.939H922.057V250.146ZM0.000163518 277.941H1.65854V279.733H0.000163518V277.941ZM26.5341 277.941H24.8758V279.733H26.5341V277.941ZM49.7515 277.941H51.4098V279.733H49.7515V277.941ZM76.2854 277.941H74.6271V279.733H76.2854V277.941ZM99.5026 277.941H101.161V279.733H99.5026V277.941ZM126.037 277.941H124.378V279.733H126.037V277.941ZM149.254 277.941H150.912V279.733H149.254V277.941ZM175.788 277.941H174.129V279.733H175.788V277.941ZM199.005 277.941H200.663V279.733H199.005V277.941ZM225.539 277.941H223.881V279.733H225.539V277.941ZM248.756 277.941H250.415V279.733H248.756V277.941ZM275.29 277.941H273.632V279.733H275.29V277.941ZM298.508 277.941H300.166V279.733H298.508V277.941ZM325.042 277.941H323.383V279.733H325.042V277.941ZM348.259 277.941H349.917V279.733H348.259V277.941ZM374.793 277.941H373.134V279.733H374.793V277.941ZM398.01 277.941H399.668V279.733H398.01V277.941ZM424.544 277.941H422.886V279.733H424.544V277.941ZM447.761 277.941H449.42V279.733H447.761V277.941ZM474.295 277.941H472.637V279.733H474.295V277.941ZM497.513 277.941H499.171V279.733H497.513V277.941ZM524.047 277.941H522.388V279.733H524.047V277.941ZM547.264 277.941H548.922V279.733H547.264V277.941ZM573.798 277.941H572.14V279.733H573.798V277.941ZM597.015 277.941H598.674V279.733H597.015V277.941ZM623.549 277.941H621.891V279.733H623.549V277.941ZM646.767 277.941H648.425V279.733H646.767V277.941ZM673.301 277.941H671.642V279.733H673.301V277.941ZM696.518 277.941H698.176V279.733H696.518V277.941ZM723.052 277.941H721.393V279.733H723.052V277.941ZM746.269 277.941H747.928V279.733H746.269V277.941ZM772.803 277.941H771.145V279.733H772.803V277.941ZM796.02 277.941H797.679V279.733H796.02V277.941ZM822.555 277.941H820.896V279.733H822.555V277.941ZM845.772 277.941H847.43V279.733H845.772V277.941ZM872.306 277.941H870.647V279.733H872.306V277.941ZM895.523 277.941H897.181V279.733H895.523V277.941ZM922.057 277.941H920.399V279.733H922.057V277.941ZM0.000163518 305.735H1.65854V307.527H0.000163518V305.735ZM26.5341 305.735H24.8758V307.527H26.5341V305.735ZM49.7515 305.735H51.4098V307.527H49.7515V305.735ZM76.2854 305.735H74.6271V307.527H76.2854V305.735ZM99.5026 305.735H101.161V307.527H99.5026V305.735ZM126.037 305.735H124.378V307.527H126.037V305.735ZM149.254 305.735H150.912V307.527H149.254V305.735ZM175.788 305.735H174.129V307.527H175.788V305.735ZM199.005 305.735H200.663V307.527H199.005V305.735ZM225.539 305.735H223.881V307.527H225.539V305.735ZM248.756 305.735H250.415V307.527H248.756V305.735ZM275.29 305.735H273.632V307.527H275.29V305.735ZM298.508 305.735H300.166V307.527H298.508V305.735ZM325.042 305.735H323.383V307.527H325.042V305.735ZM348.259 305.735H349.917V307.527H348.259V305.735ZM374.793 305.735H373.134V307.527H374.793V305.735ZM398.01 305.735H399.668V307.527H398.01V305.735ZM424.544 305.735H422.886V307.527H424.544V305.735ZM447.761 305.735H449.42V307.527H447.761V305.735ZM474.295 305.735H472.637V307.527H474.295V305.735ZM497.513 305.735H499.171V307.527H497.513V305.735ZM524.047 305.735H522.388V307.527H524.047V305.735ZM547.264 305.735H548.922V307.527H547.264V305.735ZM573.798 305.735H572.14V307.527H573.798V305.735ZM597.015 305.735H598.674V307.527H597.015V305.735ZM623.549 305.735H621.891V307.527H623.549V305.735ZM646.767 305.735H648.425V307.527H646.767V305.735ZM673.301 305.735H671.642V307.527H673.301V305.735ZM696.518 305.735H698.176V307.527H696.518V305.735ZM723.052 305.735H721.393V307.527H723.052V305.735ZM746.269 305.735H747.928V307.527H746.269V305.735ZM772.803 305.735H771.145V307.527H772.803V305.735ZM796.02 305.735H797.679V307.527H796.02V305.735ZM822.555 305.735H820.896V307.527H822.555V305.735ZM845.772 305.735H847.43V307.527H845.772V305.735ZM872.306 305.735H870.647V307.527H872.306V305.735ZM895.523 305.735H897.181V307.527H895.523V305.735ZM922.057 305.735H920.399V307.527H922.057V305.735ZM0.000163518 333.529H1.65854V335.321H0.000163518V333.529ZM26.5341 333.529H24.8758V335.321H26.5341V333.529ZM49.7515 333.529H51.4098V335.321H49.7515V333.529ZM76.2854 333.529H74.6271V335.321H76.2854V333.529ZM99.5026 333.529H101.161V335.321H99.5026V333.529ZM126.037 333.529H124.378V335.321H126.037V333.529ZM149.254 333.529H150.912V335.321H149.254V333.529ZM175.788 333.529H174.129V335.321H175.788V333.529ZM199.005 333.529H200.663V335.321H199.005V333.529ZM225.539 333.529H223.881V335.321H225.539V333.529ZM248.756 333.529H250.415V335.321H248.756V333.529ZM275.29 333.529H273.632V335.321H275.29V333.529ZM298.508 333.529H300.166V335.321H298.508V333.529ZM325.042 333.529H323.383V335.321H325.042V333.529ZM348.259 333.529H349.917V335.321H348.259V333.529ZM374.793 333.529H373.134V335.321H374.793V333.529ZM398.01 333.529H399.668V335.321H398.01V333.529ZM424.544 333.529H422.886V335.321H424.544V333.529ZM447.761 333.529H449.42V335.321H447.761V333.529ZM474.295 333.529H472.637V335.321H474.295V333.529ZM497.513 333.529H499.171V335.321H497.513V333.529ZM524.047 333.529H522.388V335.321H524.047V333.529ZM547.264 333.529H548.922V335.321H547.264V333.529ZM573.798 333.529H572.14V335.321H573.798V333.529ZM597.015 333.529H598.674V335.321H597.015V333.529ZM623.549 333.529H621.891V335.321H623.549V333.529ZM646.767 333.529H648.425V335.321H646.767V333.529ZM673.301 333.529H671.642V335.321H673.301V333.529ZM696.518 333.529H698.176V335.321H696.518V333.529ZM723.052 333.529H721.393V335.321H723.052V333.529ZM746.269 333.529H747.928V335.321H746.269V333.529ZM772.803 333.529H771.145V335.321H772.803V333.529ZM796.02 333.529H797.679V335.321H796.02V333.529ZM822.555 333.529H820.896V335.321H822.555V333.529ZM845.772 333.529H847.43V335.321H845.772V333.529ZM872.306 333.529H870.647V335.321H872.306V333.529ZM895.523 333.529H897.181V335.321H895.523V333.529ZM922.057 333.529H920.399V335.321H922.057V333.529ZM24.8757 361.323H26.5341V363.116H24.8757V361.323ZM1.18938e-05 361.323H1.65839V363.116H1.18938e-05V361.323ZM51.4097 361.323H49.7513V363.116H51.4097V361.323ZM74.627 361.323H76.2853V363.116H74.627V361.323ZM101.161 361.323H99.5025V363.116H101.161V361.323ZM124.378 361.323H126.037V363.116H124.378V361.323ZM150.912 361.323H149.254V363.116H150.912V361.323ZM174.129 361.323H175.788V363.116H174.129V361.323ZM200.663 361.323H199.005V363.116H200.663V361.323ZM223.881 361.323H225.539V363.116H223.881V361.323ZM250.415 361.323H248.756V363.116H250.415V361.323ZM273.632 361.323H275.29V363.116H273.632V361.323ZM300.166 361.323H298.507V363.116H300.166V361.323ZM323.383 361.323H325.042V363.116H323.383V361.323ZM349.917 361.323H348.259V363.116H349.917V361.323ZM373.134 361.323H374.793V363.116H373.134V361.323ZM399.668 361.323H398.01V363.116H399.668V361.323ZM422.886 361.323H424.544V363.116H422.886V361.323ZM449.42 361.323H447.761V363.116H449.42V361.323ZM472.637 361.323H474.295V363.116H472.637V361.323ZM499.171 361.323H497.513V363.116H499.171V361.323ZM522.388 361.323H524.047V363.116H522.388V361.323ZM548.922 361.323H547.264V363.116H548.922V361.323ZM572.14 361.323H573.798V363.116H572.14V361.323ZM598.674 361.323H597.015V363.116H598.674V361.323ZM621.891 361.323H623.549V363.116H621.891V361.323ZM648.425 361.323H646.767V363.116H648.425V361.323ZM671.642 361.323H673.3V363.116H671.642V361.323ZM698.176 361.323H696.518V363.116H698.176V361.323ZM721.393 361.323H723.052V363.116H721.393V361.323ZM747.927 361.323H746.269V363.116H747.927V361.323ZM771.145 361.323H772.803V363.116H771.145V361.323ZM797.679 361.323H796.02V363.116H797.679V361.323ZM820.896 361.323H822.554V363.116H820.896V361.323ZM847.43 361.323H845.772V363.116H847.43V361.323ZM870.647 361.323H872.306V363.116H870.647V361.323ZM897.181 361.323H895.523V363.116H897.181V361.323ZM920.399 361.323H922.057V363.116H920.399V361.323ZM1.65839 389.117H1.18938e-05V390.91H1.65839V389.117ZM24.8757 389.117H26.5341V390.91H24.8757V389.117ZM51.4097 389.117H49.7513V390.91H51.4097V389.117ZM74.627 389.117H76.2853V390.91H74.627V389.117ZM101.161 389.117H99.5025V390.91H101.161V389.117ZM124.378 389.117H126.037V390.91H124.378V389.117ZM150.912 389.117H149.254V390.91H150.912V389.117ZM174.129 389.117H175.788V390.91H174.129V389.117ZM200.663 389.117H199.005V390.91H200.663V389.117ZM223.881 389.117H225.539V390.91H223.881V389.117ZM250.415 389.117H248.756V390.91H250.415V389.117ZM273.632 389.117H275.29V390.91H273.632V389.117ZM300.166 389.117H298.507V390.91H300.166V389.117ZM323.383 389.117H325.042V390.91H323.383V389.117ZM349.917 389.117H348.259V390.91H349.917V389.117ZM373.134 389.117H374.793V390.91H373.134V389.117ZM399.668 389.117H398.01V390.91H399.668V389.117ZM422.886 389.117H424.544V390.91H422.886V389.117ZM449.42 389.117H447.761V390.91H449.42V389.117ZM472.637 389.117H474.295V390.91H472.637V389.117ZM499.171 389.117H497.513V390.91H499.171V389.117ZM522.388 389.117H524.047V390.91H522.388V389.117ZM548.922 389.117H547.264V390.91H548.922V389.117ZM572.14 389.117H573.798V390.91H572.14V389.117ZM598.674 389.117H597.015V390.91H598.674V389.117ZM621.891 389.117H623.549V390.91H621.891V389.117ZM648.425 389.117H646.767V390.91H648.425V389.117ZM671.642 389.117H673.3V390.91H671.642V389.117ZM698.176 389.117H696.518V390.91H698.176V389.117ZM721.393 389.117H723.052V390.91H721.393V389.117ZM747.927 389.117H746.269V390.91H747.927V389.117ZM771.145 389.117H772.803V390.91H771.145V389.117ZM797.679 389.117H796.02V390.91H797.679V389.117ZM820.896 389.117H822.554V390.91H820.896V389.117ZM847.43 389.117H845.772V390.91H847.43V389.117ZM870.647 389.117H872.306V390.91H870.647V389.117ZM897.181 389.117H895.523V390.91H897.181V389.117ZM920.399 389.117H922.057V390.91H920.399V389.117ZM1.65839 416.911H1.18938e-05V418.704H1.65839V416.911ZM24.8757 416.911H26.5341V418.704H24.8757V416.911ZM51.4097 416.911H49.7513V418.704H51.4097V416.911ZM74.627 416.911H76.2853V418.704H74.627V416.911ZM101.161 416.911H99.5025V418.704H101.161V416.911ZM124.378 416.911H126.037V418.704H124.378V416.911ZM150.912 416.911H149.254V418.704H150.912V416.911ZM174.129 416.911H175.788V418.704H174.129V416.911ZM200.663 416.911H199.005V418.704H200.663V416.911ZM223.881 416.911H225.539V418.704H223.881V416.911ZM250.415 416.911H248.756V418.704H250.415V416.911ZM273.632 416.911H275.29V418.704H273.632V416.911ZM300.166 416.911H298.507V418.704H300.166V416.911ZM323.383 416.911H325.042V418.704H323.383V416.911ZM349.917 416.911H348.259V418.704H349.917V416.911ZM373.134 416.911H374.793V418.704H373.134V416.911ZM399.668 416.911H398.01V418.704H399.668V416.911ZM422.886 416.911H424.544V418.704H422.886V416.911ZM449.42 416.911H447.761V418.704H449.42V416.911ZM472.637 416.911H474.295V418.704H472.637V416.911ZM499.171 416.911H497.513V418.704H499.171V416.911ZM522.388 416.911H524.047V418.704H522.388V416.911ZM548.922 416.911H547.264V418.704H548.922V416.911ZM572.14 416.911H573.798V418.704H572.14V416.911ZM598.674 416.911H597.015V418.704H598.674V416.911ZM621.891 416.911H623.549V418.704H621.891V416.911ZM648.425 416.911H646.767V418.704H648.425V416.911ZM671.642 416.911H673.3V418.704H671.642V416.911ZM698.176 416.911H696.518V418.704H698.176V416.911ZM721.393 416.911H723.052V418.704H721.393V416.911ZM747.927 416.911H746.269V418.704H747.927V416.911ZM771.145 416.911H772.803V418.704H771.145V416.911ZM797.679 416.911H796.02V418.704H797.679V416.911ZM820.896 416.911H822.554V418.704H820.896V416.911ZM847.43 416.911H845.772V418.704H847.43V416.911ZM870.647 416.911H872.306V418.704H870.647V416.911ZM897.181 416.911H895.523V418.704H897.181V416.911ZM920.399 416.911H922.057V418.704H920.399V416.911ZM1.65839 444.705H1.18938e-05V446.498H1.65839V444.705ZM24.8757 444.705H26.5341V446.498H24.8757V444.705ZM51.4097 444.705H49.7513V446.498H51.4097V444.705ZM74.627 444.705H76.2853V446.498H74.627V444.705ZM101.161 444.705H99.5025V446.498H101.161V444.705ZM124.378 444.705H126.037V446.498H124.378V444.705ZM150.912 444.705H149.254V446.498H150.912V444.705ZM174.129 444.705H175.788V446.498H174.129V444.705ZM200.663 444.705H199.005V446.498H200.663V444.705ZM223.881 444.705H225.539V446.498H223.881V444.705ZM250.415 444.705H248.756V446.498H250.415V444.705ZM273.632 444.705H275.29V446.498H273.632V444.705ZM300.166 444.705H298.507V446.498H300.166V444.705ZM323.383 444.705H325.042V446.498H323.383V444.705ZM349.917 444.705H348.259V446.498H349.917V444.705ZM373.134 444.705H374.793V446.498H373.134V444.705ZM399.668 444.705H398.01V446.498H399.668V444.705ZM422.886 444.705H424.544V446.498H422.886V444.705ZM449.42 444.705H447.761V446.498H449.42V444.705ZM472.637 444.705H474.295V446.498H472.637V444.705ZM499.171 444.705H497.513V446.498H499.171V444.705ZM522.388 444.705H524.047V446.498H522.388V444.705ZM548.922 444.705H547.264V446.498H548.922V444.705ZM572.14 444.705H573.798V446.498H572.14V444.705ZM598.674 444.705H597.015V446.498H598.674V444.705ZM621.891 444.705H623.549V446.498H621.891V444.705ZM648.425 444.705H646.767V446.498H648.425V444.705ZM671.642 444.705H673.3V446.498H671.642V444.705ZM698.176 444.705H696.518V446.498H698.176V444.705ZM721.393 444.705H723.052V446.498H721.393V444.705ZM747.927 444.705H746.269V446.498H747.927V444.705ZM771.145 444.705H772.803V446.498H771.145V444.705ZM797.679 444.705H796.02V446.498H797.679V444.705ZM820.896 444.705H822.554V446.498H820.896V444.705ZM847.43 444.705H845.772V446.498H847.43V444.705ZM870.647 444.705H872.306V446.498H870.647V444.705ZM897.181 444.705H895.523V446.498H897.181V444.705ZM920.399 444.705H922.057V446.498H920.399V444.705ZM1.65839 472.499H1.18938e-05V474.292H1.65839V472.499ZM24.8757 472.499H26.5341V474.292H24.8757V472.499ZM51.4097 472.499H49.7513V474.292H51.4097V472.499ZM74.627 472.499H76.2853V474.292H74.627V472.499ZM101.161 472.499H99.5025V474.292H101.161V472.499ZM124.378 472.499H126.037V474.292H124.378V472.499ZM150.912 472.499H149.254V474.292H150.912V472.499ZM174.129 472.499H175.788V474.292H174.129V472.499ZM200.663 472.499H199.005V474.292H200.663V472.499ZM223.881 472.499H225.539V474.292H223.881V472.499ZM250.415 472.499H248.756V474.292H250.415V472.499ZM273.632 472.499H275.29V474.292H273.632V472.499ZM300.166 472.499H298.507V474.292H300.166V472.499ZM323.383 472.499H325.042V474.292H323.383V472.499ZM349.917 472.499H348.259V474.292H349.917V472.499ZM373.134 472.499H374.793V474.292H373.134V472.499ZM399.668 472.499H398.01V474.292H399.668V472.499ZM422.886 472.499H424.544V474.292H422.886V472.499ZM449.42 472.499H447.761V474.292H449.42V472.499ZM472.637 472.499H474.295V474.292H472.637V472.499ZM499.171 472.499H497.513V474.292H499.171V472.499ZM522.388 472.499H524.047V474.292H522.388V472.499ZM548.922 472.499H547.264V474.292H548.922V472.499ZM572.14 472.499H573.798V474.292H572.14V472.499ZM598.674 472.499H597.015V474.292H598.674V472.499ZM621.891 472.499H623.549V474.292H621.891V472.499ZM648.425 472.499H646.767V474.292H648.425V472.499ZM671.642 472.499H673.3V474.292H671.642V472.499ZM698.176 472.499H696.518V474.292H698.176V472.499ZM721.393 472.499H723.052V474.292H721.393V472.499ZM747.927 472.499H746.269V474.292H747.927V472.499ZM771.145 472.499H772.803V474.292H771.145V472.499ZM797.679 472.499H796.02V474.292H797.679V472.499ZM820.896 472.499H822.554V474.292H820.896V472.499ZM847.43 472.499H845.772V474.292H847.43V472.499ZM870.647 472.499H872.306V474.292H870.647V472.499ZM897.181 472.499H895.523V474.292H897.181V472.499ZM920.399 472.499H922.057V474.292H920.399V472.499ZM1.65839 500.294H1.18938e-05V502.086H1.65839V500.294ZM24.8757 500.293H26.5341V502.086H24.8757V500.293ZM51.4097 500.293H49.7513V502.086H51.4097V500.293ZM74.627 500.293H76.2853V502.086H74.627V500.293ZM101.161 500.293H99.5025V502.086H101.161V500.293ZM124.378 500.293H126.037V502.086H124.378V500.293ZM150.912 500.293H149.254V502.086H150.912V500.293ZM174.129 500.293H175.788V502.086H174.129V500.293ZM200.663 500.293H199.005V502.086H200.663V500.293ZM223.881 500.293H225.539V502.086H223.881V500.293ZM250.415 500.293H248.756V502.086H250.415V500.293ZM273.632 500.293H275.29V502.086H273.632V500.293ZM300.166 500.293H298.507V502.086H300.166V500.293ZM323.383 500.293H325.042V502.086H323.383V500.293ZM349.917 500.293H348.259V502.086H349.917V500.293ZM373.134 500.293H374.793V502.086H373.134V500.293ZM399.668 500.293H398.01V502.086H399.668V500.293ZM422.886 500.293H424.544V502.086H422.886V500.293ZM449.42 500.293H447.761V502.086H449.42V500.293ZM472.637 500.293H474.295V502.086H472.637V500.293ZM499.171 500.293H497.513V502.086H499.171V500.293ZM522.388 500.294H524.047V502.086H522.388V500.294ZM548.922 500.294H547.264V502.086H548.922V500.294ZM572.14 500.294H573.798V502.086H572.14V500.294ZM598.674 500.294H597.015V502.086H598.674V500.294ZM621.891 500.294H623.549V502.086H621.891V500.294ZM648.425 500.294H646.767V502.086H648.425V500.294ZM671.642 500.294H673.3V502.086H671.642V500.294ZM698.176 500.294H696.518V502.086H698.176V500.294ZM721.393 500.294H723.052V502.086H721.393V500.294ZM747.927 500.294H746.269V502.086H747.927V500.294ZM771.145 500.294H772.803V502.086H771.145V500.294ZM797.679 500.294H796.02V502.086H797.679V500.294ZM820.896 500.294H822.554V502.086H820.896V500.294ZM847.43 500.294H845.772V502.086H847.43V500.294ZM870.647 500.294H872.306V502.086H870.647V500.294ZM897.181 500.294H895.523V502.086H897.181V500.294ZM920.399 500.294H922.057V502.086H920.399V500.294Z" fill="url(#paint0_radial_4182_78970)"/>
<defs>
<radialGradient id="paint0_radial_4182_78970" cx="0" cy="0" r="1" gradientUnits="userSpaceOnUse" gradientTransform="translate(851.738 218.554) rotate(169.406) scale(473.371 896.469)">
<stop offset="0.302083" stop-color="#FF6D00"/>
<stop offset="1" stop-color="#FF6D00" stop-opacity="0"/>
</radialGradient>
</defs>
</svg>
