<svg width="960" height="398" viewBox="0 0 960 398" fill="none" xmlns="http://www.w3.org/2000/svg">
<path fill-rule="evenodd" clip-rule="evenodd" d="M-273.317 -149.428H-276.035V-146.49H-273.317V-149.428ZM-314.09 -149.427H-316.809V-146.489H-314.09V-149.427ZM-235.261 -149.428H-232.543V-146.49H-235.261V-149.428ZM-191.77 -149.427H-194.488V-146.489H-191.77V-149.427ZM-153.715 -149.427H-150.996V-146.489H-153.715V-149.427ZM-110.223 -149.427H-112.941V-146.489H-110.223V-149.427ZM-72.1675 -149.427H-69.4493V-146.489H-72.1675V-149.427ZM-28.6758 -149.427H-31.394V-146.489H-28.6758V-149.427ZM9.37933 -149.427H12.0976V-146.489H9.37933V-149.427ZM52.8711 -149.427H50.1529V-146.489H52.8711V-149.427ZM90.9263 -149.427H93.6445V-146.489H90.9263V-149.427ZM134.418 -149.427H131.7V-146.489H134.418V-149.427ZM172.473 -149.427H175.192V-146.489H172.473V-149.427ZM215.965 -149.427H213.247V-146.489H215.965V-149.427ZM254.02 -149.427H256.739V-146.489H254.02V-149.427ZM297.512 -149.427H294.794V-146.489H297.512V-149.427ZM335.567 -149.427H338.286V-146.489H335.567V-149.427ZM379.059 -149.427H376.341V-146.489H379.059V-149.427ZM417.114 -149.427H419.833V-146.489H417.114V-149.427ZM460.606 -149.427H457.888V-146.489H460.606V-149.427ZM498.661 -149.427H501.38V-146.489H498.661V-149.427ZM542.153 -149.427H539.435V-146.489H542.153V-149.427ZM580.209 -149.427H582.927V-146.489H580.209V-149.427ZM623.7 -149.427H620.982V-146.489H623.7V-149.427ZM661.755 -149.427H664.474V-146.489H661.755V-149.427ZM705.247 -149.427H702.529V-146.489H705.247V-149.427ZM743.303 -149.427H746.021V-146.489H743.303V-149.427ZM786.794 -149.427H784.076V-146.489H786.794V-149.427ZM824.85 -149.427H827.568V-146.489H824.85V-149.427ZM868.341 -149.427H865.623V-146.489H868.341V-149.427ZM906.397 -149.427H909.115V-146.489H906.397V-149.427ZM949.888 -149.427H947.17V-146.489H949.888V-149.427ZM987.944 -149.427H990.662V-146.489H987.944V-149.427ZM1031.44 -149.427H1028.72V-146.489H1031.44V-149.427ZM1069.49 -149.427H1072.21V-146.489H1069.49V-149.427ZM1112.98 -149.427H1110.26V-146.489H1112.98V-149.427ZM1151.04 -149.427H1153.76V-146.489H1151.04V-149.427ZM1194.53 -149.427H1191.81V-146.489H1194.53V-149.427ZM-314.09 -103.87H-316.808V-100.932H-314.09V-103.87ZM-273.317 -103.87H-276.035V-100.932H-273.317V-103.87ZM-235.261 -103.87H-232.543V-100.932H-235.261V-103.87ZM-191.77 -103.87H-194.488V-100.932H-191.77V-103.87ZM-153.714 -103.87H-150.996V-100.932H-153.714V-103.87ZM-110.223 -103.87H-112.941V-100.932H-110.223V-103.87ZM-72.1673 -103.87H-69.4491V-100.932H-72.1673V-103.87ZM-28.6757 -103.87H-31.3939V-100.932H-28.6757V-103.87ZM9.37952 -103.87H12.0978V-100.932H9.37952V-103.87ZM52.8713 -103.87H50.1531V-100.932H52.8713V-103.87ZM90.9265 -103.87H93.6448V-100.932H90.9265V-103.87ZM134.418 -103.87H131.7V-100.932H134.418V-103.87ZM172.473 -103.87H175.192V-100.932H172.473V-103.87ZM215.965 -103.87H213.247V-100.932H215.965V-103.87ZM254.021 -103.87H256.739V-100.932H254.021V-103.87ZM297.512 -103.87H294.794V-100.932H297.512V-103.87ZM335.567 -103.87H338.286V-100.932H335.567V-103.87ZM379.059 -103.87H376.341V-100.932H379.059V-103.87ZM417.115 -103.87H419.833V-100.932H417.115V-103.87ZM460.606 -103.87H457.888V-100.932H460.606V-103.87ZM498.662 -103.87H501.38V-100.932H498.662V-103.87ZM542.153 -103.87H539.435V-100.932H542.153V-103.87ZM580.209 -103.87H582.927V-100.932H580.209V-103.87ZM623.701 -103.87H620.982V-100.932H623.701V-103.87ZM661.756 -103.87H664.474V-100.932H661.756V-103.87ZM705.247 -103.87H702.529V-100.932H705.247V-103.87ZM743.303 -103.87H746.021V-100.932H743.303V-103.87ZM786.794 -103.87H784.076V-100.932H786.794V-103.87ZM824.85 -103.87H827.568V-100.932H824.85V-103.87ZM868.342 -103.87H865.623V-100.932H868.342V-103.87ZM906.397 -103.87H909.115V-100.932H906.397V-103.87ZM949.889 -103.87H947.17V-100.932H949.889V-103.87ZM987.944 -103.87H990.662V-100.932H987.944V-103.87ZM1031.44 -103.87H1028.72V-100.932H1031.44V-103.87ZM1069.49 -103.87H1072.21V-100.932H1069.49V-103.87ZM1112.98 -103.87H1110.26V-100.932H1112.98V-103.87ZM1151.04 -103.87H1153.76V-100.932H1151.04V-103.87ZM1194.53 -103.87H1191.81V-100.932H1194.53V-103.87ZM-316.808 -58.3127H-314.09V-55.3747H-316.808V-58.3127ZM-273.317 -58.3127H-276.035V-55.3747H-273.317V-58.3127ZM-235.261 -58.3127H-232.543V-55.3747H-235.261V-58.3127ZM-191.77 -58.3127H-194.488V-55.3747H-191.77V-58.3127ZM-153.714 -58.3127H-150.996V-55.3747H-153.714V-58.3127ZM-110.223 -58.3127H-112.941V-55.3747H-110.223V-58.3127ZM-72.1673 -58.3127H-69.4491V-55.3747H-72.1673V-58.3127ZM-28.6757 -58.3127H-31.3939V-55.3747H-28.6757V-58.3127ZM9.37952 -58.3127H12.0978V-55.3747H9.37952V-58.3127ZM52.8713 -58.3127H50.1531V-55.3747H52.8713V-58.3127ZM90.9265 -58.3127H93.6448V-55.3747H90.9265V-58.3127ZM134.418 -58.3127H131.7V-55.3747H134.418V-58.3127ZM172.473 -58.3127H175.192V-55.3747H172.473V-58.3127ZM215.965 -58.3127H213.247V-55.3747H215.965V-58.3127ZM254.021 -58.3127H256.739V-55.3747H254.021V-58.3127ZM297.512 -58.3127H294.794V-55.3747H297.512V-58.3127ZM335.567 -58.3127H338.286V-55.3747H335.567V-58.3127ZM379.059 -58.3127H376.341V-55.3747H379.059V-58.3127ZM417.115 -58.3127H419.833V-55.3747H417.115V-58.3127ZM460.606 -58.3127H457.888V-55.3747H460.606V-58.3127ZM498.662 -58.3127H501.38V-55.3747H498.662V-58.3127ZM542.153 -58.3127H539.435V-55.3747H542.153V-58.3127ZM580.209 -58.3127H582.927V-55.3747H580.209V-58.3127ZM623.701 -58.3127H620.982V-55.3747H623.701V-58.3127ZM661.756 -58.3127H664.474V-55.3747H661.756V-58.3127ZM705.247 -58.3127H702.529V-55.3747H705.247V-58.3127ZM743.303 -58.3127H746.021V-55.3747H743.303V-58.3127ZM786.794 -58.3127H784.076V-55.3747H786.794V-58.3127ZM824.85 -58.3127H827.568V-55.3747H824.85V-58.3127ZM868.342 -58.3127H865.623V-55.3747H868.342V-58.3127ZM906.397 -58.3127H909.115V-55.3747H906.397V-58.3127ZM949.889 -58.3127H947.17V-55.3747H949.889V-58.3127ZM987.944 -58.3127H990.662V-55.3747H987.944V-58.3127ZM1031.44 -58.3127H1028.72V-55.3747H1031.44V-58.3127ZM1069.49 -58.3127H1072.21V-55.3747H1069.49V-58.3127ZM1112.98 -58.3127H1110.26V-55.3747H1112.98V-58.3127ZM1151.04 -58.3127H1153.76V-55.3747H1151.04V-58.3127ZM1194.53 -58.3127H1191.81V-55.3747H1194.53V-58.3127ZM-276.035 -12.7558H-273.317V-9.81784H-276.035V-12.7558ZM-316.809 -12.7558H-314.09V-9.81778H-316.809V-12.7558ZM-232.543 -12.7558H-235.262V-9.81784H-232.543V-12.7558ZM-194.488 -12.7558H-191.77V-9.81784H-194.488V-12.7558ZM-150.996 -12.7558H-153.715V-9.81784H-150.996V-12.7558ZM-112.941 -12.7558H-110.223V-9.81784H-112.941V-12.7558ZM-69.4494 -12.7558H-72.1677V-9.81784H-69.4494V-12.7558ZM-31.3943 -12.7558H-28.676V-9.81784H-31.3943V-12.7558ZM12.0974 -12.7558H9.37918V-9.81784H12.0974V-12.7558ZM50.1528 -12.7558H52.8711V-9.81784H50.1528V-12.7558ZM93.6446 -12.7558H90.9264V-9.81784H93.6446V-12.7558ZM131.7 -12.7558H134.418V-9.81784H131.7V-12.7558ZM175.191 -12.7558H172.473V-9.81784H175.191V-12.7558ZM213.247 -12.7558H215.965V-9.81784H213.247V-12.7558ZM256.739 -12.7558H254.02V-9.81784H256.739V-12.7558ZM294.794 -12.7558H297.512V-9.81784H294.794V-12.7558ZM338.285 -12.7558H335.567V-9.81784H338.285V-12.7558ZM376.341 -12.7558H379.059V-9.81784H376.341V-12.7558ZM419.832 -12.7558H417.114V-9.81784H419.832V-12.7558ZM457.888 -12.7558H460.606V-9.81784H457.888V-12.7558ZM501.379 -12.7558H498.661V-9.81784H501.379V-12.7558ZM539.435 -12.7558H542.153V-9.81784H539.435V-12.7558ZM582.927 -12.7558H580.208V-9.81784H582.927V-12.7558ZM620.982 -12.7558H623.7V-9.81784H620.982V-12.7558ZM664.474 -12.7558H661.755V-9.81784H664.474V-12.7558ZM702.529 -12.7558H705.247V-9.81784H702.529V-12.7558ZM746.021 -12.7558H743.302V-9.81784H746.021V-12.7558ZM784.076 -12.7558H786.794V-9.81784H784.076V-12.7558ZM827.568 -12.7558H824.849V-9.81784H827.568V-12.7558ZM865.623 -12.7558H868.341V-9.81784H865.623V-12.7558ZM909.115 -12.7558H906.396V-9.81784H909.115V-12.7558ZM947.17 -12.7558H949.888V-9.81784H947.17V-12.7558ZM990.661 -12.7558H987.943V-9.81784H990.661V-12.7558ZM1028.72 -12.7558H1031.44V-9.81784H1028.72V-12.7558ZM1072.21 -12.7558H1069.49V-9.81784H1072.21V-12.7558ZM1110.26 -12.7558H1112.98V-9.81784H1110.26V-12.7558ZM1153.76 -12.7558H1151.04V-9.81784H1153.76V-12.7558ZM1191.81 -12.7558H1194.53V-9.81784H1191.81V-12.7558ZM-314.09 32.801H-316.809V35.739H-314.09V32.801ZM-276.035 32.801H-273.317V35.739H-276.035V32.801ZM-232.543 32.801H-235.262V35.739H-232.543V32.801ZM-194.488 32.801H-191.77V35.739H-194.488V32.801ZM-150.996 32.801H-153.715V35.739H-150.996V32.801ZM-112.941 32.801H-110.223V35.739H-112.941V32.801ZM-69.4494 32.801H-72.1677V35.739H-69.4494V32.801ZM-31.3943 32.801H-28.676V35.739H-31.3943V32.801ZM12.0974 32.801H9.37918V35.739H12.0974V32.801ZM50.1528 32.801H52.8711V35.739H50.1528V32.801ZM93.6446 32.801H90.9264V35.739H93.6446V32.801ZM131.7 32.801H134.418V35.739H131.7V32.801ZM175.191 32.801H172.473V35.739H175.191V32.801ZM213.247 32.801H215.965V35.739H213.247V32.801ZM256.739 32.801H254.02V35.739H256.739V32.801ZM294.794 32.801H297.512V35.739H294.794V32.801ZM338.285 32.801H335.567V35.739H338.285V32.801ZM376.341 32.801H379.059V35.739H376.341V32.801ZM419.832 32.801H417.114V35.739H419.832V32.801ZM457.888 32.801H460.606V35.739H457.888V32.801ZM501.379 32.801H498.661V35.739H501.379V32.801ZM539.435 32.801H542.153V35.739H539.435V32.801ZM582.927 32.801H580.208V35.739H582.927V32.801ZM620.982 32.801H623.7V35.739H620.982V32.801ZM664.474 32.801H661.755V35.739H664.474V32.801ZM702.529 32.801H705.247V35.739H702.529V32.801ZM746.021 32.801H743.302V35.739H746.021V32.801ZM784.076 32.801H786.794V35.739H784.076V32.801ZM827.568 32.801H824.849V35.739H827.568V32.801ZM865.623 32.801H868.341V35.739H865.623V32.801ZM909.115 32.801H906.396V35.739H909.115V32.801ZM947.17 32.801H949.888V35.739H947.17V32.801ZM990.661 32.801H987.943V35.739H990.661V32.801ZM1028.72 32.801H1031.44V35.739H1028.72V32.801ZM1072.21 32.801H1069.49V35.739H1072.21V32.801ZM1110.26 32.801H1112.98V35.739H1110.26V32.801ZM1153.76 32.801H1151.04V35.739H1153.76V32.801ZM1191.81 32.801H1194.53V35.739H1191.81V32.801ZM-314.09 78.3581H-316.809V81.2961H-314.09V78.3581ZM-276.035 78.3581H-273.317V81.2961H-276.035V78.3581ZM-232.543 78.3581H-235.262V81.2961H-232.543V78.3581ZM-194.488 78.3581H-191.77V81.2961H-194.488V78.3581ZM-150.996 78.3581H-153.715V81.2961H-150.996V78.3581ZM-112.941 78.3581H-110.223V81.2961H-112.941V78.3581ZM-69.4494 78.3581H-72.1677V81.2961H-69.4494V78.3581ZM-31.3943 78.3581H-28.676V81.2961H-31.3943V78.3581ZM12.0974 78.3581H9.37918V81.2961H12.0974V78.3581ZM50.1528 78.3581H52.8711V81.2961H50.1528V78.3581ZM93.6446 78.3581H90.9264V81.2961H93.6446V78.3581ZM131.7 78.3581H134.418V81.2961H131.7V78.3581ZM175.191 78.3581H172.473V81.2961H175.191V78.3581ZM213.247 78.3581H215.965V81.2961H213.247V78.3581ZM256.739 78.3581H254.02V81.2961H256.739V78.3581ZM294.794 78.3581H297.512V81.2961H294.794V78.3581ZM338.285 78.3581H335.567V81.2961H338.285V78.3581ZM376.341 78.3581H379.059V81.2961H376.341V78.3581ZM419.832 78.3581H417.114V81.2961H419.832V78.3581ZM457.888 78.3581H460.606V81.2961H457.888V78.3581ZM501.379 78.3581H498.661V81.2961H501.379V78.3581ZM539.435 78.3581H542.153V81.2961H539.435V78.3581ZM582.927 78.3581H580.208V81.2961H582.927V78.3581ZM620.982 78.3581H623.7V81.2961H620.982V78.3581ZM664.474 78.3581H661.755V81.2961H664.474V78.3581ZM702.529 78.3581H705.247V81.2961H702.529V78.3581ZM746.021 78.3581H743.302V81.2961H746.021V78.3581ZM784.076 78.3581H786.794V81.2961H784.076V78.3581ZM827.568 78.3581H824.849V81.2961H827.568V78.3581ZM865.623 78.3581H868.341V81.2961H865.623V78.3581ZM909.115 78.3581H906.396V81.2961H909.115V78.3581ZM947.17 78.3581H949.888V81.2961H947.17V78.3581ZM990.661 78.3581H987.943V81.2961H990.661V78.3581ZM1028.72 78.3581H1031.44V81.2961H1028.72V78.3581ZM1072.21 78.3581H1069.49V81.2961H1072.21V78.3581ZM1110.26 78.3581H1112.98V81.2961H1110.26V78.3581ZM1153.76 78.3581H1151.04V81.2961H1153.76V78.3581ZM1191.81 78.3581H1194.53V81.2961H1191.81V78.3581ZM-314.09 123.915H-316.809V126.853H-314.09V123.915ZM-276.035 123.915H-273.317V126.853H-276.035V123.915ZM-232.543 123.915H-235.262V126.853H-232.543V123.915ZM-194.488 123.915H-191.77V126.853H-194.488V123.915ZM-150.996 123.915H-153.715V126.853H-150.996V123.915ZM-112.941 123.915H-110.223V126.853H-112.941V123.915ZM-69.4494 123.915H-72.1677V126.853H-69.4494V123.915ZM-31.3943 123.915H-28.676V126.853H-31.3943V123.915ZM12.0974 123.915H9.37918V126.853H12.0974V123.915ZM50.1528 123.915H52.8711V126.853H50.1528V123.915ZM93.6446 123.915H90.9264V126.853H93.6446V123.915ZM131.7 123.915H134.418V126.853H131.7V123.915ZM175.191 123.915H172.473V126.853H175.191V123.915ZM213.247 123.915H215.965V126.853H213.247V123.915ZM256.739 123.915H254.02V126.853H256.739V123.915ZM294.794 123.915H297.512V126.853H294.794V123.915ZM338.285 123.915H335.567V126.853H338.285V123.915ZM376.341 123.915H379.059V126.853H376.341V123.915ZM419.832 123.915H417.114V126.853H419.832V123.915ZM457.888 123.915H460.606V126.853H457.888V123.915ZM501.379 123.915H498.661V126.853H501.379V123.915ZM539.435 123.915H542.153V126.853H539.435V123.915ZM582.927 123.915H580.208V126.853H582.927V123.915ZM620.982 123.915H623.7V126.853H620.982V123.915ZM664.474 123.915H661.755V126.853H664.474V123.915ZM702.529 123.915H705.247V126.853H702.529V123.915ZM746.021 123.915H743.302V126.853H746.021V123.915ZM784.076 123.915H786.794V126.853H784.076V123.915ZM827.568 123.915H824.849V126.853H827.568V123.915ZM865.623 123.915H868.341V126.853H865.623V123.915ZM909.115 123.915H906.396V126.853H909.115V123.915ZM947.17 123.915H949.888V126.853H947.17V123.915ZM990.661 123.915H987.943V126.853H990.661V123.915ZM1028.72 123.915H1031.44V126.853H1028.72V123.915ZM1072.21 123.915H1069.49V126.853H1072.21V123.915ZM1110.26 123.915H1112.98V126.853H1110.26V123.915ZM1153.76 123.915H1151.04V126.853H1153.76V123.915ZM1191.81 123.915H1194.53V126.853H1191.81V123.915ZM-273.317 169.472H-276.035V172.41H-273.317V169.472ZM-314.09 169.473H-316.808V172.411H-314.09V169.473ZM-235.261 169.472H-232.543V172.41H-235.261V169.472ZM-191.77 169.472H-194.488V172.41H-191.77V169.472ZM-153.714 169.472H-150.996V172.41H-153.714V169.472ZM-110.223 169.472H-112.941V172.41H-110.223V169.472ZM-72.1674 169.472H-69.4492V172.41H-72.1674V169.472ZM-28.6758 169.472H-31.394V172.41H-28.6758V169.472ZM9.37943 169.472H12.0977V172.41H9.37943V169.472ZM52.8713 169.472H50.1531V172.41H52.8713V169.472ZM90.9265 169.472H93.6448V172.41H90.9265V169.472ZM134.418 169.472H131.7V172.41H134.418V169.472ZM172.473 169.472H175.192V172.41H172.473V169.472ZM215.965 169.472H213.247V172.41H215.965V169.472ZM254.021 169.472H256.739V172.41H254.021V169.472ZM297.512 169.472H294.794V172.41H297.512V169.472ZM335.567 169.472H338.286V172.41H335.567V169.472ZM379.059 169.472H376.341V172.41H379.059V169.472ZM417.114 169.472H419.833V172.41H417.114V169.472ZM460.606 169.472H457.888V172.41H460.606V169.472ZM498.661 169.472H501.38V172.41H498.661V169.472ZM542.153 169.472H539.435V172.41H542.153V169.472ZM580.209 169.472H582.927V172.41H580.209V169.472ZM623.7 169.472H620.982V172.41H623.7V169.472ZM661.756 169.472H664.474V172.41H661.756V169.472ZM705.247 169.472H702.529V172.41H705.247V169.472ZM743.303 169.472H746.021V172.41H743.303V169.472ZM786.794 169.472H784.076V172.41H786.794V169.472ZM824.85 169.472H827.568V172.41H824.85V169.472ZM868.341 169.472H865.623V172.41H868.341V169.472ZM906.397 169.472H909.115V172.41H906.397V169.472ZM949.888 169.472H947.17V172.41H949.888V169.472ZM987.944 169.472H990.662V172.41H987.944V169.472ZM1031.44 169.472H1028.72V172.41H1031.44V169.472ZM1069.49 169.472H1072.21V172.41H1069.49V169.472ZM1112.98 169.472H1110.26V172.41H1112.98V169.472ZM1151.04 169.472H1153.76V172.41H1151.04V169.472ZM1194.53 169.472H1191.81V172.41H1194.53V169.472ZM-316.808 215.029H-314.09V217.967H-316.808V215.029ZM-273.317 215.029H-276.035V217.967H-273.317V215.029ZM-235.261 215.029H-232.543V217.967H-235.261V215.029ZM-191.77 215.029H-194.488V217.967H-191.77V215.029ZM-153.714 215.029H-150.996V217.967H-153.714V215.029ZM-110.223 215.029H-112.941V217.967H-110.223V215.029ZM-72.1674 215.029H-69.4492V217.967H-72.1674V215.029ZM-28.6758 215.029H-31.394V217.967H-28.6758V215.029ZM9.37943 215.029H12.0977V217.967H9.37943V215.029ZM52.8713 215.029H50.1531V217.967H52.8713V215.029ZM90.9265 215.029H93.6448V217.967H90.9265V215.029ZM134.418 215.029H131.7V217.967H134.418V215.029ZM172.473 215.029H175.192V217.967H172.473V215.029ZM215.965 215.029H213.247V217.967H215.965V215.029ZM254.021 215.029H256.739V217.967H254.021V215.029ZM297.512 215.029H294.794V217.967H297.512V215.029ZM335.567 215.029H338.286V217.967H335.567V215.029ZM379.059 215.029H376.341V217.967H379.059V215.029ZM417.114 215.029H419.833V217.967H417.114V215.029ZM460.606 215.029H457.888V217.967H460.606V215.029ZM498.661 215.029H501.38V217.967H498.661V215.029ZM542.153 215.029H539.435V217.967H542.153V215.029ZM580.209 215.029H582.927V217.967H580.209V215.029ZM623.7 215.029H620.982V217.967H623.7V215.029ZM661.756 215.029H664.474V217.967H661.756V215.029ZM705.247 215.029H702.529V217.967H705.247V215.029ZM743.303 215.029H746.021V217.967H743.303V215.029ZM786.794 215.029H784.076V217.967H786.794V215.029ZM824.85 215.029H827.568V217.967H824.85V215.029ZM868.341 215.029H865.623V217.967H868.341V215.029ZM906.397 215.029H909.115V217.967H906.397V215.029ZM949.888 215.029H947.17V217.967H949.888V215.029ZM987.944 215.029H990.662V217.967H987.944V215.029ZM1031.44 215.029H1028.72V217.967H1031.44V215.029ZM1069.49 215.029H1072.21V217.967H1069.49V215.029ZM1112.98 215.029H1110.26V217.967H1112.98V215.029ZM1151.04 215.029H1153.76V217.967H1151.04V215.029ZM1194.53 215.029H1191.81V217.967H1194.53V215.029ZM-316.808 260.586H-314.09V263.524H-316.808V260.586ZM-273.317 260.586H-276.035V263.524H-273.317V260.586ZM-235.261 260.586H-232.543V263.524H-235.261V260.586ZM-191.77 260.586H-194.488V263.524H-191.77V260.586ZM-153.714 260.586H-150.996V263.524H-153.714V260.586ZM-110.223 260.586H-112.941V263.524H-110.223V260.586ZM-72.1674 260.586H-69.4492V263.524H-72.1674V260.586ZM-28.6758 260.586H-31.394V263.524H-28.6758V260.586ZM9.37943 260.586H12.0977V263.524H9.37943V260.586ZM52.8713 260.586H50.1531V263.524H52.8713V260.586ZM90.9265 260.586H93.6448V263.524H90.9265V260.586ZM134.418 260.586H131.7V263.524H134.418V260.586ZM172.473 260.586H175.192V263.524H172.473V260.586ZM215.965 260.586H213.247V263.524H215.965V260.586ZM254.021 260.586H256.739V263.524H254.021V260.586ZM297.512 260.586H294.794V263.524H297.512V260.586ZM335.567 260.586H338.286V263.524H335.567V260.586ZM379.059 260.586H376.341V263.524H379.059V260.586ZM417.114 260.586H419.833V263.524H417.114V260.586ZM460.606 260.586H457.888V263.524H460.606V260.586ZM498.661 260.586H501.38V263.524H498.661V260.586ZM542.153 260.586H539.435V263.524H542.153V260.586ZM580.209 260.586H582.927V263.524H580.209V260.586ZM623.7 260.586H620.982V263.524H623.7V260.586ZM661.756 260.586H664.474V263.524H661.756V260.586ZM705.247 260.586H702.529V263.524H705.247V260.586ZM743.303 260.586H746.021V263.524H743.303V260.586ZM786.794 260.586H784.076V263.524H786.794V260.586ZM824.85 260.586H827.568V263.524H824.85V260.586ZM868.341 260.586H865.623V263.524H868.341V260.586ZM906.397 260.586H909.115V263.524H906.397V260.586ZM949.888 260.586H947.17V263.524H949.888V260.586ZM987.944 260.586H990.662V263.524H987.944V260.586ZM1031.44 260.586H1028.72V263.524H1031.44V260.586ZM1069.49 260.586H1072.21V263.524H1069.49V260.586ZM1112.98 260.586H1110.26V263.524H1112.98V260.586ZM1151.04 260.586H1153.76V263.524H1151.04V260.586ZM1194.53 260.586H1191.81V263.524H1194.53V260.586ZM-316.808 306.143H-314.09V309.081H-316.808V306.143ZM-273.317 306.143H-276.035V309.081H-273.317V306.143ZM-235.261 306.143H-232.543V309.081H-235.261V306.143ZM-191.77 306.143H-194.488V309.081H-191.77V306.143ZM-153.714 306.143H-150.996V309.081H-153.714V306.143ZM-110.223 306.143H-112.941V309.081H-110.223V306.143ZM-72.1674 306.143H-69.4492V309.081H-72.1674V306.143ZM-28.6758 306.143H-31.394V309.081H-28.6758V306.143ZM9.37943 306.143H12.0977V309.081H9.37943V306.143ZM52.8713 306.143H50.1531V309.081H52.8713V306.143ZM90.9265 306.143H93.6448V309.081H90.9265V306.143ZM134.418 306.143H131.7V309.081H134.418V306.143ZM172.473 306.143H175.192V309.081H172.473V306.143ZM215.965 306.143H213.247V309.081H215.965V306.143ZM254.021 306.143H256.739V309.081H254.021V306.143ZM297.512 306.143H294.794V309.081H297.512V306.143ZM335.567 306.143H338.286V309.081H335.567V306.143ZM379.059 306.143H376.341V309.081H379.059V306.143ZM417.114 306.143H419.833V309.081H417.114V306.143ZM460.606 306.143H457.888V309.081H460.606V306.143ZM498.661 306.143H501.38V309.081H498.661V306.143ZM542.153 306.143H539.435V309.081H542.153V306.143ZM580.209 306.143H582.927V309.081H580.209V306.143ZM623.7 306.143H620.982V309.081H623.7V306.143ZM661.756 306.143H664.474V309.081H661.756V306.143ZM705.247 306.143H702.529V309.081H705.247V306.143ZM743.303 306.143H746.021V309.081H743.303V306.143ZM786.794 306.143H784.076V309.081H786.794V306.143ZM824.85 306.143H827.568V309.081H824.85V306.143ZM868.341 306.143H865.623V309.081H868.341V306.143ZM906.397 306.143H909.115V309.081H906.397V306.143ZM949.888 306.143H947.17V309.081H949.888V306.143ZM987.944 306.143H990.662V309.081H987.944V306.143ZM1031.44 306.143H1028.72V309.081H1031.44V306.143ZM1069.49 306.143H1072.21V309.081H1069.49V306.143ZM1112.98 306.143H1110.26V309.081H1112.98V306.143ZM1151.04 306.143H1153.76V309.081H1151.04V306.143ZM1194.53 306.143H1191.81V309.081H1194.53V306.143ZM-316.808 351.7H-314.09V354.638H-316.808V351.7ZM-273.317 351.7H-276.035V354.638H-273.317V351.7ZM-235.261 351.7H-232.543V354.638H-235.261V351.7ZM-191.77 351.7H-194.488V354.638H-191.77V351.7ZM-153.714 351.7H-150.996V354.638H-153.714V351.7ZM-110.223 351.7H-112.941V354.638H-110.223V351.7ZM-72.1674 351.7H-69.4492V354.638H-72.1674V351.7ZM-28.6758 351.7H-31.394V354.638H-28.6758V351.7ZM9.37943 351.7H12.0977V354.638H9.37943V351.7ZM52.8713 351.7H50.1531V354.638H52.8713V351.7ZM90.9265 351.7H93.6448V354.638H90.9265V351.7ZM134.418 351.7H131.7V354.638H134.418V351.7ZM172.473 351.7H175.192V354.638H172.473V351.7ZM215.965 351.7H213.247V354.638H215.965V351.7ZM254.021 351.7H256.739V354.638H254.021V351.7ZM297.512 351.7H294.794V354.638H297.512V351.7ZM335.567 351.7H338.286V354.638H335.567V351.7ZM379.059 351.7H376.341V354.638H379.059V351.7ZM417.114 351.7H419.833V354.638H417.114V351.7ZM460.606 351.7H457.888V354.638H460.606V351.7ZM498.661 351.7H501.38V354.638H498.661V351.7ZM542.153 351.7H539.435V354.638H542.153V351.7ZM580.209 351.7H582.927V354.638H580.209V351.7ZM623.7 351.7H620.982V354.638H623.7V351.7ZM661.756 351.7H664.474V354.638H661.756V351.7ZM705.247 351.7H702.529V354.638H705.247V351.7ZM743.303 351.7H746.021V354.638H743.303V351.7ZM786.794 351.7H784.076V354.638H786.794V351.7ZM824.85 351.7H827.568V354.638H824.85V351.7ZM868.341 351.7H865.623V354.638H868.341V351.7ZM906.397 351.7H909.115V354.638H906.397V351.7ZM949.888 351.7H947.17V354.638H949.888V351.7ZM987.944 351.7H990.662V354.638H987.944V351.7ZM1031.44 351.7H1028.72V354.638H1031.44V351.7ZM1069.49 351.7H1072.21V354.638H1069.49V351.7ZM1112.98 351.7H1110.26V354.638H1112.98V351.7ZM1151.04 351.7H1153.76V354.638H1151.04V351.7ZM1194.53 351.7H1191.81V354.638H1194.53V351.7ZM-316.808 397.257H-314.09V400.195H-316.808V397.257ZM-273.317 397.257H-276.035V400.195H-273.317V397.257ZM-235.261 397.257H-232.543V400.195H-235.261V397.257ZM-191.77 397.257H-194.488V400.195H-191.77V397.257ZM-153.714 397.257H-150.996V400.195H-153.714V397.257ZM-110.223 397.257H-112.941V400.195H-110.223V397.257ZM-72.1674 397.257H-69.4492V400.195H-72.1674V397.257ZM-28.6758 397.257H-31.394V400.195H-28.6758V397.257ZM9.37943 397.257H12.0977V400.195H9.37943V397.257ZM52.8713 397.257H50.1531V400.195H52.8713V397.257ZM90.9265 397.257H93.6448V400.195H90.9265V397.257ZM134.418 397.257H131.7V400.195H134.418V397.257ZM172.473 397.257H175.192V400.195H172.473V397.257ZM215.965 397.257H213.247V400.195H215.965V397.257ZM254.021 397.257H256.739V400.195H254.021V397.257ZM297.512 397.257H294.794V400.195H297.512V397.257ZM335.567 397.257H338.286V400.195H335.567V397.257ZM379.059 397.257H376.341V400.195H379.059V397.257ZM417.114 397.257H419.833V400.195H417.114V397.257ZM460.606 397.257H457.888V400.195H460.606V397.257ZM498.661 397.257H501.38V400.195H498.661V397.257ZM542.153 397.257H539.435V400.195H542.153V397.257ZM580.209 397.257H582.927V400.195H580.209V397.257ZM623.7 397.257H620.982V400.195H623.7V397.257ZM661.756 397.257H664.474V400.195H661.756V397.257ZM705.247 397.257H702.529V400.195H705.247V397.257ZM743.303 397.257H746.021V400.195H743.303V397.257ZM786.794 397.257H784.076V400.195H786.794V397.257ZM824.85 397.257H827.568V400.195H824.85V397.257ZM868.341 397.257H865.623V400.195H868.341V397.257ZM906.397 397.257H909.115V400.195H906.397V397.257ZM949.888 397.257H947.17V400.195H949.888V397.257ZM987.944 397.257H990.662V400.195H987.944V397.257ZM1031.44 397.257H1028.72V400.195H1031.44V397.257ZM1069.49 397.257H1072.21V400.195H1069.49V397.257ZM1112.98 397.257H1110.26V400.195H1112.98V397.257ZM1151.04 397.257H1153.76V400.195H1151.04V397.257ZM1194.53 397.257H1191.81V400.195H1194.53V397.257ZM-276.035 442.815H-273.317V445.753H-276.035V442.815ZM-316.809 442.815H-314.09V445.753H-316.809V442.815ZM-232.543 442.815H-235.261V445.753H-232.543V442.815ZM-194.488 442.815H-191.77V445.753H-194.488V442.815ZM-150.996 442.815H-153.715V445.753H-150.996V442.815ZM-112.941 442.815H-110.223V445.753H-112.941V442.815ZM-69.4493 442.815H-72.1676V445.753H-69.4493V442.815ZM-31.3941 442.815H-28.6759V445.753H-31.3941V442.815ZM12.0975 442.815H9.37927V445.753H12.0975V442.815ZM50.1528 442.815H52.8711V445.753H50.1528V442.815ZM93.6446 442.815H90.9264V445.753H93.6446V442.815ZM131.7 442.815H134.418V445.753H131.7V442.815ZM175.191 442.815H172.473V445.753H175.191V442.815ZM213.247 442.815H215.965V445.753H213.247V442.815ZM256.739 442.815H254.02V445.753H256.739V442.815ZM294.794 442.815H297.512V445.753H294.794V442.815ZM338.285 442.815H335.567V445.753H338.285V442.815ZM376.341 442.815H379.059V445.753H376.341V442.815ZM419.832 442.815H417.114V445.753H419.832V442.815ZM457.888 442.815H460.606V445.753H457.888V442.815ZM501.379 442.815H498.661V445.753H501.379V442.815ZM539.435 442.815H542.153V445.753H539.435V442.815ZM582.927 442.815H580.209V445.753H582.927V442.815ZM620.982 442.815H623.7V445.753H620.982V442.815ZM664.474 442.815H661.755V445.753H664.474V442.815ZM702.529 442.815H705.247V445.753H702.529V442.815ZM746.021 442.815H743.302V445.753H746.021V442.815ZM784.076 442.815H786.794V445.753H784.076V442.815ZM827.568 442.815H824.85V445.753H827.568V442.815ZM865.623 442.815H868.341V445.753H865.623V442.815ZM909.115 442.815H906.397V445.753H909.115V442.815ZM947.17 442.815H949.888V445.753H947.17V442.815ZM990.662 442.815H987.943V445.753H990.662V442.815ZM1028.72 442.815H1031.44V445.753H1028.72V442.815ZM1072.21 442.815H1069.49V445.753H1072.21V442.815ZM1110.26 442.815H1112.98V445.753H1110.26V442.815ZM1153.76 442.815H1151.04V445.753H1153.76V442.815ZM1191.81 442.815H1194.53V445.753H1191.81V442.815ZM-314.09 488.372H-316.809V491.31H-314.09V488.372ZM-276.035 488.372H-273.317V491.31H-276.035V488.372ZM-232.543 488.372H-235.261V491.31H-232.543V488.372ZM-194.488 488.372H-191.77V491.31H-194.488V488.372ZM-150.996 488.372H-153.715V491.31H-150.996V488.372ZM-112.941 488.372H-110.223V491.31H-112.941V488.372ZM-69.4493 488.372H-72.1676V491.31H-69.4493V488.372ZM-31.3941 488.372H-28.6759V491.31H-31.3941V488.372ZM12.0975 488.372H9.37927V491.31H12.0975V488.372ZM50.1528 488.372H52.8711V491.31H50.1528V488.372ZM93.6446 488.372H90.9264V491.31H93.6446V488.372ZM131.7 488.372H134.418V491.31H131.7V488.372ZM175.191 488.372H172.473V491.31H175.191V488.372ZM213.247 488.372H215.965V491.31H213.247V488.372ZM256.739 488.372H254.02V491.31H256.739V488.372ZM294.794 488.372H297.512V491.31H294.794V488.372ZM338.285 488.372H335.567V491.31H338.285V488.372ZM376.341 488.372H379.059V491.31H376.341V488.372ZM419.832 488.372H417.114V491.31H419.832V488.372ZM457.888 488.372H460.606V491.31H457.888V488.372ZM501.379 488.372H498.661V491.31H501.379V488.372ZM539.435 488.372H542.153V491.31H539.435V488.372ZM582.927 488.372H580.209V491.31H582.927V488.372ZM620.982 488.372H623.7V491.31H620.982V488.372ZM664.474 488.372H661.755V491.31H664.474V488.372ZM702.529 488.372H705.247V491.31H702.529V488.372ZM746.021 488.372H743.302V491.31H746.021V488.372ZM784.076 488.372H786.794V491.31H784.076V488.372ZM827.568 488.372H824.85V491.31H827.568V488.372ZM865.623 488.372H868.341V491.31H865.623V488.372ZM909.115 488.372H906.397V491.31H909.115V488.372ZM947.17 488.372H949.888V491.31H947.17V488.372ZM990.662 488.372H987.943V491.31H990.662V488.372ZM1028.72 488.372H1031.44V491.31H1028.72V488.372ZM1072.21 488.372H1069.49V491.31H1072.21V488.372ZM1110.26 488.372H1112.98V491.31H1110.26V488.372ZM1153.76 488.372H1151.04V491.31H1153.76V488.372ZM1191.81 488.372H1194.53V491.31H1191.81V488.372ZM-314.09 533.929H-316.809V536.867H-314.09V533.929ZM-276.035 533.929H-273.317V536.867H-276.035V533.929ZM-232.543 533.929H-235.261V536.867H-232.543V533.929ZM-194.488 533.929H-191.77V536.867H-194.488V533.929ZM-150.996 533.929H-153.715V536.867H-150.996V533.929ZM-112.941 533.929H-110.223V536.867H-112.941V533.929ZM-69.4493 533.929H-72.1676V536.867H-69.4493V533.929ZM-31.3941 533.929H-28.6759V536.867H-31.3941V533.929ZM12.0975 533.929H9.37927V536.867H12.0975V533.929ZM50.1528 533.929H52.8711V536.867H50.1528V533.929ZM93.6446 533.929H90.9264V536.867H93.6446V533.929ZM131.7 533.929H134.418V536.867H131.7V533.929ZM175.191 533.929H172.473V536.867H175.191V533.929ZM213.247 533.929H215.965V536.867H213.247V533.929ZM256.739 533.929H254.02V536.867H256.739V533.929ZM294.794 533.929H297.512V536.867H294.794V533.929ZM338.285 533.929H335.567V536.867H338.285V533.929ZM376.341 533.929H379.059V536.867H376.341V533.929ZM419.832 533.929H417.114V536.867H419.832V533.929ZM457.888 533.929H460.606V536.867H457.888V533.929ZM501.379 533.929H498.661V536.867H501.379V533.929ZM539.435 533.929H542.153V536.867H539.435V533.929ZM582.927 533.929H580.209V536.867H582.927V533.929ZM620.982 533.929H623.7V536.867H620.982V533.929ZM664.474 533.929H661.755V536.867H664.474V533.929ZM702.529 533.929H705.247V536.867H702.529V533.929ZM746.021 533.929H743.302V536.867H746.021V533.929ZM784.076 533.929H786.794V536.867H784.076V533.929ZM827.568 533.929H824.85V536.867H827.568V533.929ZM865.623 533.929H868.341V536.867H865.623V533.929ZM909.115 533.929H906.397V536.867H909.115V533.929ZM947.17 533.929H949.888V536.867H947.17V533.929ZM990.662 533.929H987.943V536.867H990.662V533.929ZM1028.72 533.929H1031.44V536.867H1028.72V533.929ZM1072.21 533.929H1069.49V536.867H1072.21V533.929ZM1110.26 533.929H1112.98V536.867H1110.26V533.929ZM1153.76 533.929H1151.04V536.867H1153.76V533.929ZM1191.81 533.929H1194.53V536.867H1191.81V533.929ZM-314.09 579.486H-316.809V582.424H-314.09V579.486ZM-276.035 579.486H-273.317V582.424H-276.035V579.486ZM-232.543 579.486H-235.261V582.424H-232.543V579.486ZM-194.488 579.486H-191.77V582.424H-194.488V579.486ZM-150.996 579.486H-153.715V582.424H-150.996V579.486ZM-112.941 579.486H-110.223V582.424H-112.941V579.486ZM-69.4493 579.486H-72.1676V582.424H-69.4493V579.486ZM-31.3941 579.486H-28.6759V582.424H-31.3941V579.486ZM12.0975 579.486H9.37927V582.424H12.0975V579.486ZM50.1528 579.486H52.8711V582.424H50.1528V579.486ZM93.6446 579.486H90.9264V582.424H93.6446V579.486ZM131.7 579.486H134.418V582.424H131.7V579.486ZM175.191 579.486H172.473V582.424H175.191V579.486ZM213.247 579.486H215.965V582.424H213.247V579.486ZM256.739 579.486H254.02V582.424H256.739V579.486ZM294.794 579.486H297.512V582.424H294.794V579.486ZM338.285 579.486H335.567V582.424H338.285V579.486ZM376.341 579.486H379.059V582.424H376.341V579.486ZM419.832 579.486H417.114V582.424H419.832V579.486ZM457.888 579.486H460.606V582.424H457.888V579.486ZM501.379 579.486H498.661V582.424H501.379V579.486ZM539.435 579.486H542.153V582.424H539.435V579.486ZM582.927 579.486H580.209V582.424H582.927V579.486ZM620.982 579.486H623.7V582.424H620.982V579.486ZM664.474 579.486H661.755V582.424H664.474V579.486ZM702.529 579.486H705.247V582.424H702.529V579.486ZM746.021 579.486H743.302V582.424H746.021V579.486ZM784.076 579.486H786.794V582.424H784.076V579.486ZM827.568 579.486H824.85V582.424H827.568V579.486ZM865.623 579.486H868.341V582.424H865.623V579.486ZM909.115 579.486H906.397V582.424H909.115V579.486ZM947.17 579.486H949.888V582.424H947.17V579.486ZM990.662 579.486H987.943V582.424H990.662V579.486ZM1028.72 579.486H1031.44V582.424H1028.72V579.486ZM1072.21 579.486H1069.49V582.424H1072.21V579.486ZM1110.26 579.486H1112.98V582.424H1110.26V579.486ZM1153.76 579.486H1151.04V582.424H1153.76V579.486ZM1191.81 579.486H1194.53V582.424H1191.81V579.486ZM-314.09 625.043H-316.809V627.981H-314.09V625.043ZM-276.035 625.043H-273.317V627.981H-276.035V625.043ZM-232.543 625.043H-235.261V627.981H-232.543V625.043ZM-194.488 625.043H-191.77V627.981H-194.488V625.043ZM-150.996 625.043H-153.715V627.981H-150.996V625.043ZM-112.941 625.043H-110.223V627.981H-112.941V625.043ZM-69.4493 625.043H-72.1676V627.981H-69.4493V625.043ZM-31.3941 625.043H-28.6759V627.981H-31.3941V625.043ZM12.0975 625.043H9.37927V627.981H12.0975V625.043ZM50.1528 625.043H52.8711V627.981H50.1528V625.043ZM93.6446 625.043H90.9264V627.981H93.6446V625.043ZM131.7 625.043H134.418V627.981H131.7V625.043ZM175.191 625.043H172.473V627.981H175.191V625.043ZM213.247 625.043H215.965V627.981H213.247V625.043ZM256.739 625.043H254.02V627.981H256.739V625.043ZM294.794 625.043H297.512V627.981H294.794V625.043ZM338.285 625.043H335.567V627.981H338.285V625.043ZM376.341 625.043H379.059V627.981H376.341V625.043ZM419.832 625.043H417.114V627.981H419.832V625.043ZM457.888 625.043H460.606V627.981H457.888V625.043ZM501.379 625.043H498.661V627.981H501.379V625.043ZM539.435 625.043H542.153V627.981H539.435V625.043ZM582.927 625.043H580.209V627.981H582.927V625.043ZM620.982 625.043H623.7V627.981H620.982V625.043ZM664.474 625.043H661.755V627.981H664.474V625.043ZM702.529 625.043H705.247V627.981H702.529V625.043ZM746.021 625.043H743.302V627.981H746.021V625.043ZM784.076 625.043H786.794V627.981H784.076V625.043ZM827.568 625.043H824.85V627.981H827.568V625.043ZM865.623 625.043H868.341V627.981H865.623V625.043ZM909.115 625.043H906.397V627.981H909.115V625.043ZM947.17 625.043H949.888V627.981H947.17V625.043ZM990.662 625.043H987.943V627.981H990.662V625.043ZM1028.72 625.043H1031.44V627.981H1028.72V625.043ZM1072.21 625.043H1069.49V627.981H1072.21V625.043ZM1110.26 625.043H1112.98V627.981H1110.26V625.043ZM1153.76 625.043H1151.04V627.981H1153.76V625.043ZM1191.81 625.043H1194.53V627.981H1191.81V625.043ZM-314.09 670.601H-316.809V673.539H-314.09V670.601ZM-276.035 670.6H-273.317V673.538H-276.035V670.6ZM-232.543 670.6H-235.261V673.538H-232.543V670.6ZM-194.488 670.6H-191.77V673.538H-194.488V670.6ZM-150.996 670.6H-153.715V673.538H-150.996V670.6ZM-112.941 670.6H-110.223V673.538H-112.941V670.6ZM-69.4493 670.6H-72.1676V673.538H-69.4493V670.6ZM-31.3941 670.6H-28.6759V673.538H-31.3941V670.6ZM12.0975 670.6H9.37927V673.538H12.0975V670.6ZM50.1528 670.6H52.8711V673.538H50.1528V670.6ZM93.6446 670.6H90.9264V673.538H93.6446V670.6ZM131.7 670.6H134.418V673.538H131.7V670.6ZM175.191 670.6H172.473V673.538H175.191V670.6ZM213.247 670.6H215.965V673.538H213.247V670.6ZM256.739 670.6H254.02V673.538H256.739V670.6ZM294.794 670.6H297.512V673.538H294.794V670.6ZM338.285 670.6H335.567V673.538H338.285V670.6ZM376.341 670.6H379.059V673.538H376.341V670.6ZM419.832 670.6H417.114V673.538H419.832V670.6ZM457.888 670.6H460.606V673.538H457.888V670.6ZM501.379 670.6H498.661V673.538H501.379V670.6ZM539.435 670.601H542.153V673.539H539.435V670.601ZM582.927 670.601H580.209V673.539H582.927V670.601ZM620.982 670.601H623.7V673.539H620.982V670.601ZM664.474 670.601H661.755V673.539H664.474V670.601ZM702.529 670.601H705.247V673.539H702.529V670.601ZM746.021 670.601H743.302V673.539H746.021V670.601ZM784.076 670.601H786.794V673.539H784.076V670.601ZM827.568 670.601H824.85V673.539H827.568V670.601ZM865.623 670.601H868.341V673.539H865.623V670.601ZM909.115 670.601H906.397V673.539H909.115V670.601ZM947.17 670.601H949.888V673.539H947.17V670.601ZM990.662 670.601H987.943V673.539H990.662V670.601ZM1028.72 670.601H1031.44V673.539H1028.72V670.601ZM1072.21 670.601H1069.49V673.539H1072.21V670.601ZM1110.26 670.601H1112.98V673.539H1110.26V670.601ZM1153.76 670.601H1151.04V673.539H1153.76V670.601ZM1191.81 670.601H1194.53V673.539H1191.81V670.601Z" fill="url(#paint0_radial_4032_59571)"/>
<defs>
<radialGradient id="paint0_radial_4032_59571" cx="0" cy="0" r="1" gradientUnits="userSpaceOnUse" gradientTransform="translate(1079.27 208.803) rotate(115.52) scale(338.885 641.78)">
<stop offset="0.302083" stop-color="#FF6D00"/>
<stop offset="1" stop-color="#FF6D00" stop-opacity="0"/>
</radialGradient>
</defs>
</svg>
