<svg width="561" height="403" viewBox="0 0 561 403" fill="none" xmlns="http://www.w3.org/2000/svg">
<path fill-rule="evenodd" clip-rule="evenodd" d="M-199.057 553.15H-201.039V551.009H-199.057V553.15ZM-228.782 553.15H-230.764V551.008H-228.782V553.15ZM-171.314 553.15H-169.333V551.008H-171.314V553.15ZM-139.608 553.15H-141.59V551.008H-139.608V553.15ZM-111.865 553.15H-109.884V551.008H-111.865V553.15ZM-80.1589 553.15H-82.1405V551.008H-80.1589V553.15ZM-52.416 553.15H-50.4343V551.008H-52.416V553.15ZM-20.7097 553.15H-22.6914V551.008H-20.7097V553.15ZM7.0331 553.15H9.01474V551.008H7.0331V553.15ZM38.7394 553.15H36.7577V551.008H38.7394V553.15ZM66.4823 553.15H68.4639V551.008H66.4823V553.15ZM98.1885 553.15H96.2068V551.008H98.1885V553.15ZM125.931 553.15H127.913V551.008H125.931V553.15ZM157.638 553.15H155.656V551.008H157.638V553.15ZM185.381 553.15H187.362V551.008H185.381V553.15ZM217.087 553.15H215.105V551.008H217.087V553.15ZM244.83 553.15H246.812V551.008H244.83V553.15ZM276.536 553.15H274.555V551.008H276.536V553.15ZM304.279 553.15H306.261V551.008H304.279V553.15ZM335.985 553.15H334.004V551.008H335.985V553.15ZM363.728 553.15H365.71V551.008H363.728V553.15ZM395.435 553.15H393.453V551.008H395.435V553.15ZM423.178 553.15H425.159V551.008H423.178V553.15ZM454.884 553.15H452.902V551.008H454.884V553.15ZM482.627 553.15H484.609V551.008H482.627V553.15ZM514.333 553.15H512.352V551.008H514.333V553.15ZM542.076 553.15H544.058V551.008H542.076V553.15ZM573.782 553.15H571.801V551.008H573.782V553.15ZM601.525 553.15H603.507V551.008H601.525V553.15ZM633.232 553.15H631.25V551.008H633.232V553.15ZM660.975 553.15H662.956V551.008H660.975V553.15ZM692.681 553.15H690.699V551.008H692.681V553.15ZM720.424 553.15H722.405V551.008H720.424V553.15ZM752.13 553.15H750.149V551.008H752.13V553.15ZM779.873 553.15H781.855V551.008H779.873V553.15ZM811.579 553.15H809.598V551.008H811.579V553.15ZM839.322 553.15H841.304V551.008H839.322V553.15ZM871.029 553.15H869.047V551.008H871.029V553.15ZM-228.782 519.938H-230.764V517.796H-228.782V519.938ZM-199.057 519.938H-201.039V517.796H-199.057V519.938ZM-171.314 519.938H-169.333V517.796H-171.314V519.938ZM-139.608 519.938H-141.59V517.796H-139.608V519.938ZM-111.865 519.938H-109.883V517.796H-111.865V519.938ZM-80.1588 519.938H-82.1404V517.796H-80.1588V519.938ZM-52.4159 519.938H-50.4342V517.796H-52.4159V519.938ZM-20.7097 519.938H-22.6913V517.796H-20.7097V519.938ZM7.03325 519.938H9.01489V517.796H7.03325V519.938ZM38.7395 519.938H36.7579V517.796H38.7395V519.938ZM66.4825 519.938H68.4641V517.796H66.4825V519.938ZM98.1887 519.938H96.2071V517.796H98.1887V519.938ZM125.932 519.938H127.913V517.796H125.932V519.938ZM157.638 519.938H155.656V517.796H157.638V519.938ZM185.381 519.938H187.363V517.796H185.381V519.938ZM217.087 519.938H215.105V517.796H217.087V519.938ZM244.83 519.938H246.812V517.796H244.83V519.938ZM276.536 519.938H274.555V517.796H276.536V519.938ZM304.279 519.938H306.261V517.796H304.279V519.938ZM335.986 519.938H334.004V517.796H335.986V519.938ZM363.729 519.938H365.71V517.796H363.729V519.938ZM395.435 519.938H393.453V517.796H395.435V519.938ZM423.178 519.938H425.159V517.796H423.178V519.938ZM454.884 519.938H452.903V517.796H454.884V519.938ZM482.627 519.938H484.609V517.796H482.627V519.938ZM514.333 519.938H512.352V517.796H514.333V519.938ZM542.076 519.938H544.058V517.796H542.076V519.938ZM573.783 519.938H571.801V517.796H573.783V519.938ZM601.526 519.938H603.507V517.796H601.526V519.938ZM633.232 519.938H631.25V517.796H633.232V519.938ZM660.975 519.938H662.956V517.796H660.975V519.938ZM692.681 519.938H690.699V517.796H692.681V519.938ZM720.424 519.938H722.406V517.796H720.424V519.938ZM752.13 519.938H750.149V517.796H752.13V519.938ZM779.873 519.938H781.855V517.796H779.873V519.938ZM811.58 519.938H809.598V517.796H811.58V519.938ZM839.322 519.938H841.304V517.796H839.322V519.938ZM871.029 519.938H869.047V517.796H871.029V519.938ZM-230.763 486.726H-228.782V484.584H-230.763V486.726ZM-199.057 486.726H-201.039V484.584H-199.057V486.726ZM-171.314 486.726H-169.333V484.584H-171.314V486.726ZM-139.608 486.726H-141.59V484.584H-139.608V486.726ZM-111.865 486.726H-109.883V484.584H-111.865V486.726ZM-80.1588 486.726H-82.1404V484.584H-80.1588V486.726ZM-52.4159 486.726H-50.4342V484.584H-52.4159V486.726ZM-20.7097 486.726H-22.6913V484.584H-20.7097V486.726ZM7.03325 486.726H9.01489V484.584H7.03325V486.726ZM38.7395 486.726H36.7579V484.584H38.7395V486.726ZM66.4825 486.726H68.4641V484.584H66.4825V486.726ZM98.1887 486.726H96.2071V484.584H98.1887V486.726ZM125.932 486.726H127.913V484.584H125.932V486.726ZM157.638 486.726H155.656V484.584H157.638V486.726ZM185.381 486.726H187.363V484.584H185.381V486.726ZM217.087 486.726H215.105V484.584H217.087V486.726ZM244.83 486.726H246.812V484.584H244.83V486.726ZM276.536 486.726H274.555V484.584H276.536V486.726ZM304.279 486.726H306.261V484.584H304.279V486.726ZM335.986 486.726H334.004V484.584H335.986V486.726ZM363.729 486.726H365.71V484.584H363.729V486.726ZM395.435 486.726H393.453V484.584H395.435V486.726ZM423.178 486.726H425.159V484.584H423.178V486.726ZM454.884 486.726H452.903V484.584H454.884V486.726ZM482.627 486.726H484.609V484.584H482.627V486.726ZM514.333 486.726H512.352V484.584H514.333V486.726ZM542.076 486.726H544.058V484.584H542.076V486.726ZM573.783 486.726H571.801V484.584H573.783V486.726ZM601.526 486.726H603.507V484.584H601.526V486.726ZM633.232 486.726H631.25V484.584H633.232V486.726ZM660.975 486.726H662.956V484.584H660.975V486.726ZM692.681 486.726H690.699V484.584H692.681V486.726ZM720.424 486.726H722.406V484.584H720.424V486.726ZM752.13 486.726H750.149V484.584H752.13V486.726ZM779.873 486.726H781.855V484.584H779.873V486.726ZM811.58 486.726H809.598V484.584H811.58V486.726ZM839.322 486.726H841.304V484.584H839.322V486.726ZM871.029 486.726H869.047V484.584H871.029V486.726ZM-201.039 453.514H-199.057V451.372H-201.039V453.514ZM-230.764 453.514H-228.782V451.372H-230.764V453.514ZM-169.333 453.514H-171.314V451.372H-169.333V453.514ZM-141.59 453.514H-139.608V451.372H-141.59V453.514ZM-109.884 453.514H-111.865V451.372H-109.884V453.514ZM-82.1407 453.514H-80.159V451.372H-82.1407V453.514ZM-50.4345 453.514H-52.4161V451.372H-50.4345V453.514ZM-22.6916 453.514H-20.7099V451.372H-22.6916V453.514ZM9.01465 453.514H7.033V451.372H9.01465V453.514ZM36.7577 453.514H38.7393V451.372H36.7577V453.514ZM68.464 453.514H66.4823V451.372H68.464V453.514ZM96.2069 453.514H98.1885V451.372H96.2069V453.514ZM127.913 453.514H125.931V451.372H127.913V453.514ZM155.656 453.514H157.638V451.372H155.656V453.514ZM187.362 453.514H185.381V451.372H187.362V453.514ZM215.105 453.514H217.087V451.372H215.105V453.514ZM246.811 453.514H244.83V451.372H246.811V453.514ZM274.554 453.514H276.536V451.372H274.554V453.514ZM306.261 453.514H304.279V451.372H306.261V453.514ZM334.004 453.514H335.985V451.372H334.004V453.514ZM365.71 453.514H363.728V451.372H365.71V453.514ZM393.453 453.514H395.435V451.372H393.453V453.514ZM425.159 453.514H423.178V451.372H425.159V453.514ZM452.902 453.514H454.884V451.372H452.902V453.514ZM484.608 453.514H482.627V451.372H484.608V453.514ZM512.352 453.514H514.333V451.372H512.352V453.514ZM544.058 453.514H542.076V451.372H544.058V453.514ZM571.801 453.514H573.782V451.372H571.801V453.514ZM603.507 453.514H601.525V451.372H603.507V453.514ZM631.25 453.514H633.232V451.372H631.25V453.514ZM662.956 453.514H660.975V451.372H662.956V453.514ZM690.699 453.514H692.681V451.372H690.699V453.514ZM722.405 453.514H720.424V451.372H722.405V453.514ZM750.148 453.514H752.13V451.372H750.148V453.514ZM781.855 453.514H779.873V451.372H781.855V453.514ZM809.598 453.514H811.579V451.372H809.598V453.514ZM841.304 453.514H839.322V451.372H841.304V453.514ZM869.047 453.514H871.029V451.372H869.047V453.514ZM-228.782 420.302H-230.764V418.161H-228.782V420.302ZM-201.039 420.302H-199.057V418.161H-201.039V420.302ZM-169.333 420.302H-171.314V418.161H-169.333V420.302ZM-141.59 420.302H-139.608V418.161H-141.59V420.302ZM-109.884 420.302H-111.865V418.161H-109.884V420.302ZM-82.1407 420.302H-80.159V418.161H-82.1407V420.302ZM-50.4345 420.302H-52.4161V418.161H-50.4345V420.302ZM-22.6916 420.302H-20.7099V418.161H-22.6916V420.302ZM9.01465 420.302H7.033V418.161H9.01465V420.302ZM36.7577 420.302H38.7393V418.161H36.7577V420.302ZM68.464 420.302H66.4823V418.161H68.464V420.302ZM96.2069 420.302H98.1885V418.161H96.2069V420.302ZM127.913 420.302H125.931V418.161H127.913V420.302ZM155.656 420.302H157.638V418.161H155.656V420.302ZM187.362 420.302H185.381V418.161H187.362V420.302ZM215.105 420.302H217.087V418.161H215.105V420.302ZM246.811 420.302H244.83V418.161H246.811V420.302ZM274.554 420.302H276.536V418.161H274.554V420.302ZM306.261 420.302H304.279V418.161H306.261V420.302ZM334.004 420.302H335.985V418.161H334.004V420.302ZM365.71 420.302H363.728V418.161H365.71V420.302ZM393.453 420.302H395.435V418.161H393.453V420.302ZM425.159 420.302H423.178V418.161H425.159V420.302ZM452.902 420.302H454.884V418.161H452.902V420.302ZM484.608 420.302H482.627V418.161H484.608V420.302ZM512.352 420.302H514.333V418.161H512.352V420.302ZM544.058 420.302H542.076V418.161H544.058V420.302ZM571.801 420.302H573.782V418.161H571.801V420.302ZM603.507 420.302H601.525V418.161H603.507V420.302ZM631.25 420.302H633.232V418.161H631.25V420.302ZM662.956 420.302H660.975V418.161H662.956V420.302ZM690.699 420.302H692.681V418.161H690.699V420.302ZM722.405 420.302H720.424V418.161H722.405V420.302ZM750.148 420.302H752.13V418.161H750.148V420.302ZM781.855 420.302H779.873V418.161H781.855V420.302ZM809.598 420.302H811.579V418.161H809.598V420.302ZM841.304 420.302H839.322V418.161H841.304V420.302ZM869.047 420.302H871.029V418.161H869.047V420.302ZM-228.782 387.09H-230.764V384.949H-228.782V387.09ZM-201.039 387.09H-199.057V384.949H-201.039V387.09ZM-169.333 387.09H-171.314V384.949H-169.333V387.09ZM-141.59 387.09H-139.608V384.949H-141.59V387.09ZM-109.884 387.09H-111.865V384.949H-109.884V387.09ZM-82.1407 387.09H-80.159V384.949H-82.1407V387.09ZM-50.4345 387.09H-52.4161V384.949H-50.4345V387.09ZM-22.6916 387.09H-20.7099V384.949H-22.6916V387.09ZM9.01465 387.09H7.033V384.949H9.01465V387.09ZM36.7577 387.09H38.7393V384.949H36.7577V387.09ZM68.464 387.09H66.4823V384.949H68.464V387.09ZM96.2069 387.09H98.1885V384.949H96.2069V387.09ZM127.913 387.09H125.931V384.949H127.913V387.09ZM155.656 387.09H157.638V384.949H155.656V387.09ZM187.362 387.09H185.381V384.949H187.362V387.09ZM215.105 387.09H217.087V384.949H215.105V387.09ZM246.811 387.09H244.83V384.949H246.811V387.09ZM274.554 387.09H276.536V384.949H274.554V387.09ZM306.261 387.09H304.279V384.949H306.261V387.09ZM334.004 387.09H335.985V384.949H334.004V387.09ZM365.71 387.09H363.728V384.949H365.71V387.09ZM393.453 387.09H395.435V384.949H393.453V387.09ZM425.159 387.09H423.178V384.949H425.159V387.09ZM452.902 387.09H454.884V384.949H452.902V387.09ZM484.608 387.09H482.627V384.949H484.608V387.09ZM512.352 387.09H514.333V384.949H512.352V387.09ZM544.058 387.09H542.076V384.949H544.058V387.09ZM571.801 387.09H573.782V384.949H571.801V387.09ZM603.507 387.09H601.525V384.949H603.507V387.09ZM631.25 387.09H633.232V384.949H631.25V387.09ZM662.956 387.09H660.975V384.949H662.956V387.09ZM690.699 387.09H692.681V384.949H690.699V387.09ZM722.405 387.09H720.424V384.949H722.405V387.09ZM750.148 387.09H752.13V384.949H750.148V387.09ZM781.855 387.09H779.873V384.949H781.855V387.09ZM809.598 387.09H811.579V384.949H809.598V387.09ZM841.304 387.09H839.322V384.949H841.304V387.09ZM869.047 387.09H871.029V384.949H869.047V387.09ZM-228.782 353.879H-230.764V351.737H-228.782V353.879ZM-201.039 353.879H-199.057V351.737H-201.039V353.879ZM-169.333 353.879H-171.314V351.737H-169.333V353.879ZM-141.59 353.879H-139.608V351.737H-141.59V353.879ZM-109.884 353.879H-111.865V351.737H-109.884V353.879ZM-82.1407 353.879H-80.159V351.737H-82.1407V353.879ZM-50.4345 353.879H-52.4161V351.737H-50.4345V353.879ZM-22.6916 353.879H-20.7099V351.737H-22.6916V353.879ZM9.01465 353.879H7.033V351.737H9.01465V353.879ZM36.7577 353.879H38.7393V351.737H36.7577V353.879ZM68.464 353.879H66.4823V351.737H68.464V353.879ZM96.2069 353.879H98.1885V351.737H96.2069V353.879ZM127.913 353.879H125.931V351.737H127.913V353.879ZM155.656 353.879H157.638V351.737H155.656V353.879ZM187.362 353.879H185.381V351.737H187.362V353.879ZM215.105 353.879H217.087V351.737H215.105V353.879ZM246.811 353.879H244.83V351.737H246.811V353.879ZM274.554 353.879H276.536V351.737H274.554V353.879ZM306.261 353.879H304.279V351.737H306.261V353.879ZM334.004 353.879H335.985V351.737H334.004V353.879ZM365.71 353.879H363.728V351.737H365.71V353.879ZM393.453 353.879H395.435V351.737H393.453V353.879ZM425.159 353.879H423.178V351.737H425.159V353.879ZM452.902 353.879H454.884V351.737H452.902V353.879ZM484.608 353.879H482.627V351.737H484.608V353.879ZM512.352 353.879H514.333V351.737H512.352V353.879ZM544.058 353.879H542.076V351.737H544.058V353.879ZM571.801 353.879H573.782V351.737H571.801V353.879ZM603.507 353.879H601.525V351.737H603.507V353.879ZM631.25 353.879H633.232V351.737H631.25V353.879ZM662.956 353.879H660.975V351.737H662.956V353.879ZM690.699 353.879H692.681V351.737H690.699V353.879ZM722.405 353.879H720.424V351.737H722.405V353.879ZM750.148 353.879H752.13V351.737H750.148V353.879ZM781.855 353.879H779.873V351.737H781.855V353.879ZM809.598 353.879H811.579V351.737H809.598V353.879ZM841.304 353.879H839.322V351.737H841.304V353.879ZM869.047 353.879H871.029V351.737H869.047V353.879ZM-199.057 320.667H-201.039V318.525H-199.057V320.667ZM-228.782 320.666H-230.764V318.525H-228.782V320.666ZM-171.314 320.667H-169.333V318.525H-171.314V320.667ZM-139.608 320.667H-141.59V318.525H-139.608V320.667ZM-111.865 320.667H-109.883V318.525H-111.865V320.667ZM-80.1588 320.667H-82.1405V318.525H-80.1588V320.667ZM-52.4159 320.667H-50.4343V318.525H-52.4159V320.667ZM-20.7097 320.667H-22.6914V318.525H-20.7097V320.667ZM7.03317 320.667H9.01482V318.525H7.03317V320.667ZM38.7395 320.667H36.7579V318.525H38.7395V320.667ZM66.4825 320.667H68.4641V318.525H66.4825V320.667ZM98.1887 320.667H96.2071V318.525H98.1887V320.667ZM125.932 320.667H127.913V318.525H125.932V320.667ZM157.638 320.667H155.656V318.525H157.638V320.667ZM185.381 320.667H187.363V318.525H185.381V320.667ZM217.087 320.667H215.105V318.525H217.087V320.667ZM244.83 320.667H246.812V318.525H244.83V320.667ZM276.536 320.667H274.555V318.525H276.536V320.667ZM304.279 320.667H306.261V318.525H304.279V320.667ZM335.985 320.667H334.004V318.525H335.985V320.667ZM363.728 320.667H365.71V318.525H363.728V320.667ZM395.435 320.667H393.453V318.525H395.435V320.667ZM423.178 320.667H425.159V318.525H423.178V320.667ZM454.884 320.667H452.902V318.525H454.884V320.667ZM482.627 320.667H484.609V318.525H482.627V320.667ZM514.333 320.667H512.352V318.525H514.333V320.667ZM542.076 320.667H544.058V318.525H542.076V320.667ZM573.782 320.667H571.801V318.525H573.782V320.667ZM601.525 320.667H603.507V318.525H601.525V320.667ZM633.232 320.667H631.25V318.525H633.232V320.667ZM660.975 320.667H662.956V318.525H660.975V320.667ZM692.681 320.667H690.699V318.525H692.681V320.667ZM720.424 320.667H722.405V318.525H720.424V320.667ZM752.13 320.667H750.149V318.525H752.13V320.667ZM779.873 320.667H781.855V318.525H779.873V320.667ZM811.579 320.667H809.598V318.525H811.579V320.667ZM839.322 320.667H841.304V318.525H839.322V320.667ZM871.029 320.667H869.047V318.525H871.029V320.667ZM-230.763 287.455H-228.782V285.313H-230.763V287.455ZM-199.057 287.455H-201.039V285.313H-199.057V287.455ZM-171.314 287.455H-169.333V285.313H-171.314V287.455ZM-139.608 287.455H-141.59V285.313H-139.608V287.455ZM-111.865 287.455H-109.883V285.313H-111.865V287.455ZM-80.1588 287.455H-82.1405V285.313H-80.1588V287.455ZM-52.4159 287.455H-50.4343V285.313H-52.4159V287.455ZM-20.7097 287.455H-22.6914V285.313H-20.7097V287.455ZM7.03317 287.455H9.01482V285.313H7.03317V287.455ZM38.7395 287.455H36.7579V285.313H38.7395V287.455ZM66.4825 287.455H68.4641V285.313H66.4825V287.455ZM98.1887 287.455H96.2071V285.313H98.1887V287.455ZM125.932 287.455H127.913V285.313H125.932V287.455ZM157.638 287.455H155.656V285.313H157.638V287.455ZM185.381 287.455H187.363V285.313H185.381V287.455ZM217.087 287.455H215.105V285.313H217.087V287.455ZM244.83 287.455H246.812V285.313H244.83V287.455ZM276.536 287.455H274.555V285.313H276.536V287.455ZM304.279 287.455H306.261V285.313H304.279V287.455ZM335.985 287.455H334.004V285.313H335.985V287.455ZM363.728 287.455H365.71V285.313H363.728V287.455ZM395.435 287.455H393.453V285.313H395.435V287.455ZM423.178 287.455H425.159V285.313H423.178V287.455ZM454.884 287.455H452.902V285.313H454.884V287.455ZM482.627 287.455H484.609V285.313H482.627V287.455ZM514.333 287.455H512.352V285.313H514.333V287.455ZM542.076 287.455H544.058V285.313H542.076V287.455ZM573.782 287.455H571.801V285.313H573.782V287.455ZM601.525 287.455H603.507V285.313H601.525V287.455ZM633.232 287.455H631.25V285.313H633.232V287.455ZM660.975 287.455H662.956V285.313H660.975V287.455ZM692.681 287.455H690.699V285.313H692.681V287.455ZM720.424 287.455H722.405V285.313H720.424V287.455ZM752.13 287.455H750.149V285.313H752.13V287.455ZM779.873 287.455H781.855V285.313H779.873V287.455ZM811.579 287.455H809.598V285.313H811.579V287.455ZM839.322 287.455H841.304V285.313H839.322V287.455ZM871.029 287.455H869.047V285.313H871.029V287.455ZM-230.763 254.243H-228.782V252.101H-230.763V254.243ZM-199.057 254.243H-201.039V252.101H-199.057V254.243ZM-171.314 254.243H-169.333V252.101H-171.314V254.243ZM-139.608 254.243H-141.59V252.101H-139.608V254.243ZM-111.865 254.243H-109.883V252.101H-111.865V254.243ZM-80.1588 254.243H-82.1405V252.101H-80.1588V254.243ZM-52.4159 254.243H-50.4343V252.101H-52.4159V254.243ZM-20.7097 254.243H-22.6914V252.101H-20.7097V254.243ZM7.03317 254.243H9.01482V252.101H7.03317V254.243ZM38.7395 254.243H36.7579V252.101H38.7395V254.243ZM66.4825 254.243H68.4641V252.101H66.4825V254.243ZM98.1887 254.243H96.2071V252.101H98.1887V254.243ZM125.932 254.243H127.913V252.101H125.932V254.243ZM157.638 254.243H155.656V252.101H157.638V254.243ZM185.381 254.243H187.363V252.101H185.381V254.243ZM217.087 254.243H215.105V252.101H217.087V254.243ZM244.83 254.243H246.812V252.101H244.83V254.243ZM276.536 254.243H274.555V252.101H276.536V254.243ZM304.279 254.243H306.261V252.101H304.279V254.243ZM335.985 254.243H334.004V252.101H335.985V254.243ZM363.728 254.243H365.71V252.101H363.728V254.243ZM395.435 254.243H393.453V252.101H395.435V254.243ZM423.178 254.243H425.159V252.101H423.178V254.243ZM454.884 254.243H452.902V252.101H454.884V254.243ZM482.627 254.243H484.609V252.101H482.627V254.243ZM514.333 254.243H512.352V252.101H514.333V254.243ZM542.076 254.243H544.058V252.101H542.076V254.243ZM573.782 254.243H571.801V252.101H573.782V254.243ZM601.525 254.243H603.507V252.101H601.525V254.243ZM633.232 254.243H631.25V252.101H633.232V254.243ZM660.975 254.243H662.956V252.101H660.975V254.243ZM692.681 254.243H690.699V252.101H692.681V254.243ZM720.424 254.243H722.405V252.101H720.424V254.243ZM752.13 254.243H750.149V252.101H752.13V254.243ZM779.873 254.243H781.855V252.101H779.873V254.243ZM811.579 254.243H809.598V252.101H811.579V254.243ZM839.322 254.243H841.304V252.101H839.322V254.243ZM871.029 254.243H869.047V252.101H871.029V254.243ZM-230.763 221.031H-228.782V218.889H-230.763V221.031ZM-199.057 221.031H-201.039V218.889H-199.057V221.031ZM-171.314 221.031H-169.333V218.889H-171.314V221.031ZM-139.608 221.031H-141.59V218.889H-139.608V221.031ZM-111.865 221.031H-109.883V218.889H-111.865V221.031ZM-80.1588 221.031H-82.1405V218.889H-80.1588V221.031ZM-52.4159 221.031H-50.4343V218.889H-52.4159V221.031ZM-20.7097 221.031H-22.6914V218.889H-20.7097V221.031ZM7.03317 221.031H9.01482V218.889H7.03317V221.031ZM38.7395 221.031H36.7579V218.889H38.7395V221.031ZM66.4825 221.031H68.4641V218.889H66.4825V221.031ZM98.1887 221.031H96.2071V218.889H98.1887V221.031ZM125.932 221.031H127.913V218.889H125.932V221.031ZM157.638 221.031H155.656V218.889H157.638V221.031ZM185.381 221.031H187.363V218.889H185.381V221.031ZM217.087 221.031H215.105V218.889H217.087V221.031ZM244.83 221.031H246.812V218.889H244.83V221.031ZM276.536 221.031H274.555V218.889H276.536V221.031ZM304.279 221.031H306.261V218.889H304.279V221.031ZM335.985 221.031H334.004V218.889H335.985V221.031ZM363.728 221.031H365.71V218.889H363.728V221.031ZM395.435 221.031H393.453V218.889H395.435V221.031ZM423.178 221.031H425.159V218.889H423.178V221.031ZM454.884 221.031H452.902V218.889H454.884V221.031ZM482.627 221.031H484.609V218.889H482.627V221.031ZM514.333 221.031H512.352V218.889H514.333V221.031ZM542.076 221.031H544.058V218.889H542.076V221.031ZM573.782 221.031H571.801V218.889H573.782V221.031ZM601.525 221.031H603.507V218.889H601.525V221.031ZM633.232 221.031H631.25V218.889H633.232V221.031ZM660.975 221.031H662.956V218.889H660.975V221.031ZM692.681 221.031H690.699V218.889H692.681V221.031ZM720.424 221.031H722.405V218.889H720.424V221.031ZM752.13 221.031H750.149V218.889H752.13V221.031ZM779.873 221.031H781.855V218.889H779.873V221.031ZM811.579 221.031H809.598V218.889H811.579V221.031ZM839.322 221.031H841.304V218.889H839.322V221.031ZM871.029 221.031H869.047V218.889H871.029V221.031ZM-230.763 187.819H-228.782V185.678H-230.763V187.819ZM-199.057 187.819H-201.039V185.678H-199.057V187.819ZM-171.314 187.819H-169.333V185.678H-171.314V187.819ZM-139.608 187.819H-141.59V185.678H-139.608V187.819ZM-111.865 187.819H-109.883V185.678H-111.865V187.819ZM-80.1588 187.819H-82.1405V185.678H-80.1588V187.819ZM-52.4159 187.819H-50.4343V185.678H-52.4159V187.819ZM-20.7097 187.819H-22.6914V185.678H-20.7097V187.819ZM7.03317 187.819H9.01482V185.678H7.03317V187.819ZM38.7395 187.819H36.7579V185.678H38.7395V187.819ZM66.4825 187.819H68.4641V185.678H66.4825V187.819ZM98.1887 187.819H96.2071V185.678H98.1887V187.819ZM125.932 187.819H127.913V185.678H125.932V187.819ZM157.638 187.819H155.656V185.678H157.638V187.819ZM185.381 187.819H187.363V185.678H185.381V187.819ZM217.087 187.819H215.105V185.678H217.087V187.819ZM244.83 187.819H246.812V185.678H244.83V187.819ZM276.536 187.819H274.555V185.678H276.536V187.819ZM304.279 187.819H306.261V185.678H304.279V187.819ZM335.985 187.819H334.004V185.678H335.985V187.819ZM363.728 187.819H365.71V185.678H363.728V187.819ZM395.435 187.819H393.453V185.678H395.435V187.819ZM423.178 187.819H425.159V185.678H423.178V187.819ZM454.884 187.819H452.902V185.678H454.884V187.819ZM482.627 187.819H484.609V185.678H482.627V187.819ZM514.333 187.819H512.352V185.678H514.333V187.819ZM542.076 187.819H544.058V185.678H542.076V187.819ZM573.782 187.819H571.801V185.678H573.782V187.819ZM601.525 187.819H603.507V185.678H601.525V187.819ZM633.232 187.819H631.25V185.678H633.232V187.819ZM660.975 187.819H662.956V185.678H660.975V187.819ZM692.681 187.819H690.699V185.678H692.681V187.819ZM720.424 187.819H722.405V185.678H720.424V187.819ZM752.13 187.819H750.149V185.678H752.13V187.819ZM779.873 187.819H781.855V185.678H779.873V187.819ZM811.579 187.819H809.598V185.678H811.579V187.819ZM839.322 187.819H841.304V185.678H839.322V187.819ZM871.029 187.819H869.047V185.678H871.029V187.819ZM-230.763 154.608H-228.782V152.466H-230.763V154.608ZM-199.057 154.608H-201.039V152.466H-199.057V154.608ZM-171.314 154.608H-169.333V152.466H-171.314V154.608ZM-139.608 154.608H-141.59V152.466H-139.608V154.608ZM-111.865 154.608H-109.883V152.466H-111.865V154.608ZM-80.1588 154.608H-82.1405V152.466H-80.1588V154.608ZM-52.4159 154.608H-50.4343V152.466H-52.4159V154.608ZM-20.7097 154.608H-22.6914V152.466H-20.7097V154.608ZM7.03317 154.608H9.01482V152.466H7.03317V154.608ZM38.7395 154.608H36.7579V152.466H38.7395V154.608ZM66.4825 154.608H68.4641V152.466H66.4825V154.608ZM98.1887 154.608H96.2071V152.466H98.1887V154.608ZM125.932 154.608H127.913V152.466H125.932V154.608ZM157.638 154.608H155.656V152.466H157.638V154.608ZM185.381 154.608H187.363V152.466H185.381V154.608ZM217.087 154.608H215.105V152.466H217.087V154.608ZM244.83 154.608H246.812V152.466H244.83V154.608ZM276.536 154.608H274.555V152.466H276.536V154.608ZM304.279 154.608H306.261V152.466H304.279V154.608ZM335.985 154.608H334.004V152.466H335.985V154.608ZM363.728 154.608H365.71V152.466H363.728V154.608ZM395.435 154.608H393.453V152.466H395.435V154.608ZM423.178 154.608H425.159V152.466H423.178V154.608ZM454.884 154.608H452.902V152.466H454.884V154.608ZM482.627 154.608H484.609V152.466H482.627V154.608ZM514.333 154.608H512.352V152.466H514.333V154.608ZM542.076 154.608H544.058V152.466H542.076V154.608ZM573.782 154.608H571.801V152.466H573.782V154.608ZM601.525 154.608H603.507V152.466H601.525V154.608ZM633.232 154.608H631.25V152.466H633.232V154.608ZM660.975 154.608H662.956V152.466H660.975V154.608ZM692.681 154.608H690.699V152.466H692.681V154.608ZM720.424 154.608H722.405V152.466H720.424V154.608ZM752.13 154.608H750.149V152.466H752.13V154.608ZM779.873 154.608H781.855V152.466H779.873V154.608ZM811.579 154.608H809.598V152.466H811.579V154.608ZM839.322 154.608H841.304V152.466H839.322V154.608ZM871.029 154.608H869.047V152.466H871.029V154.608ZM-201.039 121.395H-199.057V119.253H-201.039V121.395ZM-230.764 121.395H-228.782V119.253H-230.764V121.395ZM-169.333 121.395H-171.314V119.253H-169.333V121.395ZM-141.59 121.395H-139.608V119.253H-141.59V121.395ZM-109.884 121.395H-111.865V119.253H-109.884V121.395ZM-82.1406 121.395H-80.159V119.253H-82.1406V121.395ZM-50.4344 121.395H-52.416V119.253H-50.4344V121.395ZM-22.6915 121.395H-20.7098V119.253H-22.6915V121.395ZM9.01471 121.395H7.03307V119.253H9.01471V121.395ZM36.7577 121.395H38.7393V119.253H36.7577V121.395ZM68.464 121.395H66.4823V119.253H68.464V121.395ZM96.207 121.395H98.1886V119.253H96.207V121.395ZM127.913 121.395H125.931V119.253H127.913V121.395ZM155.656 121.395H157.638V119.253H155.656V121.395ZM187.362 121.395H185.381V119.253H187.362V121.395ZM215.105 121.395H217.087V119.253H215.105V121.395ZM246.812 121.395H244.83V119.253H246.812V121.395ZM274.555 121.395H276.536V119.253H274.555V121.395ZM306.261 121.395H304.279V119.253H306.261V121.395ZM334.004 121.395H335.985V119.253H334.004V121.395ZM365.71 121.395H363.728V119.253H365.71V121.395ZM393.453 121.395H395.435V119.253H393.453V121.395ZM425.159 121.395H423.178V119.253H425.159V121.395ZM452.902 121.395H454.884V119.253H452.902V121.395ZM484.609 121.395H482.627V119.253H484.609V121.395ZM512.352 121.395H514.333V119.253H512.352V121.395ZM544.058 121.395H542.076V119.253H544.058V121.395ZM571.801 121.395H573.782V119.253H571.801V121.395ZM603.507 121.395H601.525V119.253H603.507V121.395ZM631.25 121.395H633.232V119.253H631.25V121.395ZM662.956 121.395H660.975V119.253H662.956V121.395ZM690.699 121.395H692.681V119.253H690.699V121.395ZM722.405 121.395H720.424V119.253H722.405V121.395ZM750.148 121.395H752.13V119.253H750.148V121.395ZM781.855 121.395H779.873V119.253H781.855V121.395ZM809.598 121.395H811.579V119.253H809.598V121.395ZM841.304 121.395H839.322V119.253H841.304V121.395ZM869.047 121.395H871.029V119.253H869.047V121.395ZM-228.782 88.1831H-230.764V86.0413H-228.782V88.1831ZM-201.039 88.1831H-199.057V86.0413H-201.039V88.1831ZM-169.333 88.1831H-171.314V86.0413H-169.333V88.1831ZM-141.59 88.1831H-139.608V86.0413H-141.59V88.1831ZM-109.884 88.1831H-111.865V86.0413H-109.884V88.1831ZM-82.1406 88.1831H-80.159V86.0413H-82.1406V88.1831ZM-50.4344 88.1831H-52.416V86.0413H-50.4344V88.1831ZM-22.6915 88.1831H-20.7098V86.0413H-22.6915V88.1831ZM9.01471 88.1831H7.03307V86.0413H9.01471V88.1831ZM36.7577 88.1831H38.7393V86.0413H36.7577V88.1831ZM68.464 88.1831H66.4823V86.0413H68.464V88.1831ZM96.207 88.1831H98.1886V86.0413H96.207V88.1831ZM127.913 88.1831H125.931V86.0413H127.913V88.1831ZM155.656 88.1831H157.638V86.0413H155.656V88.1831ZM187.362 88.1831H185.381V86.0413H187.362V88.1831ZM215.105 88.1831H217.087V86.0413H215.105V88.1831ZM246.812 88.1831H244.83V86.0413H246.812V88.1831ZM274.555 88.1831H276.536V86.0413H274.555V88.1831ZM306.261 88.1831H304.279V86.0413H306.261V88.1831ZM334.004 88.1831H335.985V86.0413H334.004V88.1831ZM365.71 88.1831H363.728V86.0413H365.71V88.1831ZM393.453 88.1831H395.435V86.0413H393.453V88.1831ZM425.159 88.1831H423.178V86.0413H425.159V88.1831ZM452.902 88.1831H454.884V86.0413H452.902V88.1831ZM484.609 88.1831H482.627V86.0413H484.609V88.1831ZM512.352 88.1831H514.333V86.0413H512.352V88.1831ZM544.058 88.1831H542.076V86.0413H544.058V88.1831ZM571.801 88.1831H573.782V86.0413H571.801V88.1831ZM603.507 88.1831H601.525V86.0413H603.507V88.1831ZM631.25 88.1831H633.232V86.0413H631.25V88.1831ZM662.956 88.1831H660.975V86.0413H662.956V88.1831ZM690.699 88.1831H692.681V86.0413H690.699V88.1831ZM722.405 88.1831H720.424V86.0413H722.405V88.1831ZM750.148 88.1831H752.13V86.0413H750.148V88.1831ZM781.855 88.1831H779.873V86.0413H781.855V88.1831ZM809.598 88.1831H811.579V86.0413H809.598V88.1831ZM841.304 88.1831H839.322V86.0413H841.304V88.1831ZM869.047 88.1831H871.029V86.0413H869.047V88.1831ZM-228.782 54.9712H-230.764V52.8293H-228.782V54.9712ZM-201.039 54.9712H-199.057V52.8293H-201.039V54.9712ZM-169.333 54.9712H-171.314V52.8293H-169.333V54.9712ZM-141.59 54.9712H-139.608V52.8293H-141.59V54.9712ZM-109.884 54.9712H-111.865V52.8293H-109.884V54.9712ZM-82.1406 54.9712H-80.159V52.8293H-82.1406V54.9712ZM-50.4344 54.9712H-52.416V52.8293H-50.4344V54.9712ZM-22.6915 54.9712H-20.7098V52.8293H-22.6915V54.9712ZM9.01471 54.9712H7.03307V52.8293H9.01471V54.9712ZM36.7577 54.9712H38.7393V52.8293H36.7577V54.9712ZM68.464 54.9712H66.4823V52.8293H68.464V54.9712ZM96.207 54.9712H98.1886V52.8293H96.207V54.9712ZM127.913 54.9712H125.931V52.8293H127.913V54.9712ZM155.656 54.9712H157.638V52.8293H155.656V54.9712ZM187.362 54.9712H185.381V52.8293H187.362V54.9712ZM215.105 54.9712H217.087V52.8293H215.105V54.9712ZM246.812 54.9712H244.83V52.8293H246.812V54.9712ZM274.555 54.9712H276.536V52.8293H274.555V54.9712ZM306.261 54.9712H304.279V52.8293H306.261V54.9712ZM334.004 54.9712H335.985V52.8293H334.004V54.9712ZM365.71 54.9712H363.728V52.8293H365.71V54.9712ZM393.453 54.9712H395.435V52.8293H393.453V54.9712ZM425.159 54.9712H423.178V52.8293H425.159V54.9712ZM452.902 54.9712H454.884V52.8293H452.902V54.9712ZM484.609 54.9712H482.627V52.8293H484.609V54.9712ZM512.352 54.9712H514.333V52.8293H512.352V54.9712ZM544.058 54.9712H542.076V52.8293H544.058V54.9712ZM571.801 54.9712H573.782V52.8293H571.801V54.9712ZM603.507 54.9712H601.525V52.8293H603.507V54.9712ZM631.25 54.9712H633.232V52.8293H631.25V54.9712ZM662.956 54.9712H660.975V52.8293H662.956V54.9712ZM690.699 54.9712H692.681V52.8293H690.699V54.9712ZM722.405 54.9712H720.424V52.8293H722.405V54.9712ZM750.148 54.9712H752.13V52.8293H750.148V54.9712ZM781.855 54.9712H779.873V52.8293H781.855V54.9712ZM809.598 54.9712H811.579V52.8293H809.598V54.9712ZM841.304 54.9712H839.322V52.8293H841.304V54.9712ZM869.047 54.9712H871.029V52.8293H869.047V54.9712ZM-228.782 21.7591H-230.764V19.6172H-228.782V21.7591ZM-201.039 21.7591H-199.057V19.6172H-201.039V21.7591ZM-169.333 21.7591H-171.314V19.6172H-169.333V21.7591ZM-141.59 21.7591H-139.608V19.6172H-141.59V21.7591ZM-109.884 21.7591H-111.865V19.6172H-109.884V21.7591ZM-82.1406 21.7591H-80.159V19.6172H-82.1406V21.7591ZM-50.4344 21.7591H-52.416V19.6172H-50.4344V21.7591ZM-22.6915 21.7591H-20.7098V19.6172H-22.6915V21.7591ZM9.01471 21.7591H7.03307V19.6172H9.01471V21.7591ZM36.7577 21.7591H38.7393V19.6172H36.7577V21.7591ZM68.464 21.7591H66.4823V19.6172H68.464V21.7591ZM96.207 21.7591H98.1886V19.6172H96.207V21.7591ZM127.913 21.7591H125.931V19.6172H127.913V21.7591ZM155.656 21.7591H157.638V19.6172H155.656V21.7591ZM187.362 21.7591H185.381V19.6172H187.362V21.7591ZM215.105 21.7591H217.087V19.6172H215.105V21.7591ZM246.812 21.7591H244.83V19.6172H246.812V21.7591ZM274.555 21.7591H276.536V19.6172H274.555V21.7591ZM306.261 21.7591H304.279V19.6172H306.261V21.7591ZM334.004 21.7591H335.985V19.6172H334.004V21.7591ZM365.71 21.7591H363.728V19.6172H365.71V21.7591ZM393.453 21.7591H395.435V19.6172H393.453V21.7591ZM425.159 21.7591H423.178V19.6172H425.159V21.7591ZM452.902 21.7591H454.884V19.6172H452.902V21.7591ZM484.609 21.7591H482.627V19.6172H484.609V21.7591ZM512.352 21.7591H514.333V19.6172H512.352V21.7591ZM544.058 21.7591H542.076V19.6172H544.058V21.7591ZM571.801 21.7591H573.782V19.6172H571.801V21.7591ZM603.507 21.7591H601.525V19.6172H603.507V21.7591ZM631.25 21.7591H633.232V19.6172H631.25V21.7591ZM662.956 21.7591H660.975V19.6172H662.956V21.7591ZM690.699 21.7591H692.681V19.6172H690.699V21.7591ZM722.405 21.7591H720.424V19.6172H722.405V21.7591ZM750.148 21.7591H752.13V19.6172H750.148V21.7591ZM781.855 21.7591H779.873V19.6172H781.855V21.7591ZM809.598 21.7591H811.579V19.6172H809.598V21.7591ZM841.304 21.7591H839.322V19.6172H841.304V21.7591ZM869.047 21.7591H871.029V19.6172H869.047V21.7591ZM-228.782 -11.4526H-230.764V-13.5945H-228.782V-11.4526ZM-201.039 -11.4526H-199.057V-13.5945H-201.039V-11.4526ZM-169.333 -11.4526H-171.314V-13.5945H-169.333V-11.4526ZM-141.59 -11.4526H-139.608V-13.5945H-141.59V-11.4526ZM-109.884 -11.4526H-111.865V-13.5945H-109.884V-11.4526ZM-82.1406 -11.4526H-80.159V-13.5945H-82.1406V-11.4526ZM-50.4344 -11.4526H-52.416V-13.5945H-50.4344V-11.4526ZM-22.6915 -11.4526H-20.7098V-13.5945H-22.6915V-11.4526ZM9.01471 -11.4526H7.03307V-13.5945H9.01471V-11.4526ZM36.7577 -11.4526H38.7393V-13.5945H36.7577V-11.4526ZM68.464 -11.4526H66.4823V-13.5945H68.464V-11.4526ZM96.207 -11.4526H98.1886V-13.5945H96.207V-11.4526ZM127.913 -11.4526H125.931V-13.5945H127.913V-11.4526ZM155.656 -11.4526H157.638V-13.5945H155.656V-11.4526ZM187.362 -11.4526H185.381V-13.5945H187.362V-11.4526ZM215.105 -11.4526H217.087V-13.5945H215.105V-11.4526ZM246.812 -11.4526H244.83V-13.5945H246.812V-11.4526ZM274.555 -11.4526H276.536V-13.5945H274.555V-11.4526ZM306.261 -11.4526H304.279V-13.5945H306.261V-11.4526ZM334.004 -11.4526H335.985V-13.5945H334.004V-11.4526ZM365.71 -11.4526H363.728V-13.5945H365.71V-11.4526ZM393.453 -11.4526H395.435V-13.5945H393.453V-11.4526ZM425.159 -11.4526H423.178V-13.5945H425.159V-11.4526ZM452.902 -11.4526H454.884V-13.5945H452.902V-11.4526ZM484.609 -11.4526H482.627V-13.5945H484.609V-11.4526ZM512.352 -11.4526H514.333V-13.5945H512.352V-11.4526ZM544.058 -11.4526H542.076V-13.5945H544.058V-11.4526ZM571.801 -11.4526H573.782V-13.5945H571.801V-11.4526ZM603.507 -11.4526H601.525V-13.5945H603.507V-11.4526ZM631.25 -11.4526H633.232V-13.5945H631.25V-11.4526ZM662.956 -11.4526H660.975V-13.5945H662.956V-11.4526ZM690.699 -11.4526H692.681V-13.5945H690.699V-11.4526ZM722.405 -11.4526H720.424V-13.5945H722.405V-11.4526ZM750.148 -11.4526H752.13V-13.5945H750.148V-11.4526ZM781.855 -11.4526H779.873V-13.5945H781.855V-11.4526ZM809.598 -11.4526H811.579V-13.5945H809.598V-11.4526ZM841.304 -11.4526H839.322V-13.5945H841.304V-11.4526ZM869.047 -11.4526H871.029V-13.5945H869.047V-11.4526ZM-228.782 -44.6649H-230.764V-46.8068H-228.782V-44.6649ZM-201.039 -44.6646H-199.057V-46.8065H-201.039V-44.6646ZM-169.333 -44.6646H-171.314V-46.8065H-169.333V-44.6646ZM-141.59 -44.6646H-139.608V-46.8065H-141.59V-44.6646ZM-109.884 -44.6646H-111.865V-46.8065H-109.884V-44.6646ZM-82.1406 -44.6646H-80.159V-46.8065H-82.1406V-44.6646ZM-50.4344 -44.6646H-52.416V-46.8065H-50.4344V-44.6646ZM-22.6915 -44.6646H-20.7098V-46.8065H-22.6915V-44.6646ZM9.01471 -44.6646H7.03307V-46.8065H9.01471V-44.6646ZM36.7577 -44.6646H38.7393V-46.8065H36.7577V-44.6646ZM68.464 -44.6646H66.4823V-46.8065H68.464V-44.6646ZM96.207 -44.6646H98.1886V-46.8065H96.207V-44.6646ZM127.913 -44.6646H125.931V-46.8065H127.913V-44.6646ZM155.656 -44.6646H157.638V-46.8065H155.656V-44.6646ZM187.362 -44.6646H185.381V-46.8065H187.362V-44.6646ZM215.105 -44.6646H217.087V-46.8065H215.105V-44.6646ZM246.812 -44.6646H244.83V-46.8065H246.812V-44.6646ZM274.555 -44.6646H276.536V-46.8065H274.555V-44.6646ZM306.261 -44.6646H304.279V-46.8065H306.261V-44.6646ZM334.004 -44.6646H335.985V-46.8065H334.004V-44.6646ZM365.71 -44.6646H363.728V-46.8065H365.71V-44.6646ZM393.453 -44.6649H395.435V-46.8068H393.453V-44.6649ZM425.159 -44.6649H423.178V-46.8068H425.159V-44.6649ZM452.902 -44.6649H454.884V-46.8068H452.902V-44.6649ZM484.609 -44.6649H482.627V-46.8068H484.609V-44.6649ZM512.352 -44.6649H514.333V-46.8068H512.352V-44.6649ZM544.058 -44.6649H542.076V-46.8068H544.058V-44.6649ZM571.801 -44.6649H573.782V-46.8068H571.801V-44.6649ZM603.507 -44.6649H601.525V-46.8068H603.507V-44.6649ZM631.25 -44.6649H633.232V-46.8068H631.25V-44.6649ZM662.956 -44.6649H660.975V-46.8068H662.956V-44.6649ZM690.699 -44.6649H692.681V-46.8068H690.699V-44.6649ZM722.405 -44.6649H720.424V-46.8068H722.405V-44.6649ZM750.148 -44.6649H752.13V-46.8068H750.148V-44.6649ZM781.855 -44.6649H779.873V-46.8068H781.855V-44.6649ZM809.598 -44.6649H811.579V-46.8068H809.598V-44.6649ZM841.304 -44.6649H839.322V-46.8068H841.304V-44.6649ZM869.047 -44.6649H871.029V-46.8068H869.047V-44.6649Z" fill="url(#paint0_radial_4032_60142)"/>
<defs>
<radialGradient id="paint0_radial_4032_60142" cx="0" cy="0" r="1" gradientUnits="userSpaceOnUse" gradientTransform="translate(787.002 291.994) rotate(-101.158) scale(330.746 780.602)">
<stop offset="0.302083"/>
<stop offset="1" stop-opacity="0"/>
</radialGradient>
</defs>
</svg>
