<svg width="754" height="252" viewBox="0 0 754 252" fill="none" xmlns="http://www.w3.org/2000/svg">
<path fill-rule="evenodd" clip-rule="evenodd" d="M-191.294 531.15H-193.275V529.009H-191.294V531.15ZM-221.018 531.15H-223V529.008H-221.018V531.15ZM-163.551 531.15H-161.569V529.008H-163.551V531.15ZM-131.845 531.15H-133.826V529.008H-131.845V531.15ZM-104.102 531.15H-102.12V529.008H-104.102V531.15ZM-72.3952 531.15H-74.3769V529.008H-72.3952V531.15ZM-44.6523 531.15H-42.6707V529.008H-44.6523V531.15ZM-12.946 531.15H-14.9277V529.008H-12.946V531.15ZM14.7968 531.15H16.7784V529.008H14.7968V531.15ZM46.5031 531.15H44.5214V529.008H46.5031V531.15ZM74.246 531.15H76.2276V529.008H74.246V531.15ZM105.952 531.15H103.971V529.008H105.952V531.15ZM133.695 531.15H135.677V529.008H133.695V531.15ZM165.401 531.15H163.42V529.008H165.401V531.15ZM193.144 531.15H195.126V529.008H193.144V531.15ZM224.851 531.15H222.869V529.008H224.851V531.15ZM252.594 531.15H254.575V529.008H252.594V531.15ZM284.3 531.15H282.318V529.008H284.3V531.15ZM312.043 531.15H314.024V529.008H312.043V531.15ZM343.749 531.15H341.767V529.008H343.749V531.15ZM371.492 531.15H373.474V529.008H371.492V531.15ZM403.198 531.15H401.217V529.008H403.198V531.15ZM430.941 531.15H432.923V529.008H430.941V531.15ZM462.648 531.15H460.666V529.008H462.648V531.15ZM490.391 531.15H492.372V529.008H490.391V531.15ZM522.097 531.15H520.115V529.008H522.097V531.15ZM549.84 531.15H551.821V529.008H549.84V531.15ZM581.546 531.15H579.564V529.008H581.546V531.15ZM609.289 531.15H611.271V529.008H609.289V531.15ZM640.995 531.15H639.014V529.008H640.995V531.15ZM668.738 531.15H670.72V529.008H668.738V531.15ZM700.445 531.15H698.463V529.008H700.445V531.15ZM728.188 531.15H730.169V529.008H728.188V531.15ZM759.894 531.15H757.912V529.008H759.894V531.15ZM787.637 531.15H789.618V529.008H787.637V531.15ZM819.343 531.15H817.361V529.008H819.343V531.15ZM847.086 531.15H849.068V529.008H847.086V531.15ZM878.792 531.15H876.811V529.008H878.792V531.15ZM-221.018 497.938H-223V495.796H-221.018V497.938ZM-191.294 497.938H-193.275V495.796H-191.294V497.938ZM-163.551 497.938H-161.569V495.796H-163.551V497.938ZM-131.844 497.938H-133.826V495.796H-131.844V497.938ZM-104.101 497.938H-102.12V495.796H-104.101V497.938ZM-72.3951 497.938H-74.3767V495.796H-72.3951V497.938ZM-44.6522 497.938H-42.6705V495.796H-44.6522V497.938ZM-12.946 497.938H-14.9276V495.796H-12.946V497.938ZM14.7969 497.938H16.7786V495.796H14.7969V497.938ZM46.5032 497.938H44.5215V495.796H46.5032V497.938ZM74.2461 497.938H76.2278V495.796H74.2461V497.938ZM105.952 497.938H103.971V495.796H105.952V497.938ZM133.695 497.938H135.677V495.796H133.695V497.938ZM165.401 497.938H163.42V495.796H165.401V497.938ZM193.145 497.938H195.126V495.796H193.145V497.938ZM224.851 497.938H222.869V495.796H224.851V497.938ZM252.594 497.938H254.575V495.796H252.594V497.938ZM284.3 497.938H282.318V495.796H284.3V497.938ZM312.043 497.938H314.025V495.796H312.043V497.938ZM343.749 497.938H341.768V495.796H343.749V497.938ZM371.492 497.938H373.474V495.796H371.492V497.938ZM403.199 497.938H401.217V495.796H403.199V497.938ZM430.942 497.938H432.923V495.796H430.942V497.938ZM462.648 497.938H460.666V495.796H462.648V497.938ZM490.391 497.938H492.372V495.796H490.391V497.938ZM522.097 497.938H520.115V495.796H522.097V497.938ZM549.84 497.938H551.822V495.796H549.84V497.938ZM581.546 497.938H579.565V495.796H581.546V497.938ZM609.289 497.938H611.271V495.796H609.289V497.938ZM640.995 497.938H639.014V495.796H640.995V497.938ZM668.738 497.938H670.72V495.796H668.738V497.938ZM700.445 497.938H698.463V495.796H700.445V497.938ZM728.188 497.938H730.169V495.796H728.188V497.938ZM759.894 497.938H757.912V495.796H759.894V497.938ZM787.637 497.938H789.618V495.796H787.637V497.938ZM819.343 497.938H817.362V495.796H819.343V497.938ZM847.086 497.938H849.068V495.796H847.086V497.938ZM878.792 497.938H876.811V495.796H878.792V497.938ZM-223 464.726H-221.018V462.584H-223V464.726ZM-191.294 464.726H-193.275V462.584H-191.294V464.726ZM-163.551 464.726H-161.569V462.584H-163.551V464.726ZM-131.844 464.726H-133.826V462.584H-131.844V464.726ZM-104.101 464.726H-102.12V462.584H-104.101V464.726ZM-72.3951 464.726H-74.3767V462.584H-72.3951V464.726ZM-44.6522 464.726H-42.6705V462.584H-44.6522V464.726ZM-12.946 464.726H-14.9276V462.584H-12.946V464.726ZM14.7969 464.726H16.7786V462.584H14.7969V464.726ZM46.5032 464.726H44.5215V462.584H46.5032V464.726ZM74.2461 464.726H76.2278V462.584H74.2461V464.726ZM105.952 464.726H103.971V462.584H105.952V464.726ZM133.695 464.726H135.677V462.584H133.695V464.726ZM165.401 464.726H163.42V462.584H165.401V464.726ZM193.145 464.726H195.126V462.584H193.145V464.726ZM224.851 464.726H222.869V462.584H224.851V464.726ZM252.594 464.726H254.575V462.584H252.594V464.726ZM284.3 464.726H282.318V462.584H284.3V464.726ZM312.043 464.726H314.025V462.584H312.043V464.726ZM343.749 464.726H341.768V462.584H343.749V464.726ZM371.492 464.726H373.474V462.584H371.492V464.726ZM403.199 464.726H401.217V462.584H403.199V464.726ZM430.942 464.726H432.923V462.584H430.942V464.726ZM462.648 464.726H460.666V462.584H462.648V464.726ZM490.391 464.726H492.372V462.584H490.391V464.726ZM522.097 464.726H520.115V462.584H522.097V464.726ZM549.84 464.726H551.822V462.584H549.84V464.726ZM581.546 464.726H579.565V462.584H581.546V464.726ZM609.289 464.726H611.271V462.584H609.289V464.726ZM640.995 464.726H639.014V462.584H640.995V464.726ZM668.738 464.726H670.72V462.584H668.738V464.726ZM700.445 464.726H698.463V462.584H700.445V464.726ZM728.188 464.726H730.169V462.584H728.188V464.726ZM759.894 464.726H757.912V462.584H759.894V464.726ZM787.637 464.726H789.618V462.584H787.637V464.726ZM819.343 464.726H817.362V462.584H819.343V464.726ZM847.086 464.726H849.068V462.584H847.086V464.726ZM878.792 464.726H876.811V462.584H878.792V464.726ZM-193.275 431.514H-191.294V429.372H-193.275V431.514ZM-223 431.514H-221.018V429.372H-223V431.514ZM-161.569 431.514H-163.551V429.372H-161.569V431.514ZM-133.826 431.514H-131.844V429.372H-133.826V431.514ZM-102.12 431.514H-104.102V429.372H-102.12V431.514ZM-74.377 431.514H-72.3953V429.372H-74.377V431.514ZM-42.6708 431.514H-44.6524V429.372H-42.6708V431.514ZM-14.9279 431.514H-12.9462V429.372H-14.9279V431.514ZM16.7783 431.514H14.7967V429.372H16.7783V431.514ZM44.5214 431.514H46.503V429.372H44.5214V431.514ZM76.2276 431.514H74.246V429.372H76.2276V431.514ZM103.971 431.514H105.952V429.372H103.971V431.514ZM135.677 431.514H133.695V429.372H135.677V431.514ZM163.42 431.514H165.401V429.372H163.42V431.514ZM195.126 431.514H193.144V429.372H195.126V431.514ZM222.869 431.514H224.851V429.372H222.869V431.514ZM254.575 431.514H252.593V429.372H254.575V431.514ZM282.318 431.514H284.3V429.372H282.318V431.514ZM314.024 431.514H312.043V429.372H314.024V431.514ZM341.767 431.514H343.749V429.372H341.767V431.514ZM373.474 431.514H371.492V429.372H373.474V431.514ZM401.217 431.514H403.198V429.372H401.217V431.514ZM432.923 431.514H430.941V429.372H432.923V431.514ZM460.666 431.514H462.648V429.372H460.666V431.514ZM492.372 431.514H490.391V429.372H492.372V431.514ZM520.115 431.514H522.097V429.372H520.115V431.514ZM551.821 431.514H549.84V429.372H551.821V431.514ZM579.564 431.514H581.546V429.372H579.564V431.514ZM611.271 431.514H609.289V429.372H611.271V431.514ZM639.014 431.514H640.995V429.372H639.014V431.514ZM670.72 431.514H668.738V429.372H670.72V431.514ZM698.463 431.514H700.445V429.372H698.463V431.514ZM730.169 431.514H728.187V429.372H730.169V431.514ZM757.912 431.514H759.894V429.372H757.912V431.514ZM789.618 431.514H787.637V429.372H789.618V431.514ZM817.361 431.514H819.343V429.372H817.361V431.514ZM849.067 431.514H847.086V429.372H849.067V431.514ZM876.811 431.514H878.792V429.372H876.811V431.514ZM-221.018 398.302H-223V396.161H-221.018V398.302ZM-193.275 398.302H-191.294V396.161H-193.275V398.302ZM-161.569 398.302H-163.551V396.161H-161.569V398.302ZM-133.826 398.302H-131.844V396.161H-133.826V398.302ZM-102.12 398.302H-104.102V396.161H-102.12V398.302ZM-74.377 398.302H-72.3953V396.161H-74.377V398.302ZM-42.6708 398.302H-44.6524V396.161H-42.6708V398.302ZM-14.9279 398.302H-12.9462V396.161H-14.9279V398.302ZM16.7783 398.302H14.7967V396.161H16.7783V398.302ZM44.5214 398.302H46.503V396.161H44.5214V398.302ZM76.2276 398.302H74.246V396.161H76.2276V398.302ZM103.971 398.302H105.952V396.161H103.971V398.302ZM135.677 398.302H133.695V396.161H135.677V398.302ZM163.42 398.302H165.401V396.161H163.42V398.302ZM195.126 398.302H193.144V396.161H195.126V398.302ZM222.869 398.302H224.851V396.161H222.869V398.302ZM254.575 398.302H252.593V396.161H254.575V398.302ZM282.318 398.302H284.3V396.161H282.318V398.302ZM314.024 398.302H312.043V396.161H314.024V398.302ZM341.767 398.302H343.749V396.161H341.767V398.302ZM373.474 398.302H371.492V396.161H373.474V398.302ZM401.217 398.302H403.198V396.161H401.217V398.302ZM432.923 398.302H430.941V396.161H432.923V398.302ZM460.666 398.302H462.648V396.161H460.666V398.302ZM492.372 398.302H490.391V396.161H492.372V398.302ZM520.115 398.302H522.097V396.161H520.115V398.302ZM551.821 398.302H549.84V396.161H551.821V398.302ZM579.564 398.302H581.546V396.161H579.564V398.302ZM611.271 398.302H609.289V396.161H611.271V398.302ZM639.014 398.302H640.995V396.161H639.014V398.302ZM670.72 398.302H668.738V396.161H670.72V398.302ZM698.463 398.302H700.445V396.161H698.463V398.302ZM730.169 398.302H728.187V396.161H730.169V398.302ZM757.912 398.302H759.894V396.161H757.912V398.302ZM789.618 398.302H787.637V396.161H789.618V398.302ZM817.361 398.302H819.343V396.161H817.361V398.302ZM849.067 398.302H847.086V396.161H849.067V398.302ZM876.811 398.302H878.792V396.161H876.811V398.302ZM-221.018 365.09H-223V362.949H-221.018V365.09ZM-193.275 365.09H-191.294V362.949H-193.275V365.09ZM-161.569 365.09H-163.551V362.949H-161.569V365.09ZM-133.826 365.09H-131.844V362.949H-133.826V365.09ZM-102.12 365.09H-104.102V362.949H-102.12V365.09ZM-74.377 365.09H-72.3953V362.949H-74.377V365.09ZM-42.6708 365.09H-44.6524V362.949H-42.6708V365.09ZM-14.9279 365.09H-12.9462V362.949H-14.9279V365.09ZM16.7783 365.09H14.7967V362.949H16.7783V365.09ZM44.5214 365.09H46.503V362.949H44.5214V365.09ZM76.2276 365.09H74.246V362.949H76.2276V365.09ZM103.971 365.09H105.952V362.949H103.971V365.09ZM135.677 365.09H133.695V362.949H135.677V365.09ZM163.42 365.09H165.401V362.949H163.42V365.09ZM195.126 365.09H193.144V362.949H195.126V365.09ZM222.869 365.09H224.851V362.949H222.869V365.09ZM254.575 365.09H252.593V362.949H254.575V365.09ZM282.318 365.09H284.3V362.949H282.318V365.09ZM314.024 365.09H312.043V362.949H314.024V365.09ZM341.767 365.09H343.749V362.949H341.767V365.09ZM373.474 365.09H371.492V362.949H373.474V365.09ZM401.217 365.09H403.198V362.949H401.217V365.09ZM432.923 365.09H430.941V362.949H432.923V365.09ZM460.666 365.09H462.648V362.949H460.666V365.09ZM492.372 365.09H490.391V362.949H492.372V365.09ZM520.115 365.09H522.097V362.949H520.115V365.09ZM551.821 365.09H549.84V362.949H551.821V365.09ZM579.564 365.09H581.546V362.949H579.564V365.09ZM611.271 365.09H609.289V362.949H611.271V365.09ZM639.014 365.09H640.995V362.949H639.014V365.09ZM670.72 365.09H668.738V362.949H670.72V365.09ZM698.463 365.09H700.445V362.949H698.463V365.09ZM730.169 365.09H728.187V362.949H730.169V365.09ZM757.912 365.09H759.894V362.949H757.912V365.09ZM789.618 365.09H787.637V362.949H789.618V365.09ZM817.361 365.09H819.343V362.949H817.361V365.09ZM849.067 365.09H847.086V362.949H849.067V365.09ZM876.811 365.09H878.792V362.949H876.811V365.09ZM-221.018 331.879H-223V329.737H-221.018V331.879ZM-193.275 331.879H-191.294V329.737H-193.275V331.879ZM-161.569 331.879H-163.551V329.737H-161.569V331.879ZM-133.826 331.879H-131.844V329.737H-133.826V331.879ZM-102.12 331.879H-104.102V329.737H-102.12V331.879ZM-74.377 331.879H-72.3953V329.737H-74.377V331.879ZM-42.6708 331.879H-44.6524V329.737H-42.6708V331.879ZM-14.9279 331.879H-12.9462V329.737H-14.9279V331.879ZM16.7783 331.879H14.7967V329.737H16.7783V331.879ZM44.5214 331.879H46.503V329.737H44.5214V331.879ZM76.2276 331.879H74.246V329.737H76.2276V331.879ZM103.971 331.879H105.952V329.737H103.971V331.879ZM135.677 331.879H133.695V329.737H135.677V331.879ZM163.42 331.879H165.401V329.737H163.42V331.879ZM195.126 331.879H193.144V329.737H195.126V331.879ZM222.869 331.879H224.851V329.737H222.869V331.879ZM254.575 331.879H252.593V329.737H254.575V331.879ZM282.318 331.879H284.3V329.737H282.318V331.879ZM314.024 331.879H312.043V329.737H314.024V331.879ZM341.767 331.879H343.749V329.737H341.767V331.879ZM373.474 331.879H371.492V329.737H373.474V331.879ZM401.217 331.879H403.198V329.737H401.217V331.879ZM432.923 331.879H430.941V329.737H432.923V331.879ZM460.666 331.879H462.648V329.737H460.666V331.879ZM492.372 331.879H490.391V329.737H492.372V331.879ZM520.115 331.879H522.097V329.737H520.115V331.879ZM551.821 331.879H549.84V329.737H551.821V331.879ZM579.564 331.879H581.546V329.737H579.564V331.879ZM611.271 331.879H609.289V329.737H611.271V331.879ZM639.014 331.879H640.995V329.737H639.014V331.879ZM670.72 331.879H668.738V329.737H670.72V331.879ZM698.463 331.879H700.445V329.737H698.463V331.879ZM730.169 331.879H728.187V329.737H730.169V331.879ZM757.912 331.879H759.894V329.737H757.912V331.879ZM789.618 331.879H787.637V329.737H789.618V331.879ZM817.361 331.879H819.343V329.737H817.361V331.879ZM849.067 331.879H847.086V329.737H849.067V331.879ZM876.811 331.879H878.792V329.737H876.811V331.879ZM-191.294 298.667H-193.275V296.525H-191.294V298.667ZM-221.018 298.666H-223V296.525H-221.018V298.666ZM-163.551 298.667H-161.569V296.525H-163.551V298.667ZM-131.844 298.667H-133.826V296.525H-131.844V298.667ZM-104.101 298.667H-102.12V296.525H-104.101V298.667ZM-72.3952 298.667H-74.3768V296.525H-72.3952V298.667ZM-44.6523 298.667H-42.6706V296.525H-44.6523V298.667ZM-12.9461 298.667H-14.9277V296.525H-12.9461V298.667ZM14.7968 298.667H16.7785V296.525H14.7968V298.667ZM46.5032 298.667H44.5215V296.525H46.5032V298.667ZM74.2461 298.667H76.2278V296.525H74.2461V298.667ZM105.952 298.667H103.971V296.525H105.952V298.667ZM133.695 298.667H135.677V296.525H133.695V298.667ZM165.401 298.667H163.42V296.525H165.401V298.667ZM193.145 298.667H195.126V296.525H193.145V298.667ZM224.851 298.667H222.869V296.525H224.851V298.667ZM252.594 298.667H254.575V296.525H252.594V298.667ZM284.3 298.667H282.318V296.525H284.3V298.667ZM312.043 298.667H314.024V296.525H312.043V298.667ZM343.749 298.667H341.767V296.525H343.749V298.667ZM371.492 298.667H373.474V296.525H371.492V298.667ZM403.198 298.667H401.217V296.525H403.198V298.667ZM430.941 298.667H432.923V296.525H430.941V298.667ZM462.648 298.667H460.666V296.525H462.648V298.667ZM490.391 298.667H492.372V296.525H490.391V298.667ZM522.097 298.667H520.115V296.525H522.097V298.667ZM549.84 298.667H551.821V296.525H549.84V298.667ZM581.546 298.667H579.564V296.525H581.546V298.667ZM609.289 298.667H611.271V296.525H609.289V298.667ZM640.995 298.667H639.014V296.525H640.995V298.667ZM668.738 298.667H670.72V296.525H668.738V298.667ZM700.445 298.667H698.463V296.525H700.445V298.667ZM728.188 298.667H730.169V296.525H728.188V298.667ZM759.894 298.667H757.912V296.525H759.894V298.667ZM787.637 298.667H789.618V296.525H787.637V298.667ZM819.343 298.667H817.361V296.525H819.343V298.667ZM847.086 298.667H849.068V296.525H847.086V298.667ZM878.792 298.667H876.811V296.525H878.792V298.667ZM-223 265.455H-221.018V263.313H-223V265.455ZM-191.294 265.455H-193.275V263.313H-191.294V265.455ZM-163.551 265.455H-161.569V263.313H-163.551V265.455ZM-131.844 265.455H-133.826V263.313H-131.844V265.455ZM-104.101 265.455H-102.12V263.313H-104.101V265.455ZM-72.3952 265.455H-74.3768V263.313H-72.3952V265.455ZM-44.6523 265.455H-42.6706V263.313H-44.6523V265.455ZM-12.9461 265.455H-14.9277V263.313H-12.9461V265.455ZM14.7968 265.455H16.7785V263.313H14.7968V265.455ZM46.5032 265.455H44.5215V263.313H46.5032V265.455ZM74.2461 265.455H76.2278V263.313H74.2461V265.455ZM105.952 265.455H103.971V263.313H105.952V265.455ZM133.695 265.455H135.677V263.313H133.695V265.455ZM165.401 265.455H163.42V263.313H165.401V265.455ZM193.145 265.455H195.126V263.313H193.145V265.455ZM224.851 265.455H222.869V263.313H224.851V265.455ZM252.594 265.455H254.575V263.313H252.594V265.455ZM284.3 265.455H282.318V263.313H284.3V265.455ZM312.043 265.455H314.024V263.313H312.043V265.455ZM343.749 265.455H341.767V263.313H343.749V265.455ZM371.492 265.455H373.474V263.313H371.492V265.455ZM403.198 265.455H401.217V263.313H403.198V265.455ZM430.941 265.455H432.923V263.313H430.941V265.455ZM462.648 265.455H460.666V263.313H462.648V265.455ZM490.391 265.455H492.372V263.313H490.391V265.455ZM522.097 265.455H520.115V263.313H522.097V265.455ZM549.84 265.455H551.821V263.313H549.84V265.455ZM581.546 265.455H579.564V263.313H581.546V265.455ZM609.289 265.455H611.271V263.313H609.289V265.455ZM640.995 265.455H639.014V263.313H640.995V265.455ZM668.738 265.455H670.72V263.313H668.738V265.455ZM700.445 265.455H698.463V263.313H700.445V265.455ZM728.188 265.455H730.169V263.313H728.188V265.455ZM759.894 265.455H757.912V263.313H759.894V265.455ZM787.637 265.455H789.618V263.313H787.637V265.455ZM819.343 265.455H817.361V263.313H819.343V265.455ZM847.086 265.455H849.068V263.313H847.086V265.455ZM878.792 265.455H876.811V263.313H878.792V265.455ZM-223 232.243H-221.018V230.101H-223V232.243ZM-191.294 232.243H-193.275V230.101H-191.294V232.243ZM-163.551 232.243H-161.569V230.101H-163.551V232.243ZM-131.844 232.243H-133.826V230.101H-131.844V232.243ZM-104.101 232.243H-102.12V230.101H-104.101V232.243ZM-72.3952 232.243H-74.3768V230.101H-72.3952V232.243ZM-44.6523 232.243H-42.6706V230.101H-44.6523V232.243ZM-12.9461 232.243H-14.9277V230.101H-12.9461V232.243ZM14.7968 232.243H16.7785V230.101H14.7968V232.243ZM46.5032 232.243H44.5215V230.101H46.5032V232.243ZM74.2461 232.243H76.2278V230.101H74.2461V232.243ZM105.952 232.243H103.971V230.101H105.952V232.243ZM133.695 232.243H135.677V230.101H133.695V232.243ZM165.401 232.243H163.42V230.101H165.401V232.243ZM193.145 232.243H195.126V230.101H193.145V232.243ZM224.851 232.243H222.869V230.101H224.851V232.243ZM252.594 232.243H254.575V230.101H252.594V232.243ZM284.3 232.243H282.318V230.101H284.3V232.243ZM312.043 232.243H314.024V230.101H312.043V232.243ZM343.749 232.243H341.767V230.101H343.749V232.243ZM371.492 232.243H373.474V230.101H371.492V232.243ZM403.198 232.243H401.217V230.101H403.198V232.243ZM430.941 232.243H432.923V230.101H430.941V232.243ZM462.648 232.243H460.666V230.101H462.648V232.243ZM490.391 232.243H492.372V230.101H490.391V232.243ZM522.097 232.243H520.115V230.101H522.097V232.243ZM549.84 232.243H551.821V230.101H549.84V232.243ZM581.546 232.243H579.564V230.101H581.546V232.243ZM609.289 232.243H611.271V230.101H609.289V232.243ZM640.995 232.243H639.014V230.101H640.995V232.243ZM668.738 232.243H670.72V230.101H668.738V232.243ZM700.445 232.243H698.463V230.101H700.445V232.243ZM728.188 232.243H730.169V230.101H728.188V232.243ZM759.894 232.243H757.912V230.101H759.894V232.243ZM787.637 232.243H789.618V230.101H787.637V232.243ZM819.343 232.243H817.361V230.101H819.343V232.243ZM847.086 232.243H849.068V230.101H847.086V232.243ZM878.792 232.243H876.811V230.101H878.792V232.243ZM-223 199.031H-221.018V196.889H-223V199.031ZM-191.294 199.031H-193.275V196.889H-191.294V199.031ZM-163.551 199.031H-161.569V196.889H-163.551V199.031ZM-131.844 199.031H-133.826V196.889H-131.844V199.031ZM-104.101 199.031H-102.12V196.889H-104.101V199.031ZM-72.3952 199.031H-74.3768V196.889H-72.3952V199.031ZM-44.6523 199.031H-42.6706V196.889H-44.6523V199.031ZM-12.9461 199.031H-14.9277V196.889H-12.9461V199.031ZM14.7968 199.031H16.7785V196.889H14.7968V199.031ZM46.5032 199.031H44.5215V196.889H46.5032V199.031ZM74.2461 199.031H76.2278V196.889H74.2461V199.031ZM105.952 199.031H103.971V196.889H105.952V199.031ZM133.695 199.031H135.677V196.889H133.695V199.031ZM165.401 199.031H163.42V196.889H165.401V199.031ZM193.145 199.031H195.126V196.889H193.145V199.031ZM224.851 199.031H222.869V196.889H224.851V199.031ZM252.594 199.031H254.575V196.889H252.594V199.031ZM284.3 199.031H282.318V196.889H284.3V199.031ZM312.043 199.031H314.024V196.889H312.043V199.031ZM343.749 199.031H341.767V196.889H343.749V199.031ZM371.492 199.031H373.474V196.889H371.492V199.031ZM403.198 199.031H401.217V196.889H403.198V199.031ZM430.941 199.031H432.923V196.889H430.941V199.031ZM462.648 199.031H460.666V196.889H462.648V199.031ZM490.391 199.031H492.372V196.889H490.391V199.031ZM522.097 199.031H520.115V196.889H522.097V199.031ZM549.84 199.031H551.821V196.889H549.84V199.031ZM581.546 199.031H579.564V196.889H581.546V199.031ZM609.289 199.031H611.271V196.889H609.289V199.031ZM640.995 199.031H639.014V196.889H640.995V199.031ZM668.738 199.031H670.72V196.889H668.738V199.031ZM700.445 199.031H698.463V196.889H700.445V199.031ZM728.188 199.031H730.169V196.889H728.188V199.031ZM759.894 199.031H757.912V196.889H759.894V199.031ZM787.637 199.031H789.618V196.889H787.637V199.031ZM819.343 199.031H817.361V196.889H819.343V199.031ZM847.086 199.031H849.068V196.889H847.086V199.031ZM878.792 199.031H876.811V196.889H878.792V199.031ZM-223 165.819H-221.018V163.678H-223V165.819ZM-191.294 165.819H-193.275V163.678H-191.294V165.819ZM-163.551 165.819H-161.569V163.678H-163.551V165.819ZM-131.844 165.819H-133.826V163.678H-131.844V165.819ZM-104.101 165.819H-102.12V163.678H-104.101V165.819ZM-72.3952 165.819H-74.3768V163.678H-72.3952V165.819ZM-44.6523 165.819H-42.6706V163.678H-44.6523V165.819ZM-12.9461 165.819H-14.9277V163.678H-12.9461V165.819ZM14.7968 165.819H16.7785V163.678H14.7968V165.819ZM46.5032 165.819H44.5215V163.678H46.5032V165.819ZM74.2461 165.819H76.2278V163.678H74.2461V165.819ZM105.952 165.819H103.971V163.678H105.952V165.819ZM133.695 165.819H135.677V163.678H133.695V165.819ZM165.401 165.819H163.42V163.678H165.401V165.819ZM193.145 165.819H195.126V163.678H193.145V165.819ZM224.851 165.819H222.869V163.678H224.851V165.819ZM252.594 165.819H254.575V163.678H252.594V165.819ZM284.3 165.819H282.318V163.678H284.3V165.819ZM312.043 165.819H314.024V163.678H312.043V165.819ZM343.749 165.819H341.767V163.678H343.749V165.819ZM371.492 165.819H373.474V163.678H371.492V165.819ZM403.198 165.819H401.217V163.678H403.198V165.819ZM430.941 165.819H432.923V163.678H430.941V165.819ZM462.648 165.819H460.666V163.678H462.648V165.819ZM490.391 165.819H492.372V163.678H490.391V165.819ZM522.097 165.819H520.115V163.678H522.097V165.819ZM549.84 165.819H551.821V163.678H549.84V165.819ZM581.546 165.819H579.564V163.678H581.546V165.819ZM609.289 165.819H611.271V163.678H609.289V165.819ZM640.995 165.819H639.014V163.678H640.995V165.819ZM668.738 165.819H670.72V163.678H668.738V165.819ZM700.445 165.819H698.463V163.678H700.445V165.819ZM728.188 165.819H730.169V163.678H728.188V165.819ZM759.894 165.819H757.912V163.678H759.894V165.819ZM787.637 165.819H789.618V163.678H787.637V165.819ZM819.343 165.819H817.361V163.678H819.343V165.819ZM847.086 165.819H849.068V163.678H847.086V165.819ZM878.792 165.819H876.811V163.678H878.792V165.819ZM-223 132.608H-221.018V130.466H-223V132.608ZM-191.294 132.608H-193.275V130.466H-191.294V132.608ZM-163.551 132.608H-161.569V130.466H-163.551V132.608ZM-131.844 132.608H-133.826V130.466H-131.844V132.608ZM-104.101 132.608H-102.12V130.466H-104.101V132.608ZM-72.3952 132.608H-74.3768V130.466H-72.3952V132.608ZM-44.6523 132.608H-42.6706V130.466H-44.6523V132.608ZM-12.9461 132.608H-14.9277V130.466H-12.9461V132.608ZM14.7968 132.608H16.7785V130.466H14.7968V132.608ZM46.5032 132.608H44.5215V130.466H46.5032V132.608ZM74.2461 132.608H76.2278V130.466H74.2461V132.608ZM105.952 132.608H103.971V130.466H105.952V132.608ZM133.695 132.608H135.677V130.466H133.695V132.608ZM165.401 132.608H163.42V130.466H165.401V132.608ZM193.145 132.608H195.126V130.466H193.145V132.608ZM224.851 132.608H222.869V130.466H224.851V132.608ZM252.594 132.608H254.575V130.466H252.594V132.608ZM284.3 132.608H282.318V130.466H284.3V132.608ZM312.043 132.608H314.024V130.466H312.043V132.608ZM343.749 132.608H341.767V130.466H343.749V132.608ZM371.492 132.608H373.474V130.466H371.492V132.608ZM403.198 132.608H401.217V130.466H403.198V132.608ZM430.941 132.608H432.923V130.466H430.941V132.608ZM462.648 132.608H460.666V130.466H462.648V132.608ZM490.391 132.608H492.372V130.466H490.391V132.608ZM522.097 132.608H520.115V130.466H522.097V132.608ZM549.84 132.608H551.821V130.466H549.84V132.608ZM581.546 132.608H579.564V130.466H581.546V132.608ZM609.289 132.608H611.271V130.466H609.289V132.608ZM640.995 132.608H639.014V130.466H640.995V132.608ZM668.738 132.608H670.72V130.466H668.738V132.608ZM700.445 132.608H698.463V130.466H700.445V132.608ZM728.188 132.608H730.169V130.466H728.188V132.608ZM759.894 132.608H757.912V130.466H759.894V132.608ZM787.637 132.608H789.618V130.466H787.637V132.608ZM819.343 132.608H817.361V130.466H819.343V132.608ZM847.086 132.608H849.068V130.466H847.086V132.608ZM878.792 132.608H876.811V130.466H878.792V132.608ZM-193.275 99.3951H-191.294V97.2532H-193.275V99.3951ZM-223 99.3949H-221.018V97.2531H-223V99.3949ZM-161.569 99.3951H-163.551V97.2532H-161.569V99.3951ZM-133.826 99.3951H-131.844V97.2532H-133.826V99.3951ZM-102.12 99.3951H-104.102V97.2532H-102.12V99.3951ZM-74.3769 99.3951H-72.3953V97.2532H-74.3769V99.3951ZM-42.6707 99.3951H-44.6524V97.2532H-42.6707V99.3951ZM-14.9278 99.3951H-12.9462V97.2532H-14.9278V99.3951ZM16.7784 99.3951H14.7967V97.2532H16.7784V99.3951ZM44.5214 99.3951H46.503V97.2532H44.5214V99.3951ZM76.2276 99.3951H74.246V97.2532H76.2276V99.3951ZM103.971 99.3951H105.952V97.2532H103.971V99.3951ZM135.677 99.3951H133.695V97.2532H135.677V99.3951ZM163.42 99.3951H165.401V97.2532H163.42V99.3951ZM195.126 99.3951H193.144V97.2532H195.126V99.3951ZM222.869 99.3951H224.851V97.2532H222.869V99.3951ZM254.575 99.3951H252.594V97.2532H254.575V99.3951ZM282.318 99.3951H284.3V97.2532H282.318V99.3951ZM314.024 99.3951H312.043V97.2532H314.024V99.3951ZM341.767 99.3951H343.749V97.2532H341.767V99.3951ZM373.474 99.3951H371.492V97.2532H373.474V99.3951ZM401.217 99.3951H403.198V97.2532H401.217V99.3951ZM432.923 99.3951H430.941V97.2532H432.923V99.3951ZM460.666 99.3951H462.648V97.2532H460.666V99.3951ZM492.372 99.3951H490.391V97.2532H492.372V99.3951ZM520.115 99.3951H522.097V97.2532H520.115V99.3951ZM551.821 99.3951H549.84V97.2532H551.821V99.3951ZM579.564 99.3951H581.546V97.2532H579.564V99.3951ZM611.271 99.3951H609.289V97.2532H611.271V99.3951ZM639.014 99.3951H640.995V97.2532H639.014V99.3951ZM670.72 99.3951H668.738V97.2532H670.72V99.3951ZM698.463 99.3951H700.445V97.2532H698.463V99.3951ZM730.169 99.3951H728.187V97.2532H730.169V99.3951ZM757.912 99.3951H759.894V97.2532H757.912V99.3951ZM789.618 99.3951H787.637V97.2532H789.618V99.3951ZM817.361 99.3951H819.343V97.2532H817.361V99.3951ZM849.068 99.3951H847.086V97.2532H849.068V99.3951ZM876.811 99.3951H878.792V97.2532H876.811V99.3951ZM-221.018 66.1831H-223V64.0413H-221.018V66.1831ZM-193.275 66.1831H-191.294V64.0413H-193.275V66.1831ZM-161.569 66.1831H-163.551V64.0413H-161.569V66.1831ZM-133.826 66.1831H-131.844V64.0413H-133.826V66.1831ZM-102.12 66.1831H-104.102V64.0413H-102.12V66.1831ZM-74.3769 66.1831H-72.3953V64.0413H-74.3769V66.1831ZM-42.6707 66.1831H-44.6524V64.0413H-42.6707V66.1831ZM-14.9278 66.1831H-12.9462V64.0413H-14.9278V66.1831ZM16.7784 66.1831H14.7967V64.0413H16.7784V66.1831ZM44.5214 66.1831H46.503V64.0413H44.5214V66.1831ZM76.2276 66.1831H74.246V64.0413H76.2276V66.1831ZM103.971 66.1831H105.952V64.0413H103.971V66.1831ZM135.677 66.1831H133.695V64.0413H135.677V66.1831ZM163.42 66.1831H165.401V64.0413H163.42V66.1831ZM195.126 66.1831H193.144V64.0413H195.126V66.1831ZM222.869 66.1831H224.851V64.0413H222.869V66.1831ZM254.575 66.1831H252.594V64.0413H254.575V66.1831ZM282.318 66.1831H284.3V64.0413H282.318V66.1831ZM314.024 66.1831H312.043V64.0413H314.024V66.1831ZM341.767 66.1831H343.749V64.0413H341.767V66.1831ZM373.474 66.1831H371.492V64.0413H373.474V66.1831ZM401.217 66.1831H403.198V64.0413H401.217V66.1831ZM432.923 66.1831H430.941V64.0413H432.923V66.1831ZM460.666 66.1831H462.648V64.0413H460.666V66.1831ZM492.372 66.1831H490.391V64.0413H492.372V66.1831ZM520.115 66.1831H522.097V64.0413H520.115V66.1831ZM551.821 66.1831H549.84V64.0413H551.821V66.1831ZM579.564 66.1831H581.546V64.0413H579.564V66.1831ZM611.271 66.1831H609.289V64.0413H611.271V66.1831ZM639.014 66.1831H640.995V64.0413H639.014V66.1831ZM670.72 66.1831H668.738V64.0413H670.72V66.1831ZM698.463 66.1831H700.445V64.0413H698.463V66.1831ZM730.169 66.1831H728.187V64.0413H730.169V66.1831ZM757.912 66.1831H759.894V64.0413H757.912V66.1831ZM789.618 66.1831H787.637V64.0413H789.618V66.1831ZM817.361 66.1831H819.343V64.0413H817.361V66.1831ZM849.068 66.1831H847.086V64.0413H849.068V66.1831ZM876.811 66.1831H878.792V64.0413H876.811V66.1831ZM-221.018 32.9712H-223V30.8293H-221.018V32.9712ZM-193.275 32.9712H-191.294V30.8293H-193.275V32.9712ZM-161.569 32.9712H-163.551V30.8293H-161.569V32.9712ZM-133.826 32.9712H-131.844V30.8293H-133.826V32.9712ZM-102.12 32.9712H-104.102V30.8293H-102.12V32.9712ZM-74.3769 32.9712H-72.3953V30.8293H-74.3769V32.9712ZM-42.6707 32.9712H-44.6524V30.8293H-42.6707V32.9712ZM-14.9278 32.9712H-12.9462V30.8293H-14.9278V32.9712ZM16.7784 32.9712H14.7967V30.8293H16.7784V32.9712ZM44.5214 32.9712H46.503V30.8293H44.5214V32.9712ZM76.2276 32.9712H74.246V30.8293H76.2276V32.9712ZM103.971 32.9712H105.952V30.8293H103.971V32.9712ZM135.677 32.9712H133.695V30.8293H135.677V32.9712ZM163.42 32.9712H165.401V30.8293H163.42V32.9712ZM195.126 32.9712H193.144V30.8293H195.126V32.9712ZM222.869 32.9712H224.851V30.8293H222.869V32.9712ZM254.575 32.9712H252.594V30.8293H254.575V32.9712ZM282.318 32.9712H284.3V30.8293H282.318V32.9712ZM314.024 32.9712H312.043V30.8293H314.024V32.9712ZM341.767 32.9712H343.749V30.8293H341.767V32.9712ZM373.474 32.9712H371.492V30.8293H373.474V32.9712ZM401.217 32.9712H403.198V30.8293H401.217V32.9712ZM432.923 32.9712H430.941V30.8293H432.923V32.9712ZM460.666 32.9712H462.648V30.8293H460.666V32.9712ZM492.372 32.9712H490.391V30.8293H492.372V32.9712ZM520.115 32.9712H522.097V30.8293H520.115V32.9712ZM551.821 32.9712H549.84V30.8293H551.821V32.9712ZM579.564 32.9712H581.546V30.8293H579.564V32.9712ZM611.271 32.9712H609.289V30.8293H611.271V32.9712ZM639.014 32.9712H640.995V30.8293H639.014V32.9712ZM670.72 32.9712H668.738V30.8293H670.72V32.9712ZM698.463 32.9712H700.445V30.8293H698.463V32.9712ZM730.169 32.9712H728.187V30.8293H730.169V32.9712ZM757.912 32.9712H759.894V30.8293H757.912V32.9712ZM789.618 32.9712H787.637V30.8293H789.618V32.9712ZM817.361 32.9712H819.343V30.8293H817.361V32.9712ZM849.068 32.9712H847.086V30.8293H849.068V32.9712ZM876.811 32.9712H878.792V30.8293H876.811V32.9712ZM-221.018 -0.240906H-223V-2.38275H-221.018V-0.240906ZM-193.275 -0.240906H-191.294V-2.38275H-193.275V-0.240906ZM-161.569 -0.240906H-163.551V-2.38275H-161.569V-0.240906ZM-133.826 -0.240906H-131.844V-2.38275H-133.826V-0.240906ZM-102.12 -0.240906H-104.102V-2.38275H-102.12V-0.240906ZM-74.3769 -0.240906H-72.3953V-2.38275H-74.3769V-0.240906ZM-42.6707 -0.240906H-44.6524V-2.38275H-42.6707V-0.240906ZM-14.9278 -0.240906H-12.9462V-2.38275H-14.9278V-0.240906ZM16.7784 -0.240906H14.7967V-2.38275H16.7784V-0.240906ZM44.5214 -0.240906H46.503V-2.38275H44.5214V-0.240906ZM76.2276 -0.240906H74.246V-2.38275H76.2276V-0.240906ZM103.971 -0.240906H105.952V-2.38275H103.971V-0.240906ZM135.677 -0.240906H133.695V-2.38275H135.677V-0.240906ZM163.42 -0.240906H165.401V-2.38275H163.42V-0.240906ZM195.126 -0.240906H193.144V-2.38275H195.126V-0.240906ZM222.869 -0.240906H224.851V-2.38275H222.869V-0.240906ZM254.575 -0.240906H252.594V-2.38275H254.575V-0.240906ZM282.318 -0.240906H284.3V-2.38275H282.318V-0.240906ZM314.024 -0.240906H312.043V-2.38275H314.024V-0.240906ZM341.767 -0.240906H343.749V-2.38275H341.767V-0.240906ZM373.474 -0.240906H371.492V-2.38275H373.474V-0.240906ZM401.217 -0.240906H403.198V-2.38275H401.217V-0.240906ZM432.923 -0.240906H430.941V-2.38275H432.923V-0.240906ZM460.666 -0.240906H462.648V-2.38275H460.666V-0.240906ZM492.372 -0.240906H490.391V-2.38275H492.372V-0.240906ZM520.115 -0.240906H522.097V-2.38275H520.115V-0.240906ZM551.821 -0.240906H549.84V-2.38275H551.821V-0.240906ZM579.564 -0.240906H581.546V-2.38275H579.564V-0.240906ZM611.271 -0.240906H609.289V-2.38275H611.271V-0.240906ZM639.014 -0.240906H640.995V-2.38275H639.014V-0.240906ZM670.72 -0.240906H668.738V-2.38275H670.72V-0.240906ZM698.463 -0.240906H700.445V-2.38275H698.463V-0.240906ZM730.169 -0.240906H728.187V-2.38275H730.169V-0.240906ZM757.912 -0.240906H759.894V-2.38275H757.912V-0.240906ZM789.618 -0.240906H787.637V-2.38275H789.618V-0.240906ZM817.361 -0.240906H819.343V-2.38275H817.361V-0.240906ZM849.068 -0.240906H847.086V-2.38275H849.068V-0.240906ZM876.811 -0.240906H878.792V-2.38275H876.811V-0.240906ZM-221.018 -33.4526H-223V-35.5945H-221.018V-33.4526ZM-193.275 -33.4526H-191.294V-35.5945H-193.275V-33.4526ZM-161.569 -33.4526H-163.551V-35.5945H-161.569V-33.4526ZM-133.826 -33.4526H-131.844V-35.5945H-133.826V-33.4526ZM-102.12 -33.4526H-104.102V-35.5945H-102.12V-33.4526ZM-74.3769 -33.4526H-72.3953V-35.5945H-74.3769V-33.4526ZM-42.6707 -33.4526H-44.6524V-35.5945H-42.6707V-33.4526ZM-14.9278 -33.4526H-12.9462V-35.5945H-14.9278V-33.4526ZM16.7784 -33.4526H14.7967V-35.5945H16.7784V-33.4526ZM44.5214 -33.4526H46.503V-35.5945H44.5214V-33.4526ZM76.2276 -33.4526H74.246V-35.5945H76.2276V-33.4526ZM103.971 -33.4526H105.952V-35.5945H103.971V-33.4526ZM135.677 -33.4526H133.695V-35.5945H135.677V-33.4526ZM163.42 -33.4526H165.401V-35.5945H163.42V-33.4526ZM195.126 -33.4526H193.144V-35.5945H195.126V-33.4526ZM222.869 -33.4526H224.851V-35.5945H222.869V-33.4526ZM254.575 -33.4526H252.594V-35.5945H254.575V-33.4526ZM282.318 -33.4526H284.3V-35.5945H282.318V-33.4526ZM314.024 -33.4526H312.043V-35.5945H314.024V-33.4526ZM341.767 -33.4526H343.749V-35.5945H341.767V-33.4526ZM373.474 -33.4526H371.492V-35.5945H373.474V-33.4526ZM401.217 -33.4526H403.198V-35.5945H401.217V-33.4526ZM432.923 -33.4526H430.941V-35.5945H432.923V-33.4526ZM460.666 -33.4526H462.648V-35.5945H460.666V-33.4526ZM492.372 -33.4526H490.391V-35.5945H492.372V-33.4526ZM520.115 -33.4526H522.097V-35.5945H520.115V-33.4526ZM551.821 -33.4526H549.84V-35.5945H551.821V-33.4526ZM579.564 -33.4526H581.546V-35.5945H579.564V-33.4526ZM611.271 -33.4526H609.289V-35.5945H611.271V-33.4526ZM639.014 -33.4526H640.995V-35.5945H639.014V-33.4526ZM670.72 -33.4526H668.738V-35.5945H670.72V-33.4526ZM698.463 -33.4526H700.445V-35.5945H698.463V-33.4526ZM730.169 -33.4526H728.187V-35.5945H730.169V-33.4526ZM757.912 -33.4526H759.894V-35.5945H757.912V-33.4526ZM789.618 -33.4526H787.637V-35.5945H789.618V-33.4526ZM817.361 -33.4526H819.343V-35.5945H817.361V-33.4526ZM849.068 -33.4526H847.086V-35.5945H849.068V-33.4526ZM876.811 -33.4526H878.792V-35.5945H876.811V-33.4526ZM-221.018 -66.6649H-223V-68.8068H-221.018V-66.6649ZM-193.275 -66.6646H-191.294V-68.8065H-193.275V-66.6646ZM-161.569 -66.6646H-163.551V-68.8065H-161.569V-66.6646ZM-133.826 -66.6646H-131.844V-68.8065H-133.826V-66.6646ZM-102.12 -66.6646H-104.102V-68.8065H-102.12V-66.6646ZM-74.3769 -66.6646H-72.3953V-68.8065H-74.3769V-66.6646ZM-42.6707 -66.6646H-44.6524V-68.8065H-42.6707V-66.6646ZM-14.9278 -66.6646H-12.9462V-68.8065H-14.9278V-66.6646ZM16.7784 -66.6646H14.7967V-68.8065H16.7784V-66.6646ZM44.5214 -66.6646H46.503V-68.8065H44.5214V-66.6646ZM76.2276 -66.6646H74.246V-68.8065H76.2276V-66.6646ZM103.971 -66.6646H105.952V-68.8065H103.971V-66.6646ZM135.677 -66.6646H133.695V-68.8065H135.677V-66.6646ZM163.42 -66.6646H165.401V-68.8065H163.42V-66.6646ZM195.126 -66.6646H193.144V-68.8065H195.126V-66.6646ZM222.869 -66.6646H224.851V-68.8065H222.869V-66.6646ZM254.575 -66.6646H252.594V-68.8065H254.575V-66.6646ZM282.318 -66.6646H284.3V-68.8065H282.318V-66.6646ZM314.024 -66.6646H312.043V-68.8065H314.024V-66.6646ZM341.767 -66.6646H343.749V-68.8065H341.767V-66.6646ZM373.474 -66.6646H371.492V-68.8065H373.474V-66.6646ZM401.217 -66.6649H403.198V-68.8068H401.217V-66.6649ZM432.923 -66.6649H430.941V-68.8068H432.923V-66.6649ZM460.666 -66.6649H462.648V-68.8068H460.666V-66.6649ZM492.372 -66.6649H490.391V-68.8068H492.372V-66.6649ZM520.115 -66.6649H522.097V-68.8068H520.115V-66.6649ZM551.821 -66.6649H549.84V-68.8068H551.821V-66.6649ZM579.564 -66.6649H581.546V-68.8068H579.564V-66.6649ZM611.271 -66.6649H609.289V-68.8068H611.271V-66.6649ZM639.014 -66.6649H640.995V-68.8068H639.014V-66.6649ZM670.72 -66.6649H668.738V-68.8068H670.72V-66.6649ZM698.463 -66.6649H700.445V-68.8068H698.463V-66.6649ZM730.169 -66.6649H728.187V-68.8068H730.169V-66.6649ZM757.912 -66.6649H759.894V-68.8068H757.912V-66.6649ZM789.618 -66.6649H787.637V-68.8068H789.618V-66.6649ZM817.361 -66.6649H819.343V-68.8068H817.361V-66.6649ZM849.068 -66.6649H847.086V-68.8068H849.068V-66.6649ZM876.811 -66.6649H878.792V-68.8068H876.811V-66.6649Z" fill="url(#paint0_radial_4032_57407)"/>
<defs>
<radialGradient id="paint0_radial_4032_57407" cx="0" cy="0" r="1" gradientUnits="userSpaceOnUse" gradientTransform="translate(794.766 269.994) rotate(-101.158) scale(330.746 780.602)">
<stop offset="0.302083" stop-color="white"/>
<stop offset="1" stop-color="white" stop-opacity="0"/>
</radialGradient>
</defs>
</svg>
