<svg width="250" height="55" viewBox="0 0 250 55" fill="none" xmlns="http://www.w3.org/2000/svg">
<path d="M53.0502 48.5922H25.593L5 7.40625H32.4573L53.0502 48.5922Z" fill="#FF6D00"/>
<path d="M39.3242 21.1328H66.7815L53.0529 48.5901L39.3242 21.1328Z" fill="#FCCDAA"/>
<path d="M53.0508 48.5859L25.5935 48.5859L39.3221 21.1287L53.0508 48.5859Z" fill="#FFA461"/>
<path d="M92.3254 28.2678H87.15L97.5817 7.40433H103.97L89.6973 35.8692L75.4648 7.40433H81.8533L92.3254 28.2678Z" fill="white"/>
<path d="M117.338 35.4648H111.354V7.40433H117.338V35.4648Z" fill="white"/>
<path d="M149.236 25.9226H146.163V7.40433H152.026V35.8692L130.111 16.9465H133.184V35.4648H127.321V7L149.236 25.9226Z" fill="white"/>
<path d="M174.662 35.4648H168.678V11.852H174.662V35.4648ZM160.065 7.40433H183.314V13.1054H160.065V7.40433Z" fill="white"/>
<path d="M209.028 18.5234V23.9819H196.696V18.5234H209.028ZM195.24 29.8042H209.554V35.4648H191.359V7.40433H209.554V13.0649H195.24L197.343 11.0837V31.7046L195.24 29.8042Z" fill="white"/>
<path d="M231.602 30.0064C233.139 30.0064 234.527 29.629 235.767 28.8742C237.034 28.1195 238.018 27.0952 238.718 25.8013C239.446 24.4805 239.81 23.0249 239.81 21.4346C239.81 19.8442 239.446 18.4021 238.718 17.1082C238.018 15.7874 237.034 14.7497 235.767 13.9949C234.527 13.2402 233.139 12.8628 231.602 12.8628C230.066 12.8628 228.664 13.2402 227.397 13.9949C226.13 14.7497 225.133 15.7874 224.405 17.1082C223.704 18.4021 223.354 19.8442 223.354 21.4346C223.354 23.0249 223.704 24.4805 224.405 25.8013C225.133 27.0952 226.13 28.1195 227.397 28.8742C228.664 29.629 230.066 30.0064 231.602 30.0064ZM231.602 35.8692C228.88 35.8692 226.413 35.2492 224.203 34.0092C222.02 32.7423 220.294 31.0172 219.028 28.8338C217.788 26.6235 217.168 24.1571 217.168 21.4346C217.168 18.7121 217.788 16.2592 219.028 14.0758C220.294 11.8654 222.02 10.1403 224.203 8.90035C226.413 7.63345 228.88 7 231.602 7C234.325 7 236.778 7.63345 238.961 8.90035C241.144 10.1403 242.856 11.8654 244.096 14.0758C245.363 16.2592 245.996 18.7121 245.996 21.4346C245.996 24.1571 245.363 26.6235 244.096 28.8338C242.856 31.0172 241.144 32.7423 238.961 34.0092C236.778 35.2492 234.325 35.8692 231.602 35.8692Z" fill="white"/>
<path d="M95.752 47.5452H95.0891L97.1006 43.2326H97.9235L95.4167 48.589L92.9023 43.2326H93.7252L95.752 47.5452Z" fill="white"/>
<path d="M100.508 48.5205H99.7456V43.2326H100.508V48.5205Z" fill="white"/>
<path d="M103.451 47.7966H104.427C104.792 47.7966 105.128 47.7255 105.432 47.5833C105.742 47.441 105.991 47.2277 106.179 46.9432C106.367 46.6537 106.461 46.2981 106.461 45.8765C106.461 45.4549 106.367 45.1019 106.179 44.8175C105.991 44.5279 105.742 44.312 105.432 44.1698C105.128 44.0276 104.792 43.9565 104.427 43.9565H103.444L103.604 43.8041V47.9414L103.451 47.7966ZM104.442 43.2326C104.975 43.2326 105.453 43.3317 105.874 43.5298C106.296 43.7279 106.629 44.025 106.873 44.4213C107.121 44.8175 107.246 45.3026 107.246 45.8765C107.246 46.4556 107.121 46.9432 106.873 47.3395C106.629 47.7357 106.296 48.0328 105.874 48.2309C105.453 48.4239 104.975 48.5205 104.442 48.5205H102.842V43.2326H104.442Z" fill="white"/>
<path d="M112.425 45.4803V46.1889H109.956V45.4803H112.425ZM109.918 47.7966H112.554V48.5205H109.316V43.2326H112.554V43.9565H109.918L110.078 43.8041V47.949L109.918 47.7966Z" fill="white"/>
<path d="M117.037 47.8423C117.388 47.8423 117.705 47.756 117.99 47.5833C118.274 47.4106 118.498 47.1769 118.66 46.8823C118.823 46.5826 118.904 46.2474 118.904 45.8765C118.904 45.5057 118.823 45.173 118.66 44.8784C118.498 44.5787 118.274 44.3425 117.99 44.1698C117.705 43.9971 117.388 43.9108 117.037 43.9108C116.687 43.9108 116.369 43.9971 116.085 44.1698C115.8 44.3425 115.574 44.5787 115.407 44.8784C115.244 45.173 115.163 45.5057 115.163 45.8765C115.163 46.2474 115.244 46.5826 115.407 46.8823C115.574 47.1769 115.8 47.4106 116.085 47.5833C116.369 47.756 116.687 47.8423 117.037 47.8423ZM117.037 48.589C116.539 48.589 116.087 48.4697 115.681 48.2309C115.275 47.9922 114.955 47.6671 114.721 47.2556C114.492 46.8442 114.378 46.3845 114.378 45.8765C114.378 45.3686 114.492 44.9089 114.721 44.4974C114.955 44.086 115.275 43.7609 115.681 43.5222C116.087 43.2834 116.539 43.1641 117.037 43.1641C117.535 43.1641 117.985 43.2834 118.386 43.5222C118.792 43.7609 119.11 44.086 119.338 44.4974C119.572 44.9089 119.689 45.3686 119.689 45.8765C119.689 46.3845 119.572 46.8442 119.338 47.2556C119.11 47.6671 118.792 47.9922 118.386 48.2309C117.985 48.4697 117.535 48.589 117.037 48.589Z" fill="white"/>
<path d="M128.771 44.7413C128.649 44.599 128.507 44.467 128.344 44.3451C128.181 44.2181 127.988 44.1139 127.765 44.0327C127.547 43.9514 127.31 43.9108 127.056 43.9108C126.706 43.9108 126.381 43.9946 126.081 44.1622C125.781 44.3298 125.54 44.5635 125.357 44.8632C125.179 45.1629 125.091 45.5007 125.091 45.8765C125.091 46.2626 125.179 46.6055 125.357 46.9052C125.54 47.1998 125.781 47.4309 126.081 47.5985C126.381 47.7611 126.706 47.8423 127.056 47.8423C127.31 47.8423 127.547 47.8017 127.765 47.7204C127.988 47.6391 128.181 47.5376 128.344 47.4156C128.507 47.2887 128.649 47.1541 128.771 47.0118V47.9795C128.593 48.1573 128.362 48.3046 128.077 48.4214C127.798 48.5331 127.453 48.589 127.041 48.589C126.543 48.589 126.086 48.4798 125.67 48.2614C125.253 48.043 124.92 47.728 124.671 47.3166C124.428 46.9052 124.306 46.4251 124.306 45.8765C124.306 45.3584 124.433 44.8936 124.687 44.4822C124.941 44.0657 125.276 43.7431 125.692 43.5146C126.114 43.2809 126.564 43.1641 127.041 43.1641C127.32 43.1641 127.572 43.192 127.795 43.2479C128.019 43.3037 128.209 43.3774 128.367 43.4688C128.524 43.5603 128.659 43.6619 128.771 43.7736V44.7413Z" fill="white"/>
<path d="M133.149 47.8423C133.5 47.8423 133.817 47.756 134.101 47.5833C134.386 47.4106 134.609 47.1769 134.772 46.8823C134.935 46.5826 135.016 46.2474 135.016 45.8765C135.016 45.5057 134.935 45.173 134.772 44.8784C134.609 44.5787 134.386 44.3425 134.101 44.1698C133.817 43.9971 133.5 43.9108 133.149 43.9108C132.799 43.9108 132.481 43.9971 132.197 44.1698C131.912 44.3425 131.686 44.5787 131.519 44.8784C131.356 45.173 131.275 45.5057 131.275 45.8765C131.275 46.2474 131.356 46.5826 131.519 46.8823C131.686 47.1769 131.912 47.4106 132.197 47.5833C132.481 47.756 132.799 47.8423 133.149 47.8423ZM133.149 48.589C132.651 48.589 132.199 48.4697 131.793 48.2309C131.386 47.9922 131.066 47.6671 130.833 47.2556C130.604 46.8442 130.49 46.3845 130.49 45.8765C130.49 45.3686 130.604 44.9089 130.833 44.4974C131.066 44.086 131.386 43.7609 131.793 43.5222C132.199 43.2834 132.651 43.1641 133.149 43.1641C133.647 43.1641 134.096 43.2834 134.498 43.5222C134.904 43.7609 135.222 44.086 135.45 44.4974C135.684 44.9089 135.801 45.3686 135.801 45.8765C135.801 46.3845 135.684 46.8442 135.45 47.2556C135.222 47.6671 134.904 47.9922 134.498 48.2309C134.096 48.4697 133.647 48.589 133.149 48.589Z" fill="white"/>
<path d="M137.863 43.1641L140.942 46.4099H140.096L143.083 43.1641V48.5205H142.321V44.3298H142.923L140.515 47.0194L138.023 44.3298H138.625V48.5205H137.863V43.1641Z" fill="white"/>
<path d="M145.417 43.1641L148.495 46.4099H147.649L150.636 43.1641V48.5205H149.874V44.3298H150.476L148.068 47.0194L145.577 44.3298H146.179V48.5205H145.417V43.1641Z" fill="white"/>
<path d="M153.694 46.4175C153.694 46.7172 153.755 46.9763 153.877 47.1947C154.004 47.408 154.171 47.5731 154.38 47.6899C154.593 47.8017 154.829 47.8576 155.088 47.8576C155.352 47.8576 155.588 47.8017 155.797 47.6899C156.01 47.5731 156.178 47.408 156.3 47.1947C156.421 46.9763 156.482 46.7172 156.482 46.4175V43.2326H157.244V46.4556C157.244 46.8874 157.153 47.2658 156.97 47.5909C156.792 47.9109 156.541 48.1573 156.216 48.33C155.891 48.5027 155.515 48.589 155.088 48.589C154.666 48.589 154.291 48.5027 153.96 48.33C153.635 48.1573 153.381 47.9109 153.199 47.5909C153.021 47.2658 152.932 46.8874 152.932 46.4556V43.2326H153.694V46.4175Z" fill="white"/>
<path d="M163.648 47.2785H163.168V43.2326H163.914V48.589L159.815 44.4746H160.295V48.5205H159.541V43.1641L163.648 47.2785Z" fill="white"/>
<path d="M167.015 48.5205H166.253V43.2326H167.015V48.5205Z" fill="white"/>
<path d="M173.548 44.7413C173.426 44.599 173.284 44.467 173.121 44.3451C172.959 44.2181 172.766 44.1139 172.542 44.0327C172.324 43.9514 172.088 43.9108 171.834 43.9108C171.483 43.9108 171.158 43.9946 170.858 44.1622C170.559 44.3298 170.317 44.5635 170.134 44.8632C169.957 45.1629 169.868 45.5007 169.868 45.8765C169.868 46.2626 169.957 46.6055 170.134 46.9052C170.317 47.1998 170.559 47.4309 170.858 47.5985C171.158 47.7611 171.483 47.8423 171.834 47.8423C172.088 47.8423 172.324 47.8017 172.542 47.7204C172.766 47.6391 172.959 47.5376 173.121 47.4156C173.284 47.2887 173.426 47.1541 173.548 47.0118V47.9795C173.37 48.1573 173.139 48.3046 172.855 48.4214C172.575 48.5331 172.23 48.589 171.818 48.589C171.321 48.589 170.863 48.4798 170.447 48.2614C170.03 48.043 169.698 47.728 169.449 47.3166C169.205 46.9052 169.083 46.4251 169.083 45.8765C169.083 45.3584 169.21 44.8936 169.464 44.4822C169.718 44.0657 170.053 43.7431 170.47 43.5146C170.891 43.2809 171.341 43.1641 171.818 43.1641C172.098 43.1641 172.349 43.192 172.573 43.2479C172.796 43.3037 172.987 43.3774 173.144 43.4688C173.302 43.5603 173.436 43.6619 173.548 43.7736V44.7413Z" fill="white"/>
<path d="M177.755 43.1641L180.338 48.5205H179.508L177.413 44.1165H178.076L175.98 48.5205H175.165L177.755 43.1641ZM176.422 46.5089H179.096V47.2099H176.422V46.5089Z" fill="white"/>
<path d="M183.672 48.5205H182.91V43.766H183.672V48.5205ZM181.143 43.2326H185.448V43.9565H181.143V43.2326Z" fill="white"/>
<path d="M188.121 48.5205H187.359V43.2326H188.121V48.5205Z" fill="white"/>
<path d="M192.848 47.8423C193.198 47.8423 193.516 47.756 193.8 47.5833C194.085 47.4106 194.308 47.1769 194.471 46.8823C194.633 46.5826 194.714 46.2474 194.714 45.8765C194.714 45.5057 194.633 45.173 194.471 44.8784C194.308 44.5787 194.085 44.3425 193.8 44.1698C193.516 43.9971 193.198 43.9108 192.848 43.9108C192.497 43.9108 192.18 43.9971 191.895 44.1698C191.611 44.3425 191.385 44.5787 191.217 44.8784C191.055 45.173 190.973 45.5057 190.973 45.8765C190.973 46.2474 191.055 46.5826 191.217 46.8823C191.385 47.1769 191.611 47.4106 191.895 47.5833C192.18 47.756 192.497 47.8423 192.848 47.8423ZM192.848 48.589C192.35 48.589 191.898 48.4697 191.491 48.2309C191.085 47.9922 190.765 47.6671 190.531 47.2556C190.303 46.8442 190.189 46.3845 190.189 45.8765C190.189 45.3686 190.303 44.9089 190.531 44.4974C190.765 44.086 191.085 43.7609 191.491 43.5222C191.898 43.2834 192.35 43.1641 192.848 43.1641C193.346 43.1641 193.795 43.2834 194.196 43.5222C194.603 43.7609 194.92 44.086 195.149 44.4974C195.382 44.9089 195.499 45.3686 195.499 45.8765C195.499 46.3845 195.382 46.8442 195.149 47.2556C194.92 47.6671 194.603 47.9922 194.196 48.2309C193.795 48.4697 193.346 48.589 192.848 48.589Z" fill="white"/>
<path d="M201.669 47.2785H201.189V43.2326H201.936V48.589L197.836 44.4746H198.316V48.5205H197.562V43.1641L201.669 47.2785Z" fill="white"/>
<path d="M211.294 44.7413C211.172 44.599 211.03 44.467 210.867 44.3451C210.704 44.2181 210.511 44.1139 210.288 44.0327C210.07 43.9514 209.833 43.9108 209.579 43.9108C209.229 43.9108 208.904 43.9946 208.604 44.1622C208.304 44.3298 208.063 44.5635 207.88 44.8632C207.702 45.1629 207.614 45.5007 207.614 45.8765C207.614 46.2626 207.702 46.6055 207.88 46.9052C208.063 47.1998 208.304 47.4309 208.604 47.5985C208.904 47.7611 209.229 47.8423 209.579 47.8423C209.833 47.8423 210.07 47.8017 210.288 47.7204C210.511 47.6391 210.704 47.5376 210.867 47.4156C211.03 47.2887 211.172 47.1541 211.294 47.0118V47.9795C211.116 48.1573 210.885 48.3046 210.6 48.4214C210.321 48.5331 209.976 48.589 209.564 48.589C209.066 48.589 208.609 48.4798 208.193 48.2614C207.776 48.043 207.443 47.728 207.194 47.3166C206.951 46.9052 206.829 46.4251 206.829 45.8765C206.829 45.3584 206.956 44.8936 207.21 44.4822C207.464 44.0657 207.799 43.7431 208.215 43.5146C208.637 43.2809 209.087 43.1641 209.564 43.1641C209.843 43.1641 210.095 43.192 210.318 43.2479C210.542 43.3037 210.732 43.3774 210.89 43.4688C211.047 43.5603 211.182 43.6619 211.294 43.7736V44.7413Z" fill="white"/>
<path d="M215.672 47.8423C216.023 47.8423 216.34 47.756 216.624 47.5833C216.909 47.4106 217.132 47.1769 217.295 46.8823C217.458 46.5826 217.539 46.2474 217.539 45.8765C217.539 45.5057 217.458 45.173 217.295 44.8784C217.132 44.5787 216.909 44.3425 216.624 44.1698C216.34 43.9971 216.023 43.9108 215.672 43.9108C215.322 43.9108 215.004 43.9971 214.72 44.1698C214.435 44.3425 214.209 44.5787 214.042 44.8784C213.879 45.173 213.798 45.5057 213.798 45.8765C213.798 46.2474 213.879 46.5826 214.042 46.8823C214.209 47.1769 214.435 47.4106 214.72 47.5833C215.004 47.756 215.322 47.8423 215.672 47.8423ZM215.672 48.589C215.174 48.589 214.722 48.4697 214.316 48.2309C213.909 47.9922 213.589 47.6671 213.356 47.2556C213.127 46.8442 213.013 46.3845 213.013 45.8765C213.013 45.3686 213.127 44.9089 213.356 44.4974C213.589 44.086 213.909 43.7609 214.316 43.5222C214.722 43.2834 215.174 43.1641 215.672 43.1641C216.17 43.1641 216.619 43.2834 217.021 43.5222C217.427 43.7609 217.745 44.086 217.973 44.4974C218.207 44.9089 218.324 45.3686 218.324 45.8765C218.324 46.3845 218.207 46.8442 217.973 47.2556C217.745 47.6671 217.427 47.9922 217.021 48.2309C216.619 48.4697 216.17 48.589 215.672 48.589Z" fill="white"/>
<path d="M220.386 43.2326H222.101C222.466 43.2326 222.784 43.2961 223.053 43.4231C223.327 43.5501 223.538 43.7355 223.686 43.9793C223.838 44.2231 223.914 44.5178 223.914 44.8632C223.914 45.1984 223.833 45.4905 223.67 45.7394C223.508 45.9832 223.287 46.1712 223.007 46.3032C222.733 46.4302 222.426 46.4937 222.086 46.4937H221.019V45.7775H222.055C222.4 45.7775 222.665 45.6937 222.847 45.5261C223.035 45.3584 223.129 45.1375 223.129 44.8632C223.129 44.5838 223.035 44.3628 222.847 44.2003C222.665 44.0377 222.4 43.9565 222.055 43.9565H221.011L221.148 43.8193V48.5205H220.386V43.2326ZM221.895 46.2347L222.649 45.9908L224.47 48.5205H223.556L221.895 46.2347Z" fill="white"/>
<path d="M229.382 45.4803V46.1889H226.913V45.4803H229.382ZM226.875 47.7966H229.511V48.5205H226.273V43.2326H229.511V43.9565H226.875L227.035 43.8041V47.949L226.875 47.7966Z" fill="white"/>
</svg>
