<svg width="115" height="20" viewBox="0 0 115 20" fill="none" xmlns="http://www.w3.org/2000/svg">
<path d="M22.8672 19.9983H9.80022L0 0H13.067L22.8672 19.9983Z" fill="#FF6D00"/>
<path d="M16.3281 6.66406H29.3951L22.8616 19.9963L16.3281 6.66406Z" fill="#FCCDAA"/>
<path d="M22.8672 20L9.80022 20L16.3337 6.66781L22.8672 20Z" fill="#FFA461"/>
<path d="M41.8677 13.4205H39.4047L44.3692 3.29008H47.4095L40.617 17.1115L33.8438 3.29008H36.884L41.8677 13.4205Z" fill="#0E0E14"/>
<path d="M53.7711 16.9152H50.9232V3.29008H53.7711V16.9152Z" fill="#0E0E14"/>
<path d="M68.9516 12.2819H67.4892V3.29008H70.2793V17.1115L59.8501 7.92339H61.3125V16.9152H58.5224V3.09375L68.9516 12.2819Z" fill="#0E0E14"/>
<path d="M81.0518 16.9152H78.2039V5.44967H81.0518V16.9152ZM74.1053 3.29008H85.1696V6.05829H74.1053V3.29008Z" fill="#0E0E14"/>
<path d="M97.4067 8.68907V11.3395H91.5378V8.68907H97.4067ZM90.8451 14.1666H97.6568V16.9152H88.9979V3.29008H97.6568V6.03866H90.8451L91.8457 5.07665V15.0893L90.8451 14.1666Z" fill="#0E0E14"/>
<path d="M108.15 14.2648C108.881 14.2648 109.542 14.0815 110.132 13.715C110.735 13.3486 111.203 12.8512 111.536 12.223C111.883 11.5816 112.056 10.8748 112.056 10.1026C112.056 9.3304 111.883 8.63017 111.536 8.00192C111.203 7.36059 110.735 6.85668 110.132 6.49021C109.542 6.12373 108.881 5.94049 108.15 5.94049C107.419 5.94049 106.752 6.12373 106.149 6.49021C105.546 6.85668 105.071 7.36059 104.725 8.00192C104.391 8.63017 104.224 9.3304 104.224 10.1026C104.224 10.8748 104.391 11.5816 104.725 12.223C105.071 12.8512 105.546 13.3486 106.149 13.715C106.752 14.0815 107.419 14.2648 108.15 14.2648ZM108.15 17.1115C106.854 17.1115 105.68 16.8105 104.628 16.2084C103.589 15.5932 102.768 14.7556 102.165 13.6954C101.575 12.6222 101.28 11.4246 101.28 10.1026C101.28 8.78069 101.575 7.58964 102.165 6.52947C102.768 5.45622 103.589 4.61856 104.628 4.01649C105.68 3.40133 106.854 3.09375 108.15 3.09375C109.445 3.09375 110.613 3.40133 111.652 4.01649C112.691 4.61856 113.506 5.45622 114.096 6.52947C114.699 7.58964 115 8.78069 115 10.1026C115 11.4246 114.699 12.6222 114.096 13.6954C113.506 14.7556 112.691 15.5932 111.652 16.2084C110.613 16.8105 109.445 17.1115 108.15 17.1115Z" fill="#0E0E14"/>
</svg>
