<svg width="580" height="216" viewBox="0 0 580 216" fill="none" xmlns="http://www.w3.org/2000/svg">
<path fill-rule="evenodd" clip-rule="evenodd" d="M-143.576 -90H-145.228V-88.215H-143.576V-90ZM-168.348 -89.9996H-170V-88.2146H-168.348V-89.9996ZM-120.455 -89.9999H-118.804V-88.2149H-120.455V-89.9999ZM-94.0317 -89.9996H-95.6832V-88.2146H-94.0317V-89.9996ZM-70.9109 -89.9996H-69.2594V-88.2146H-70.9109V-89.9996ZM-44.4871 -89.9996H-46.1386V-88.2146H-44.4871V-89.9996ZM-21.3663 -89.9996H-19.7148V-88.2146H-21.3663V-89.9996ZM5.05745 -89.9996H3.40596V-88.2146H5.05745V-89.9996ZM28.1781 -89.9996H29.8296V-88.2146H28.1781V-89.9996ZM54.6019 -89.9996H52.9504V-88.2146H54.6019V-89.9996ZM77.7226 -89.9996H79.3741V-88.2146H77.7226V-89.9996ZM104.146 -89.9996H102.495V-88.2146H104.146V-89.9996ZM127.267 -89.9996H128.919V-88.2146H127.267V-89.9996ZM153.691 -89.9996H152.039V-88.2146H153.691V-89.9996ZM176.812 -89.9996H178.463V-88.2146H176.812V-89.9996ZM203.235 -89.9996H201.584V-88.2146H203.235V-89.9996ZM226.356 -89.9996H228.008V-88.2146H226.356V-89.9996ZM252.78 -89.9996H251.129V-88.2146H252.78V-89.9996ZM275.901 -89.9996H277.552V-88.2146H275.901V-89.9996ZM302.325 -89.9996H300.673V-88.2146H302.325V-89.9996ZM325.445 -89.9996H327.097V-88.2146H325.445V-89.9996ZM351.869 -89.9996H350.218V-88.2146H351.869V-89.9996ZM374.99 -89.9996H376.642V-88.2146H374.99V-89.9996ZM401.414 -89.9996H399.762V-88.2146H401.414V-89.9996ZM424.535 -89.9996H426.186V-88.2146H424.535V-89.9996ZM450.958 -89.9996H449.307V-88.2146H450.958V-89.9996ZM474.079 -89.9996H475.731V-88.2146H474.079V-89.9996ZM500.503 -89.9996H498.851V-88.2146H500.503V-89.9996ZM523.624 -89.9996H525.275V-88.2146H523.624V-89.9996ZM550.047 -89.9996H548.396V-88.2146H550.047V-89.9996ZM573.168 -89.9996H574.82V-88.2146H573.168V-89.9996ZM599.592 -89.9996H597.941V-88.2146H599.592V-89.9996ZM622.713 -89.9996H624.364V-88.2146H622.713V-89.9996ZM649.137 -89.9996H647.485V-88.2146H649.137V-89.9996ZM672.257 -89.9996H673.909V-88.2146H672.257V-89.9996ZM698.681 -89.9996H697.03V-88.2146H698.681V-89.9996ZM721.802 -89.9996H723.453V-88.2146H721.802V-89.9996ZM748.226 -89.9996H746.574V-88.2146H748.226V-89.9996ZM-168.348 -62.3209H-170V-60.5359H-168.348V-62.3209ZM-143.576 -62.3209H-145.228V-60.5359H-143.576V-62.3209ZM-120.455 -62.3209H-118.804V-60.5359H-120.455V-62.3209ZM-94.0315 -62.3209H-95.683V-60.5359H-94.0315V-62.3209ZM-70.9108 -62.3209H-69.2593V-60.5359H-70.9108V-62.3209ZM-44.487 -62.3209H-46.1384V-60.5359H-44.487V-62.3209ZM-21.3662 -62.3209H-19.7147V-60.5359H-21.3662V-62.3209ZM5.0575 -62.3209H3.40601V-60.5359H5.0575V-62.3209ZM28.1782 -62.3209H29.8297V-60.5359H28.1782V-62.3209ZM54.602 -62.3209H52.9505V-60.5359H54.602V-62.3209ZM77.7228 -62.3209H79.3743V-60.5359H77.7228V-62.3209ZM104.147 -62.3209H102.495V-60.5359H104.147V-62.3209ZM127.267 -62.3209H128.919V-60.5359H127.267V-62.3209ZM153.691 -62.3209H152.04V-60.5359H153.691V-62.3209ZM176.812 -62.3209H178.463V-60.5359H176.812V-62.3209ZM203.236 -62.3209H201.584V-60.5359H203.236V-62.3209ZM226.356 -62.3209H228.008V-60.5359H226.356V-62.3209ZM252.78 -62.3209H251.129V-60.5359H252.78V-62.3209ZM275.901 -62.3209H277.552V-60.5359H275.901V-62.3209ZM302.325 -62.3209H300.673V-60.5359H302.325V-62.3209ZM325.446 -62.3209H327.097V-60.5359H325.446V-62.3209ZM351.869 -62.3209H350.218V-60.5359H351.869V-62.3209ZM374.99 -62.3209H376.642V-60.5359H374.99V-62.3209ZM401.414 -62.3209H399.763V-60.5359H401.414V-62.3209ZM424.535 -62.3209H426.186V-60.5359H424.535V-62.3209ZM450.958 -62.3209H449.307V-60.5359H450.958V-62.3209ZM474.079 -62.3209H475.731V-60.5359H474.079V-62.3209ZM500.503 -62.3209H498.852V-60.5359H500.503V-62.3209ZM523.624 -62.3209H525.275V-60.5359H523.624V-62.3209ZM550.048 -62.3209H548.396V-60.5359H550.048V-62.3209ZM573.168 -62.3209H574.82V-60.5359H573.168V-62.3209ZM599.592 -62.3209H597.941V-60.5359H599.592V-62.3209ZM622.713 -62.3209H624.364V-60.5359H622.713V-62.3209ZM649.137 -62.3209H647.485V-60.5359H649.137V-62.3209ZM672.257 -62.3209H673.909V-60.5359H672.257V-62.3209ZM698.681 -62.3209H697.03V-60.5359H698.681V-62.3209ZM721.802 -62.3209H723.453V-60.5359H721.802V-62.3209ZM748.226 -62.3209H746.574V-60.5359H748.226V-62.3209ZM-170 -34.6423H-168.348V-32.8573H-170V-34.6423ZM-143.576 -34.6423H-145.228V-32.8573H-143.576V-34.6423ZM-120.455 -34.6423H-118.804V-32.8573H-120.455V-34.6423ZM-94.0315 -34.6423H-95.683V-32.8573H-94.0315V-34.6423ZM-70.9108 -34.6423H-69.2593V-32.8573H-70.9108V-34.6423ZM-44.487 -34.6423H-46.1384V-32.8573H-44.487V-34.6423ZM-21.3662 -34.6423H-19.7147V-32.8573H-21.3662V-34.6423ZM5.0575 -34.6423H3.40601V-32.8573H5.0575V-34.6423ZM28.1782 -34.6423H29.8297V-32.8573H28.1782V-34.6423ZM54.602 -34.6423H52.9505V-32.8573H54.602V-34.6423ZM77.7228 -34.6423H79.3743V-32.8573H77.7228V-34.6423ZM104.147 -34.6423H102.495V-32.8573H104.147V-34.6423ZM127.267 -34.6423H128.919V-32.8573H127.267V-34.6423ZM153.691 -34.6423H152.04V-32.8573H153.691V-34.6423ZM176.812 -34.6423H178.463V-32.8573H176.812V-34.6423ZM203.236 -34.6423H201.584V-32.8573H203.236V-34.6423ZM226.356 -34.6423H228.008V-32.8573H226.356V-34.6423ZM252.78 -34.6423H251.129V-32.8573H252.78V-34.6423ZM275.901 -34.6423H277.552V-32.8573H275.901V-34.6423ZM302.325 -34.6423H300.673V-32.8573H302.325V-34.6423ZM325.446 -34.6423H327.097V-32.8573H325.446V-34.6423ZM351.869 -34.6423H350.218V-32.8573H351.869V-34.6423ZM374.99 -34.6423H376.642V-32.8573H374.99V-34.6423ZM401.414 -34.6423H399.763V-32.8573H401.414V-34.6423ZM424.535 -34.6423H426.186V-32.8573H424.535V-34.6423ZM450.958 -34.6423H449.307V-32.8573H450.958V-34.6423ZM474.079 -34.6423H475.731V-32.8573H474.079V-34.6423ZM500.503 -34.6423H498.852V-32.8573H500.503V-34.6423ZM523.624 -34.6423H525.275V-32.8573H523.624V-34.6423ZM550.048 -34.6423H548.396V-32.8573H550.048V-34.6423ZM573.168 -34.6423H574.82V-32.8573H573.168V-34.6423ZM599.592 -34.6423H597.941V-32.8573H599.592V-34.6423ZM622.713 -34.6423H624.364V-32.8573H622.713V-34.6423ZM649.137 -34.6423H647.485V-32.8573H649.137V-34.6423ZM672.257 -34.6423H673.909V-32.8573H672.257V-34.6423ZM698.681 -34.6423H697.03V-32.8573H698.681V-34.6423ZM721.802 -34.6423H723.453V-32.8573H721.802V-34.6423ZM748.226 -34.6423H746.574V-32.8573H748.226V-34.6423ZM-145.228 -6.96387H-143.576V-5.17888H-145.228V-6.96387ZM-170 -6.96384H-168.349V-5.17884H-170V-6.96384ZM-118.804 -6.96387H-120.455V-5.17888H-118.804V-6.96387ZM-95.6831 -6.96387H-94.0316V-5.17888H-95.6831V-6.96387ZM-69.2595 -6.96387H-70.9109V-5.17888H-69.2595V-6.96387ZM-46.1386 -6.96387H-44.4872V-5.17888H-46.1386V-6.96387ZM-19.7149 -6.96387H-21.3664V-5.17888H-19.7149V-6.96387ZM3.40579 -6.96387H5.05728V-5.17888H3.40579V-6.96387ZM29.8295 -6.96387H28.178V-5.17888H29.8295V-6.96387ZM52.9504 -6.96387H54.6019V-5.17888H52.9504V-6.96387ZM79.3742 -6.96387H77.7227V-5.17888H79.3742V-6.96387ZM102.495 -6.96387H104.146V-5.17888H102.495V-6.96387ZM128.919 -6.96387H127.267V-5.17888H128.919V-6.96387ZM152.039 -6.96387H153.691V-5.17888H152.039V-6.96387ZM178.463 -6.96387H176.812V-5.17888H178.463V-6.96387ZM201.584 -6.96387H203.235V-5.17888H201.584V-6.96387ZM228.008 -6.96387H226.356V-5.17888H228.008V-6.96387ZM251.128 -6.96387H252.78V-5.17888H251.128V-6.96387ZM277.552 -6.96387H275.901V-5.17888H277.552V-6.96387ZM300.673 -6.96387H302.324V-5.17888H300.673V-6.96387ZM327.097 -6.96387H325.445V-5.17888H327.097V-6.96387ZM350.218 -6.96387H351.869V-5.17888H350.218V-6.96387ZM376.641 -6.96387H374.99V-5.17888H376.641V-6.96387ZM399.762 -6.96387H401.414V-5.17888H399.762V-6.96387ZM426.186 -6.96387H424.535V-5.17888H426.186V-6.96387ZM449.307 -6.96387H450.958V-5.17888H449.307V-6.96387ZM475.731 -6.96387H474.079V-5.17888H475.731V-6.96387ZM498.851 -6.96387H500.503V-5.17888H498.851V-6.96387ZM525.275 -6.96387H523.624V-5.17888H525.275V-6.96387ZM548.396 -6.96387H550.047V-5.17888H548.396V-6.96387ZM574.82 -6.96387H573.168V-5.17888H574.82V-6.96387ZM597.941 -6.96387H599.592V-5.17888H597.941V-6.96387ZM624.364 -6.96387H622.713V-5.17888H624.364V-6.96387ZM647.485 -6.96387H649.137V-5.17888H647.485V-6.96387ZM673.909 -6.96387H672.257V-5.17888H673.909V-6.96387ZM697.03 -6.96387H698.681V-5.17888H697.03V-6.96387ZM723.453 -6.96387H721.802V-5.17888H723.453V-6.96387ZM746.574 -6.96387H748.226V-5.17888H746.574V-6.96387ZM-168.349 20.7146H-170V22.4996H-168.349V20.7146ZM-145.228 20.7146H-143.576V22.4996H-145.228V20.7146ZM-118.804 20.7146H-120.455V22.4996H-118.804V20.7146ZM-95.6831 20.7146H-94.0316V22.4996H-95.6831V20.7146ZM-69.2595 20.7146H-70.9109V22.4996H-69.2595V20.7146ZM-46.1386 20.7146H-44.4872V22.4996H-46.1386V20.7146ZM-19.7149 20.7146H-21.3664V22.4996H-19.7149V20.7146ZM3.40579 20.7146H5.05728V22.4996H3.40579V20.7146ZM29.8295 20.7146H28.178V22.4996H29.8295V20.7146ZM52.9504 20.7146H54.6019V22.4996H52.9504V20.7146ZM79.3742 20.7146H77.7227V22.4996H79.3742V20.7146ZM102.495 20.7146H104.146V22.4996H102.495V20.7146ZM128.919 20.7146H127.267V22.4996H128.919V20.7146ZM152.039 20.7146H153.691V22.4996H152.039V20.7146ZM178.463 20.7146H176.812V22.4996H178.463V20.7146ZM201.584 20.7146H203.235V22.4996H201.584V20.7146ZM228.008 20.7146H226.356V22.4996H228.008V20.7146ZM251.128 20.7146H252.78V22.4996H251.128V20.7146ZM277.552 20.7146H275.901V22.4996H277.552V20.7146ZM300.673 20.7146H302.324V22.4996H300.673V20.7146ZM327.097 20.7146H325.445V22.4996H327.097V20.7146ZM350.218 20.7146H351.869V22.4996H350.218V20.7146ZM376.641 20.7146H374.99V22.4996H376.641V20.7146ZM399.762 20.7146H401.414V22.4996H399.762V20.7146ZM426.186 20.7146H424.535V22.4996H426.186V20.7146ZM449.307 20.7146H450.958V22.4996H449.307V20.7146ZM475.731 20.7146H474.079V22.4996H475.731V20.7146ZM498.851 20.7146H500.503V22.4996H498.851V20.7146ZM525.275 20.7146H523.624V22.4996H525.275V20.7146ZM548.396 20.7146H550.047V22.4996H548.396V20.7146ZM574.82 20.7146H573.168V22.4996H574.82V20.7146ZM597.941 20.7146H599.592V22.4996H597.941V20.7146ZM624.364 20.7146H622.713V22.4996H624.364V20.7146ZM647.485 20.7146H649.137V22.4996H647.485V20.7146ZM673.909 20.7146H672.257V22.4996H673.909V20.7146ZM697.03 20.7146H698.681V22.4996H697.03V20.7146ZM723.453 20.7146H721.802V22.4996H723.453V20.7146ZM746.574 20.7146H748.226V22.4996H746.574V20.7146ZM-168.349 48.3932H-170V50.1782H-168.349V48.3932ZM-145.228 48.3932H-143.576V50.1782H-145.228V48.3932ZM-118.804 48.3932H-120.455V50.1782H-118.804V48.3932ZM-95.6831 48.3932H-94.0316V50.1782H-95.6831V48.3932ZM-69.2595 48.3932H-70.9109V50.1782H-69.2595V48.3932ZM-46.1386 48.3932H-44.4872V50.1782H-46.1386V48.3932ZM-19.7149 48.3932H-21.3664V50.1782H-19.7149V48.3932ZM3.40579 48.3932H5.05728V50.1782H3.40579V48.3932ZM29.8295 48.3932H28.178V50.1782H29.8295V48.3932ZM52.9504 48.3932H54.6019V50.1782H52.9504V48.3932ZM79.3742 48.3932H77.7227V50.1782H79.3742V48.3932ZM102.495 48.3932H104.146V50.1782H102.495V48.3932ZM128.919 48.3932H127.267V50.1782H128.919V48.3932ZM152.039 48.3932H153.691V50.1782H152.039V48.3932ZM178.463 48.3932H176.812V50.1782H178.463V48.3932ZM201.584 48.3932H203.235V50.1782H201.584V48.3932ZM228.008 48.3932H226.356V50.1782H228.008V48.3932ZM251.128 48.3932H252.78V50.1782H251.128V48.3932ZM277.552 48.3932H275.901V50.1782H277.552V48.3932ZM300.673 48.3932H302.324V50.1782H300.673V48.3932ZM327.097 48.3932H325.445V50.1782H327.097V48.3932ZM350.218 48.3932H351.869V50.1782H350.218V48.3932ZM376.641 48.3932H374.99V50.1782H376.641V48.3932ZM399.762 48.3932H401.414V50.1782H399.762V48.3932ZM426.186 48.3932H424.535V50.1782H426.186V48.3932ZM449.307 48.3932H450.958V50.1782H449.307V48.3932ZM475.731 48.3932H474.079V50.1782H475.731V48.3932ZM498.851 48.3932H500.503V50.1782H498.851V48.3932ZM525.275 48.3932H523.624V50.1782H525.275V48.3932ZM548.396 48.3932H550.047V50.1782H548.396V48.3932ZM574.82 48.3932H573.168V50.1782H574.82V48.3932ZM597.941 48.3932H599.592V50.1782H597.941V48.3932ZM624.364 48.3932H622.713V50.1782H624.364V48.3932ZM647.485 48.3932H649.137V50.1782H647.485V48.3932ZM673.909 48.3932H672.257V50.1782H673.909V48.3932ZM697.03 48.3932H698.681V50.1782H697.03V48.3932ZM723.453 48.3932H721.802V50.1782H723.453V48.3932ZM746.574 48.3932H748.226V50.1782H746.574V48.3932ZM-168.349 76.0717H-170V77.8568H-168.349V76.0717ZM-145.228 76.0717H-143.576V77.8568H-145.228V76.0717ZM-118.804 76.0717H-120.455V77.8568H-118.804V76.0717ZM-95.6831 76.0717H-94.0316V77.8568H-95.6831V76.0717ZM-69.2595 76.0717H-70.9109V77.8568H-69.2595V76.0717ZM-46.1386 76.0717H-44.4872V77.8568H-46.1386V76.0717ZM-19.7149 76.0717H-21.3664V77.8568H-19.7149V76.0717ZM3.40579 76.0717H5.05728V77.8568H3.40579V76.0717ZM29.8295 76.0717H28.178V77.8568H29.8295V76.0717ZM52.9504 76.0717H54.6019V77.8568H52.9504V76.0717ZM79.3742 76.0717H77.7227V77.8568H79.3742V76.0717ZM102.495 76.0717H104.146V77.8568H102.495V76.0717ZM128.919 76.0717H127.267V77.8568H128.919V76.0717ZM152.039 76.0717H153.691V77.8568H152.039V76.0717ZM178.463 76.0717H176.812V77.8568H178.463V76.0717ZM201.584 76.0717H203.235V77.8568H201.584V76.0717ZM228.008 76.0717H226.356V77.8568H228.008V76.0717ZM251.128 76.0717H252.78V77.8568H251.128V76.0717ZM277.552 76.0717H275.901V77.8568H277.552V76.0717ZM300.673 76.0717H302.324V77.8568H300.673V76.0717ZM327.097 76.0717H325.445V77.8568H327.097V76.0717ZM350.218 76.0717H351.869V77.8568H350.218V76.0717ZM376.641 76.0717H374.99V77.8568H376.641V76.0717ZM399.762 76.0717H401.414V77.8568H399.762V76.0717ZM426.186 76.0717H424.535V77.8568H426.186V76.0717ZM449.307 76.0717H450.958V77.8568H449.307V76.0717ZM475.731 76.0717H474.079V77.8568H475.731V76.0717ZM498.851 76.0717H500.503V77.8568H498.851V76.0717ZM525.275 76.0717H523.624V77.8568H525.275V76.0717ZM548.396 76.0717H550.047V77.8568H548.396V76.0717ZM574.82 76.0717H573.168V77.8568H574.82V76.0717ZM597.941 76.0717H599.592V77.8568H597.941V76.0717ZM624.364 76.0717H622.713V77.8568H624.364V76.0717ZM647.485 76.0717H649.137V77.8568H647.485V76.0717ZM673.909 76.0717H672.257V77.8568H673.909V76.0717ZM697.03 76.0717H698.681V77.8568H697.03V76.0717ZM723.453 76.0717H721.802V77.8568H723.453V76.0717ZM746.574 76.0717H748.226V77.8568H746.574V76.0717ZM-143.576 103.75H-145.228V105.535H-143.576V103.75ZM-168.348 103.75H-170V105.535H-168.348V103.75ZM-120.455 103.75H-118.804V105.535H-120.455V103.75ZM-94.0315 103.75H-95.683V105.535H-94.0315V103.75ZM-70.9108 103.75H-69.2593V105.535H-70.9108V103.75ZM-44.487 103.75H-46.1385V105.535H-44.487V103.75ZM-21.3663 103.75H-19.7148V105.535H-21.3663V103.75ZM5.05743 103.75H3.40594V105.535H5.05743V103.75ZM28.1782 103.75H29.8297V105.535H28.1782V103.75ZM54.602 103.75H52.9505V105.535H54.602V103.75ZM77.7228 103.75H79.3743V105.535H77.7228V103.75ZM104.147 103.75H102.495V105.535H104.147V103.75ZM127.267 103.75H128.919V105.535H127.267V103.75ZM153.691 103.75H152.04V105.535H153.691V103.75ZM176.812 103.75H178.463V105.535H176.812V103.75ZM203.236 103.75H201.584V105.535H203.236V103.75ZM226.356 103.75H228.008V105.535H226.356V103.75ZM252.78 103.75H251.129V105.535H252.78V103.75ZM275.901 103.75H277.552V105.535H275.901V103.75ZM302.325 103.75H300.673V105.535H302.325V103.75ZM325.445 103.75H327.097V105.535H325.445V103.75ZM351.869 103.75H350.218V105.535H351.869V103.75ZM374.99 103.75H376.642V105.535H374.99V103.75ZM401.414 103.75H399.762V105.535H401.414V103.75ZM424.535 103.75H426.186V105.535H424.535V103.75ZM450.958 103.75H449.307V105.535H450.958V103.75ZM474.079 103.75H475.731V105.535H474.079V103.75ZM500.503 103.75H498.851V105.535H500.503V103.75ZM523.624 103.75H525.275V105.535H523.624V103.75ZM550.047 103.75H548.396V105.535H550.047V103.75ZM573.168 103.75H574.82V105.535H573.168V103.75ZM599.592 103.75H597.941V105.535H599.592V103.75ZM622.713 103.75H624.364V105.535H622.713V103.75ZM649.137 103.75H647.485V105.535H649.137V103.75ZM672.257 103.75H673.909V105.535H672.257V103.75ZM698.681 103.75H697.03V105.535H698.681V103.75ZM721.802 103.75H723.453V105.535H721.802V103.75ZM748.226 103.75H746.574V105.535H748.226V103.75ZM-170 131.429H-168.348V133.214H-170V131.429ZM-143.576 131.429H-145.228V133.214H-143.576V131.429ZM-120.455 131.429H-118.804V133.214H-120.455V131.429ZM-94.0315 131.429H-95.683V133.214H-94.0315V131.429ZM-70.9108 131.429H-69.2593V133.214H-70.9108V131.429ZM-44.487 131.429H-46.1385V133.214H-44.487V131.429ZM-21.3663 131.429H-19.7148V133.214H-21.3663V131.429ZM5.05743 131.429H3.40594V133.214H5.05743V131.429ZM28.1782 131.429H29.8297V133.214H28.1782V131.429ZM54.602 131.429H52.9505V133.214H54.602V131.429ZM77.7228 131.429H79.3743V133.214H77.7228V131.429ZM104.147 131.429H102.495V133.214H104.147V131.429ZM127.267 131.429H128.919V133.214H127.267V131.429ZM153.691 131.429H152.04V133.214H153.691V131.429ZM176.812 131.429H178.463V133.214H176.812V131.429ZM203.236 131.429H201.584V133.214H203.236V131.429ZM226.356 131.429H228.008V133.214H226.356V131.429ZM252.78 131.429H251.129V133.214H252.78V131.429ZM275.901 131.429H277.552V133.214H275.901V131.429ZM302.325 131.429H300.673V133.214H302.325V131.429ZM325.445 131.429H327.097V133.214H325.445V131.429ZM351.869 131.429H350.218V133.214H351.869V131.429ZM374.99 131.429H376.642V133.214H374.99V131.429ZM401.414 131.429H399.762V133.214H401.414V131.429ZM424.535 131.429H426.186V133.214H424.535V131.429ZM450.958 131.429H449.307V133.214H450.958V131.429ZM474.079 131.429H475.731V133.214H474.079V131.429ZM500.503 131.429H498.851V133.214H500.503V131.429ZM523.624 131.429H525.275V133.214H523.624V131.429ZM550.047 131.429H548.396V133.214H550.047V131.429ZM573.168 131.429H574.82V133.214H573.168V131.429ZM599.592 131.429H597.941V133.214H599.592V131.429ZM622.713 131.429H624.364V133.214H622.713V131.429ZM649.137 131.429H647.485V133.214H649.137V131.429ZM672.257 131.429H673.909V133.214H672.257V131.429ZM698.681 131.429H697.03V133.214H698.681V131.429ZM721.802 131.429H723.453V133.214H721.802V131.429ZM748.226 131.429H746.574V133.214H748.226V131.429ZM-170 159.107H-168.348V160.892H-170V159.107ZM-143.576 159.107H-145.228V160.892H-143.576V159.107ZM-120.455 159.107H-118.804V160.892H-120.455V159.107ZM-94.0315 159.107H-95.683V160.892H-94.0315V159.107ZM-70.9108 159.107H-69.2593V160.892H-70.9108V159.107ZM-44.487 159.107H-46.1385V160.892H-44.487V159.107ZM-21.3663 159.107H-19.7148V160.892H-21.3663V159.107ZM5.05743 159.107H3.40594V160.892H5.05743V159.107ZM28.1782 159.107H29.8297V160.892H28.1782V159.107ZM54.602 159.107H52.9505V160.892H54.602V159.107ZM77.7228 159.107H79.3743V160.892H77.7228V159.107ZM104.147 159.107H102.495V160.892H104.147V159.107ZM127.267 159.107H128.919V160.892H127.267V159.107ZM153.691 159.107H152.04V160.892H153.691V159.107ZM176.812 159.107H178.463V160.892H176.812V159.107ZM203.236 159.107H201.584V160.892H203.236V159.107ZM226.356 159.107H228.008V160.892H226.356V159.107ZM252.78 159.107H251.129V160.892H252.78V159.107ZM275.901 159.107H277.552V160.892H275.901V159.107ZM302.325 159.107H300.673V160.892H302.325V159.107ZM325.445 159.107H327.097V160.892H325.445V159.107ZM351.869 159.107H350.218V160.892H351.869V159.107ZM374.99 159.107H376.642V160.892H374.99V159.107ZM401.414 159.107H399.762V160.892H401.414V159.107ZM424.535 159.107H426.186V160.892H424.535V159.107ZM450.958 159.107H449.307V160.892H450.958V159.107ZM474.079 159.107H475.731V160.892H474.079V159.107ZM500.503 159.107H498.851V160.892H500.503V159.107ZM523.624 159.107H525.275V160.892H523.624V159.107ZM550.047 159.107H548.396V160.892H550.047V159.107ZM573.168 159.107H574.82V160.892H573.168V159.107ZM599.592 159.107H597.941V160.892H599.592V159.107ZM622.713 159.107H624.364V160.892H622.713V159.107ZM649.137 159.107H647.485V160.892H649.137V159.107ZM672.257 159.107H673.909V160.892H672.257V159.107ZM698.681 159.107H697.03V160.892H698.681V159.107ZM721.802 159.107H723.453V160.892H721.802V159.107ZM748.226 159.107H746.574V160.892H748.226V159.107ZM-170 186.786H-168.348V188.571H-170V186.786ZM-143.576 186.786H-145.228V188.571H-143.576V186.786ZM-120.455 186.786H-118.804V188.571H-120.455V186.786ZM-94.0315 186.786H-95.683V188.571H-94.0315V186.786ZM-70.9108 186.786H-69.2593V188.571H-70.9108V186.786ZM-44.487 186.786H-46.1385V188.571H-44.487V186.786ZM-21.3663 186.786H-19.7148V188.571H-21.3663V186.786ZM5.05743 186.786H3.40594V188.571H5.05743V186.786ZM28.1782 186.786H29.8297V188.571H28.1782V186.786ZM54.602 186.786H52.9505V188.571H54.602V186.786ZM77.7228 186.786H79.3743V188.571H77.7228V186.786ZM104.147 186.786H102.495V188.571H104.147V186.786ZM127.267 186.786H128.919V188.571H127.267V186.786ZM153.691 186.786H152.04V188.571H153.691V186.786ZM176.812 186.786H178.463V188.571H176.812V186.786ZM203.236 186.786H201.584V188.571H203.236V186.786ZM226.356 186.786H228.008V188.571H226.356V186.786ZM252.78 186.786H251.129V188.571H252.78V186.786ZM275.901 186.786H277.552V188.571H275.901V186.786ZM302.325 186.786H300.673V188.571H302.325V186.786ZM325.445 186.786H327.097V188.571H325.445V186.786ZM351.869 186.786H350.218V188.571H351.869V186.786ZM374.99 186.786H376.642V188.571H374.99V186.786ZM401.414 186.786H399.762V188.571H401.414V186.786ZM424.535 186.786H426.186V188.571H424.535V186.786ZM450.958 186.786H449.307V188.571H450.958V186.786ZM474.079 186.786H475.731V188.571H474.079V186.786ZM500.503 186.786H498.851V188.571H500.503V186.786ZM523.624 186.786H525.275V188.571H523.624V186.786ZM550.047 186.786H548.396V188.571H550.047V186.786ZM573.168 186.786H574.82V188.571H573.168V186.786ZM599.592 186.786H597.941V188.571H599.592V186.786ZM622.713 186.786H624.364V188.571H622.713V186.786ZM649.137 186.786H647.485V188.571H649.137V186.786ZM672.257 186.786H673.909V188.571H672.257V186.786ZM698.681 186.786H697.03V188.571H698.681V186.786ZM721.802 186.786H723.453V188.571H721.802V186.786ZM748.226 186.786H746.574V188.571H748.226V186.786ZM-170 214.464H-168.348V216.249H-170V214.464ZM-143.576 214.464H-145.228V216.249H-143.576V214.464ZM-120.455 214.464H-118.804V216.249H-120.455V214.464ZM-94.0315 214.464H-95.683V216.249H-94.0315V214.464ZM-70.9108 214.464H-69.2593V216.249H-70.9108V214.464ZM-44.487 214.464H-46.1385V216.249H-44.487V214.464ZM-21.3663 214.464H-19.7148V216.249H-21.3663V214.464ZM5.05743 214.464H3.40594V216.249H5.05743V214.464ZM28.1782 214.464H29.8297V216.249H28.1782V214.464ZM54.602 214.464H52.9505V216.249H54.602V214.464ZM77.7228 214.464H79.3743V216.249H77.7228V214.464ZM104.147 214.464H102.495V216.249H104.147V214.464ZM127.267 214.464H128.919V216.249H127.267V214.464ZM153.691 214.464H152.04V216.249H153.691V214.464ZM176.812 214.464H178.463V216.249H176.812V214.464ZM203.236 214.464H201.584V216.249H203.236V214.464ZM226.356 214.464H228.008V216.249H226.356V214.464ZM252.78 214.464H251.129V216.249H252.78V214.464ZM275.901 214.464H277.552V216.249H275.901V214.464ZM302.325 214.464H300.673V216.249H302.325V214.464ZM325.445 214.464H327.097V216.249H325.445V214.464ZM351.869 214.464H350.218V216.249H351.869V214.464ZM374.99 214.464H376.642V216.249H374.99V214.464ZM401.414 214.464H399.762V216.249H401.414V214.464ZM424.535 214.464H426.186V216.249H424.535V214.464ZM450.958 214.464H449.307V216.249H450.958V214.464ZM474.079 214.464H475.731V216.249H474.079V214.464ZM500.503 214.464H498.851V216.249H500.503V214.464ZM523.624 214.464H525.275V216.249H523.624V214.464ZM550.047 214.464H548.396V216.249H550.047V214.464ZM573.168 214.464H574.82V216.249H573.168V214.464ZM599.592 214.464H597.941V216.249H599.592V214.464ZM622.713 214.464H624.364V216.249H622.713V214.464ZM649.137 214.464H647.485V216.249H649.137V214.464ZM672.257 214.464H673.909V216.249H672.257V214.464ZM698.681 214.464H697.03V216.249H698.681V214.464ZM721.802 214.464H723.453V216.249H721.802V214.464ZM748.226 214.464H746.574V216.249H748.226V214.464ZM-170 242.143H-168.348V243.928H-170V242.143ZM-143.576 242.143H-145.228V243.928H-143.576V242.143ZM-120.455 242.143H-118.804V243.928H-120.455V242.143ZM-94.0315 242.143H-95.683V243.928H-94.0315V242.143ZM-70.9108 242.143H-69.2593V243.928H-70.9108V242.143ZM-44.487 242.143H-46.1385V243.928H-44.487V242.143ZM-21.3663 242.143H-19.7148V243.928H-21.3663V242.143ZM5.05743 242.143H3.40594V243.928H5.05743V242.143ZM28.1782 242.143H29.8297V243.928H28.1782V242.143ZM54.602 242.143H52.9505V243.928H54.602V242.143ZM77.7228 242.143H79.3743V243.928H77.7228V242.143ZM104.147 242.143H102.495V243.928H104.147V242.143ZM127.267 242.143H128.919V243.928H127.267V242.143ZM153.691 242.143H152.04V243.928H153.691V242.143ZM176.812 242.143H178.463V243.928H176.812V242.143ZM203.236 242.143H201.584V243.928H203.236V242.143ZM226.356 242.143H228.008V243.928H226.356V242.143ZM252.78 242.143H251.129V243.928H252.78V242.143ZM275.901 242.143H277.552V243.928H275.901V242.143ZM302.325 242.143H300.673V243.928H302.325V242.143ZM325.445 242.143H327.097V243.928H325.445V242.143ZM351.869 242.143H350.218V243.928H351.869V242.143ZM374.99 242.143H376.642V243.928H374.99V242.143ZM401.414 242.143H399.762V243.928H401.414V242.143ZM424.535 242.143H426.186V243.928H424.535V242.143ZM450.958 242.143H449.307V243.928H450.958V242.143ZM474.079 242.143H475.731V243.928H474.079V242.143ZM500.503 242.143H498.851V243.928H500.503V242.143ZM523.624 242.143H525.275V243.928H523.624V242.143ZM550.047 242.143H548.396V243.928H550.047V242.143ZM573.168 242.143H574.82V243.928H573.168V242.143ZM599.592 242.143H597.941V243.928H599.592V242.143ZM622.713 242.143H624.364V243.928H622.713V242.143ZM649.137 242.143H647.485V243.928H649.137V242.143ZM672.257 242.143H673.909V243.928H672.257V242.143ZM698.681 242.143H697.03V243.928H698.681V242.143ZM721.802 242.143H723.453V243.928H721.802V242.143ZM748.226 242.143H746.574V243.928H748.226V242.143ZM-145.228 269.822H-143.576V271.607H-145.228V269.822ZM-170 269.822H-168.349V271.607H-170V269.822ZM-118.804 269.822H-120.455V271.607H-118.804V269.822ZM-95.6831 269.822H-94.0316V271.607H-95.6831V269.822ZM-69.2595 269.822H-70.9109V271.607H-69.2595V269.822ZM-46.1386 269.822H-44.4871V271.607H-46.1386V269.822ZM-19.7149 269.822H-21.3664V271.607H-19.7149V269.822ZM3.40587 269.822H5.05736V271.607H3.40587V269.822ZM29.8296 269.822H28.1781V271.607H29.8296V269.822ZM52.9504 269.822H54.6019V271.607H52.9504V269.822ZM79.3742 269.822H77.7227V271.607H79.3742V269.822ZM102.495 269.822H104.146V271.607H102.495V269.822ZM128.919 269.822H127.267V271.607H128.919V269.822ZM152.039 269.822H153.691V271.607H152.039V269.822ZM178.463 269.822H176.812V271.607H178.463V269.822ZM201.584 269.822H203.235V271.607H201.584V269.822ZM228.008 269.822H226.356V271.607H228.008V269.822ZM251.129 269.822H252.78V271.607H251.129V269.822ZM277.552 269.822H275.901V271.607H277.552V269.822ZM300.673 269.822H302.325V271.607H300.673V269.822ZM327.097 269.822H325.445V271.607H327.097V269.822ZM350.218 269.822H351.869V271.607H350.218V269.822ZM376.642 269.822H374.99V271.607H376.642V269.822ZM399.762 269.822H401.414V271.607H399.762V269.822ZM426.186 269.822H424.535V271.607H426.186V269.822ZM449.307 269.822H450.958V271.607H449.307V269.822ZM475.731 269.822H474.079V271.607H475.731V269.822ZM498.851 269.822H500.503V271.607H498.851V269.822ZM525.275 269.822H523.624V271.607H525.275V269.822ZM548.396 269.822H550.047V271.607H548.396V269.822ZM574.82 269.822H573.168V271.607H574.82V269.822ZM597.941 269.822H599.592V271.607H597.941V269.822ZM624.364 269.822H622.713V271.607H624.364V269.822ZM647.485 269.822H649.137V271.607H647.485V269.822ZM673.909 269.822H672.257V271.607H673.909V269.822ZM697.03 269.822H698.681V271.607H697.03V269.822ZM723.453 269.822H721.802V271.607H723.453V269.822ZM746.574 269.822H748.226V271.607H746.574V269.822ZM-168.349 297.5H-170V299.285H-168.349V297.5ZM-145.228 297.5H-143.576V299.285H-145.228V297.5ZM-118.804 297.5H-120.455V299.285H-118.804V297.5ZM-95.6831 297.5H-94.0316V299.285H-95.6831V297.5ZM-69.2595 297.5H-70.9109V299.285H-69.2595V297.5ZM-46.1386 297.5H-44.4871V299.285H-46.1386V297.5ZM-19.7149 297.5H-21.3664V299.285H-19.7149V297.5ZM3.40587 297.5H5.05736V299.285H3.40587V297.5ZM29.8296 297.5H28.1781V299.285H29.8296V297.5ZM52.9504 297.5H54.6019V299.285H52.9504V297.5ZM79.3742 297.5H77.7227V299.285H79.3742V297.5ZM102.495 297.5H104.146V299.285H102.495V297.5ZM128.919 297.5H127.267V299.285H128.919V297.5ZM152.039 297.5H153.691V299.285H152.039V297.5ZM178.463 297.5H176.812V299.285H178.463V297.5ZM201.584 297.5H203.235V299.285H201.584V297.5ZM228.008 297.5H226.356V299.285H228.008V297.5ZM251.129 297.5H252.78V299.285H251.129V297.5ZM277.552 297.5H275.901V299.285H277.552V297.5ZM300.673 297.5H302.325V299.285H300.673V297.5ZM327.097 297.5H325.445V299.285H327.097V297.5ZM350.218 297.5H351.869V299.285H350.218V297.5ZM376.642 297.5H374.99V299.285H376.642V297.5ZM399.762 297.5H401.414V299.285H399.762V297.5ZM426.186 297.5H424.535V299.285H426.186V297.5ZM449.307 297.5H450.958V299.285H449.307V297.5ZM475.731 297.5H474.079V299.285H475.731V297.5ZM498.851 297.5H500.503V299.285H498.851V297.5ZM525.275 297.5H523.624V299.285H525.275V297.5ZM548.396 297.5H550.047V299.285H548.396V297.5ZM574.82 297.5H573.168V299.285H574.82V297.5ZM597.941 297.5H599.592V299.285H597.941V297.5ZM624.364 297.5H622.713V299.285H624.364V297.5ZM647.485 297.5H649.137V299.285H647.485V297.5ZM673.909 297.5H672.257V299.285H673.909V297.5ZM697.03 297.5H698.681V299.285H697.03V297.5ZM723.453 297.5H721.802V299.285H723.453V297.5ZM746.574 297.5H748.226V299.285H746.574V297.5ZM-168.349 325.179H-170V326.964H-168.349V325.179ZM-145.228 325.179H-143.576V326.964H-145.228V325.179ZM-118.804 325.179H-120.455V326.964H-118.804V325.179ZM-95.6831 325.179H-94.0316V326.964H-95.6831V325.179ZM-69.2595 325.179H-70.9109V326.964H-69.2595V325.179ZM-46.1386 325.179H-44.4871V326.964H-46.1386V325.179ZM-19.7149 325.179H-21.3664V326.964H-19.7149V325.179ZM3.40587 325.179H5.05736V326.964H3.40587V325.179ZM29.8296 325.179H28.1781V326.964H29.8296V325.179ZM52.9504 325.179H54.6019V326.964H52.9504V325.179ZM79.3742 325.179H77.7227V326.964H79.3742V325.179ZM102.495 325.179H104.146V326.964H102.495V325.179ZM128.919 325.179H127.267V326.964H128.919V325.179ZM152.039 325.179H153.691V326.964H152.039V325.179ZM178.463 325.179H176.812V326.964H178.463V325.179ZM201.584 325.179H203.235V326.964H201.584V325.179ZM228.008 325.179H226.356V326.964H228.008V325.179ZM251.129 325.179H252.78V326.964H251.129V325.179ZM277.552 325.179H275.901V326.964H277.552V325.179ZM300.673 325.179H302.325V326.964H300.673V325.179ZM327.097 325.179H325.445V326.964H327.097V325.179ZM350.218 325.179H351.869V326.964H350.218V325.179ZM376.642 325.179H374.99V326.964H376.642V325.179ZM399.762 325.179H401.414V326.964H399.762V325.179ZM426.186 325.179H424.535V326.964H426.186V325.179ZM449.307 325.179H450.958V326.964H449.307V325.179ZM475.731 325.179H474.079V326.964H475.731V325.179ZM498.851 325.179H500.503V326.964H498.851V325.179ZM525.275 325.179H523.624V326.964H525.275V325.179ZM548.396 325.179H550.047V326.964H548.396V325.179ZM574.82 325.179H573.168V326.964H574.82V325.179ZM597.941 325.179H599.592V326.964H597.941V325.179ZM624.364 325.179H622.713V326.964H624.364V325.179ZM647.485 325.179H649.137V326.964H647.485V325.179ZM673.909 325.179H672.257V326.964H673.909V325.179ZM697.03 325.179H698.681V326.964H697.03V325.179ZM723.453 325.179H721.802V326.964H723.453V325.179ZM746.574 325.179H748.226V326.964H746.574V325.179ZM-168.349 352.858H-170V354.643H-168.349V352.858ZM-145.228 352.858H-143.576V354.643H-145.228V352.858ZM-118.804 352.858H-120.455V354.643H-118.804V352.858ZM-95.6831 352.858H-94.0316V354.643H-95.6831V352.858ZM-69.2595 352.858H-70.9109V354.643H-69.2595V352.858ZM-46.1386 352.858H-44.4871V354.643H-46.1386V352.858ZM-19.7149 352.858H-21.3664V354.643H-19.7149V352.858ZM3.40587 352.858H5.05736V354.643H3.40587V352.858ZM29.8296 352.858H28.1781V354.643H29.8296V352.858ZM52.9504 352.858H54.6019V354.643H52.9504V352.858ZM79.3742 352.858H77.7227V354.643H79.3742V352.858ZM102.495 352.858H104.146V354.643H102.495V352.858ZM128.919 352.858H127.267V354.643H128.919V352.858ZM152.039 352.858H153.691V354.643H152.039V352.858ZM178.463 352.858H176.812V354.643H178.463V352.858ZM201.584 352.858H203.235V354.643H201.584V352.858ZM228.008 352.858H226.356V354.643H228.008V352.858ZM251.129 352.858H252.78V354.643H251.129V352.858ZM277.552 352.858H275.901V354.643H277.552V352.858ZM300.673 352.858H302.325V354.643H300.673V352.858ZM327.097 352.858H325.445V354.643H327.097V352.858ZM350.218 352.858H351.869V354.643H350.218V352.858ZM376.642 352.858H374.99V354.643H376.642V352.858ZM399.762 352.858H401.414V354.643H399.762V352.858ZM426.186 352.858H424.535V354.643H426.186V352.858ZM449.307 352.858H450.958V354.643H449.307V352.858ZM475.731 352.858H474.079V354.643H475.731V352.858ZM498.851 352.858H500.503V354.643H498.851V352.858ZM525.275 352.858H523.624V354.643H525.275V352.858ZM548.396 352.858H550.047V354.643H548.396V352.858ZM574.82 352.858H573.168V354.643H574.82V352.858ZM597.941 352.858H599.592V354.643H597.941V352.858ZM624.364 352.858H622.713V354.643H624.364V352.858ZM647.485 352.858H649.137V354.643H647.485V352.858ZM673.909 352.858H672.257V354.643H673.909V352.858ZM697.03 352.858H698.681V354.643H697.03V352.858ZM723.453 352.858H721.802V354.643H723.453V352.858ZM746.574 352.858H748.226V354.643H746.574V352.858ZM-168.349 380.536H-170V382.321H-168.349V380.536ZM-145.228 380.536H-143.576V382.321H-145.228V380.536ZM-118.804 380.536H-120.455V382.321H-118.804V380.536ZM-95.6831 380.536H-94.0316V382.321H-95.6831V380.536ZM-69.2595 380.536H-70.9109V382.321H-69.2595V380.536ZM-46.1386 380.536H-44.4871V382.321H-46.1386V380.536ZM-19.7149 380.536H-21.3664V382.321H-19.7149V380.536ZM3.40587 380.536H5.05736V382.321H3.40587V380.536ZM29.8296 380.536H28.1781V382.321H29.8296V380.536ZM52.9504 380.536H54.6019V382.321H52.9504V380.536ZM79.3742 380.536H77.7227V382.321H79.3742V380.536ZM102.495 380.536H104.146V382.321H102.495V380.536ZM128.919 380.536H127.267V382.321H128.919V380.536ZM152.039 380.536H153.691V382.321H152.039V380.536ZM178.463 380.536H176.812V382.321H178.463V380.536ZM201.584 380.536H203.235V382.321H201.584V380.536ZM228.008 380.536H226.356V382.321H228.008V380.536ZM251.129 380.536H252.78V382.321H251.129V380.536ZM277.552 380.536H275.901V382.321H277.552V380.536ZM300.673 380.536H302.325V382.321H300.673V380.536ZM327.097 380.536H325.445V382.321H327.097V380.536ZM350.218 380.536H351.869V382.321H350.218V380.536ZM376.642 380.536H374.99V382.321H376.642V380.536ZM399.762 380.536H401.414V382.321H399.762V380.536ZM426.186 380.536H424.535V382.321H426.186V380.536ZM449.307 380.536H450.958V382.321H449.307V380.536ZM475.731 380.536H474.079V382.321H475.731V380.536ZM498.851 380.536H500.503V382.321H498.851V380.536ZM525.275 380.536H523.624V382.321H525.275V380.536ZM548.396 380.536H550.047V382.321H548.396V380.536ZM574.82 380.536H573.168V382.321H574.82V380.536ZM597.941 380.536H599.592V382.321H597.941V380.536ZM624.364 380.536H622.713V382.321H624.364V380.536ZM647.485 380.536H649.137V382.321H647.485V380.536ZM673.909 380.536H672.257V382.321H673.909V380.536ZM697.03 380.536H698.681V382.321H697.03V380.536ZM723.453 380.536H721.802V382.321H723.453V380.536ZM746.574 380.536H748.226V382.321H746.574V380.536ZM-168.349 408.215H-170V410H-168.349V408.215ZM-145.228 408.215H-143.576V410H-145.228V408.215ZM-118.804 408.215H-120.455V410H-118.804V408.215ZM-95.6831 408.215H-94.0316V410H-95.6831V408.215ZM-69.2595 408.215H-70.9109V410H-69.2595V408.215ZM-46.1386 408.215H-44.4871V410H-46.1386V408.215ZM-19.7149 408.215H-21.3664V410H-19.7149V408.215ZM3.40587 408.215H5.05736V410H3.40587V408.215ZM29.8296 408.215H28.1781V410H29.8296V408.215ZM52.9504 408.215H54.6019V410H52.9504V408.215ZM79.3742 408.215H77.7227V410H79.3742V408.215ZM102.495 408.215H104.146V410H102.495V408.215ZM128.919 408.215H127.267V410H128.919V408.215ZM152.039 408.215H153.691V410H152.039V408.215ZM178.463 408.215H176.812V410H178.463V408.215ZM201.584 408.215H203.235V410H201.584V408.215ZM228.008 408.215H226.356V410H228.008V408.215ZM251.129 408.215H252.78V410H251.129V408.215ZM277.552 408.215H275.901V410H277.552V408.215ZM300.673 408.215H302.325V410H300.673V408.215ZM327.097 408.215H325.445V410H327.097V408.215ZM350.218 408.215H351.869V410H350.218V408.215ZM376.642 408.215H374.99V410H376.642V408.215ZM399.762 408.215H401.414V410H399.762V408.215ZM426.186 408.215H424.535V410H426.186V408.215ZM449.307 408.215H450.958V410H449.307V408.215ZM475.731 408.215H474.079V410H475.731V408.215ZM498.851 408.215H500.503V410H498.851V408.215ZM525.275 408.215H523.624V410H525.275V408.215ZM548.396 408.215H550.047V410H548.396V408.215ZM574.82 408.215H573.168V410H574.82V408.215ZM597.941 408.215H599.592V410H597.941V408.215ZM624.364 408.215H622.713V410H624.364V408.215ZM647.485 408.215H649.137V410H647.485V408.215ZM673.909 408.215H672.257V410H673.909V408.215ZM697.03 408.215H698.681V410H697.03V408.215ZM723.453 408.215H721.802V410H723.453V408.215ZM746.574 408.215H748.226V410H746.574V408.215Z" fill="url(#paint0_radial_4032_56015)"/>
<defs>
<radialGradient id="paint0_radial_4032_56015" cx="0" cy="0" r="1" gradientUnits="userSpaceOnUse" gradientTransform="translate(678.199 127.646) rotate(115.52) scale(205.892 389.919)">
<stop offset="0.302083" stop-color="#FF6D00"/>
<stop offset="1" stop-color="#FF6D00" stop-opacity="0"/>
</radialGradient>
</defs>
</svg>
